<svg xmlns="http://www.w3.org/2000/svg" xmlns:xlink="http://www.w3.org/1999/xlink" width="614.548" height="395.263" viewBox="0 0 614.548 395.263">
  <defs>
    <style>
      .cls-1, .cls-10 {
        fill: none;
      }

      .cls-2 {
        fill: #bdcae0;
      }

      .cls-3 {
        fill: #cddcf4;
      }

      .cls-4 {
        fill: #b0bdd1;
      }

      .cls-5 {
        fill: #dbe9ff;
      }

      .cls-6 {
        fill: #f6a397;
      }

      .cls-7 {
        fill: #d65863;
      }

      .cls-8 {
        fill: #5470d3;
      }

      .cls-9 {
        fill: #314ec6;
      }

      .cls-10 {
        stroke: #314ec6;
        stroke-miterlimit: 10;
      }

      .cls-11 {
        fill: #504984;
      }

      .cls-12 {
        fill: #372d5b;
      }

      .cls-13 {
        fill: #ba6454;
      }

      .cls-14 {
        fill: #874438;
      }

      .cls-15 {
        fill: #fff;
      }

      .cls-16 {
        fill: #3f1751;
      }

      .cls-17 {
        fill: #ba5e5b;
      }

      .cls-18 {
        fill: #ffa6a4;
      }

      .cls-19 {
        fill: #e67471;
      }

      .cls-20 {
        fill: #282142;
      }

      .cls-21 {
        fill: #7f74d1;
      }

      .cls-22 {
        fill: #8e5058;
      }

      .cls-23 {
        fill: #64364a;
      }

      .cls-24 {
        clip-path: url(#clip-path);
      }

      .cls-25 {
        fill: #ffc5c7;
      }

      .cls-26 {
        fill: #dcedff;
      }

      .cls-27 {
        fill: #fe8a8b;
      }

      .cls-28 {
        fill: #0c0835;
      }

      .cls-29 {
        fill: #252384;
      }

      .cls-30 {
        fill: #57aff7;
      }

      .cls-31 {
        fill: #c31f2a;
      }

      .cls-32 {
        fill: #fb8384;
      }

      .cls-33 {
        fill: #d1c8d9;
        font-size: 20.46px;
        font-family: BebasKai, Bebas Kai;
      }
    </style>
    <clipPath id="clip-path">
      <path id="Path_134" data-name="Path 134" class="cls-1" d="M253.038,153.028a71.85,71.85,0,1,1-143.7,0c0-39.682,32.168-85.8,71.85-85.8S253.038,113.346,253.038,153.028Z"/>
    </clipPath>
  </defs>
  <g id="OBJECTS" transform="translate(-67.726 -45.226)">
    <path id="Path_1" data-name="Path 1" class="cls-2" d="M671.688,370.72c-26.012,39.457-70.61,62.65-117.869,62.65H161.567c-78.843,0-123.054-92.182-71.922-144.09s5.968-96.24,84.836-137.864c76.407-40.326,102.493,45.631,172.882-10.612s172.866-50.938,195.381,6.367,17.209,77.472,64.963,90.2S702.155,322.27,673.5,367.9Q672.607,369.327,671.688,370.72Z"/>
    <g id="Group_5" data-name="Group 5">
      <g id="Group_1" data-name="Group 1">
        <path id="Path_2" data-name="Path 2" class="cls-3" d="M654.251,386.715c-41.323,3.505-69.178,80.962-172.478,34.4,0,0,11.343-33.814,62.155-54.89S654.251,386.715,654.251,386.715Z"/>
        <path id="Path_3" data-name="Path 3" class="cls-4" d="M495.879,415.32a287.847,287.847,0,0,1,33.395-14.646c2.842-1.092,5.724-2.074,8.615-3.031,2.878-1,5.794-1.88,8.705-2.781,2.9-.935,5.855-1.7,8.8-2.492,1.473-.392,2.94-.809,4.419-1.179l4.449-1.068,4.46-1.023,4.491-.884,4.492-.882c1.5-.287,3.01-.51,4.519-.739,3.021-.445,6.03-.952,9.073-1.244,3.039-.315,6.06-.753,9.118-.867a152.7,152.7,0,0,1,36.473,1.347,246.508,246.508,0,0,0-36.158,1.9l-2.242.255-2.232.343-4.468.652c-2.984.383-5.938.981-8.9,1.516-1.477.29-2.967.5-4.441.8l-4.422.918-4.421.919-4.393,1.053-4.4,1.007c-1.465.35-2.919.747-4.379,1.119l-4.376,1.131c-1.461.37-2.9.823-4.359,1.206-2.908.8-5.822,1.577-8.7,2.474-2.886.878-5.792,1.7-8.668,2.624C518.783,407.344,507.349,411.3,495.879,415.32Z"/>
      </g>
      <g id="Group_2" data-name="Group 2">
        <path id="Path_4" data-name="Path 4" class="cls-5" d="M659.308,254.9c-50.419,36.041-27.095,156.821-195.354,175.839,0,0-11.232-52.1,37.97-117.962S659.308,254.9,659.308,254.9Z"/>
        <path id="Path_5" data-name="Path 5" class="cls-3" d="M475.148,416.189a282.764,282.764,0,0,1,26.587-45.333A319.274,319.274,0,0,1,535.7,330.517,279.809,279.809,0,0,1,576.148,296.6c14.523-9.928,30.19-18.471,46.9-23.795a292.678,292.678,0,0,0-43.53,28.4,420.768,420.768,0,0,0-38.641,34.468,517.51,517.51,0,0,0-34.615,38.618C495.361,387.767,485.116,401.79,475.148,416.189Z"/>
      </g>
      <g id="Group_3" data-name="Group 3">
        <path id="Path_6" data-name="Path 6" class="cls-3" d="M115.408,375.95c40.974,6.406,63.305,85.633,169.627,46.465,0,0-8.933-34.528-58.135-59.13S115.408,375.95,115.408,375.95Z"/>
        <path id="Path_7" data-name="Path 7" class="cls-4" d="M271.373,415.637c-11.159-4.818-22.285-9.57-33.539-13.967-2.8-1.123-5.644-2.148-8.462-3.228-2.811-1.1-5.663-2.08-8.508-3.081-1.428-.484-2.831-1.037-4.262-1.509l-4.287-1.437c-1.43-.473-2.853-.972-4.289-1.424l-4.322-1.315-4.309-1.359-4.345-1.229-4.346-1.227c-1.449-.41-2.921-.722-4.374-1.115-2.916-.742-5.821-1.547-8.77-2.139l-4.411-.965-2.2-.5-2.218-.412a246.575,246.575,0,0,0-35.934-4.44,152.738,152.738,0,0,1,36.477,1.225c3.042.329,6.025.979,9.034,1.507,3.015.505,5.981,1.223,8.963,1.879,1.489.336,2.982.665,4.456,1.056l4.418,1.2,4.418,1.2,4.377,1.333,4.363,1.379c1.449.474,2.883.993,4.325,1.487,2.879,1,5.771,1.969,8.6,3.106,2.841,1.1,5.687,2.189,8.488,3.387,2.816,1.158,5.622,2.341,8.381,3.631A287.67,287.67,0,0,1,271.373,415.637Z"/>
      </g>
      <g id="Group_4" data-name="Group 4">
        <path id="Path_8" data-name="Path 8" class="cls-5" d="M142.646,249.353c45.4,37.554,15.2,150.534,173.489,179.833,0,0,14.14-48.659-28.111-114.41S142.646,249.353,142.646,249.353Z"/>
        <path id="Path_9" data-name="Path 9" class="cls-3" d="M306.493,414.638c-8.556-14.29-17.364-28.25-26.818-41.737-9.491-13.455-19.523-26.481-30.259-38.9a405.882,405.882,0,0,0-34.292-35.285,282.748,282.748,0,0,0-39.29-29.955c15.524,6.1,29.844,15.226,42.974,25.6a263.8,263.8,0,0,1,36.137,34.86,300.748,300.748,0,0,1,29.488,40.57A264.8,264.8,0,0,1,306.493,414.638Z"/>
      </g>
    </g>
    <g id="Group_13" data-name="Group 13">
      <g id="Group_6" data-name="Group 6">
        <path id="Path_10" data-name="Path 10" class="cls-6" d="M409.65,354.532c-5.684,6.749-10.835,17.939-14.032,19.715s-8.588,2.394-13.682,18.791,20.625,14.152,20.625,14.152,11-6.316,15.437-21.575l11.013-9.769Z"/>
        <path id="Path_11" data-name="Path 11" class="cls-7" d="M389.755,405.392a41.224,41.224,0,0,0,15.384-10.168c7.088-7.486,8-20.8,8-20.8l3.394,6.343,6.79-7.257,3.273-.316,2.413,2.656L418,385.615c-4.44,15.259-15.437,21.575-15.437,21.575a40.883,40.883,0,0,1-13.088-1.171C389.628,405.631,389.755,405.392,389.755,405.392Z"/>
        <path id="Path_12" data-name="Path 12" class="cls-8" d="M448.208,295.8c-7.878,5.759-12.578,9.938-16.495,17.772s-28.465,35.98-30.032,38.49,13.8,29.146,26.092,35.674c0,0,18.564-21.413,29.27-29.509s7.051-36.821,2.09-46.483A75.47,75.47,0,0,0,448.208,295.8Z"/>
        <path id="Path_13" data-name="Path 13" class="cls-9" d="M447.921,347.633V331.644s2.084-.835,3.71,4.562a14.815,14.815,0,0,1,.309,6.383l11.952-8.989c.495,10.063-1.12,20.3-6.849,24.629-10.706,8.1-29.27,29.509-29.27,29.509-3.172-1.684-6.547-4.711-9.784-8.312C425.547,371.9,439.888,357.371,447.921,347.633Z"/>
        <path id="Path_14" data-name="Path 14" class="cls-6" d="M371.553,400.874c-2.045.638-3.554,1.615-3.554,4.19s.444,6.661,1.42,8.26,6.022,2.556,6.022,2.556-.338-10.638-1.4-12.592A4.974,4.974,0,0,0,371.553,400.874Z"/>
        <path id="Path_15" data-name="Path 15" class="cls-7" d="M369.419,413.324a7.185,7.185,0,0,1-.7-1.861,3.444,3.444,0,0,0,2.8,1.226l3.83,1.194c.058,1.2.084,2,.084,2S370.4,414.922,369.419,413.324Z"/>
        <path id="Path_16" data-name="Path 16" class="cls-6" d="M376.435,396.983c-2.486.266-4.973,2.131-4.973,4.707s-.888,9.769,0,10.923,5.24,4.441,6.75,4.707,4.073-.178,3.724-.977S376.435,396.983,376.435,396.983Z"/>
        <path id="Path_17" data-name="Path 17" class="cls-7" d="M371.085,410.68c1.885,2.128,6.706,1.937,6.706,1.937a19.231,19.231,0,0,1,2.38,2.99c.158.439,1.026,1.017,1.145,1.464a6.8,6.8,0,0,1-3.1.249c-1.48-.261-5.684-3.42-6.685-4.631l-.442-2Z"/>
        <path id="Path_18" data-name="Path 18" class="cls-6" d="M385.753,392.734c-7.63.43-9.051,1.14-9.318,4.249s-.088,12.167.889,14.476,1.509,4.351,2.753,5.595a4.861,4.861,0,0,0,3.1,1.247s4.179-6.132,4.357-11.283S385.753,392.734,385.753,392.734Z"/>
        <path id="Path_19" data-name="Path 19" class="cls-7" d="M381.364,413.2a46.3,46.3,0,0,0,1.354-11.418c.041-2.652,2.5,11.2,1.4,15-.547.943-.94,1.52-.94,1.52a4.861,4.861,0,0,1-3.1-1.247c-1.244-1.244-1.777-3.286-2.753-5.595a4.511,4.511,0,0,1-.181-.536C377.641,412.219,379.223,413.069,381.364,413.2Z"/>
        <path id="Path_20" data-name="Path 20" class="cls-6" d="M402.457,408.35c-.481,4.244-6.039,5.773-6.661,7.9s-.178,4.086-1.243,4.618-5.507-1.953-5.329-4.8a5.529,5.529,0,0,1-3.73,2.842c-2.575.444-3.2-1.438-2.753-4.271a36.078,36.078,0,0,0,.266-7.719c-.088-3.374-.888-6.483.622-10.213s3.552-7.016,7.638-6.394,6.572,5.773,8.792,7.549S402.99,403.643,402.457,408.35Z"/>
        <path id="Path_21" data-name="Path 21" class="cls-7" d="M389.224,416.077c.249-5.4.531-9.814.531-10.685s-.282-6.6,1.754-6.947c.31-.053,4.788,2.786,4.875,4.7s0,5.353-1.393,6.332S389.224,416.077,389.224,416.077Z"/>
      </g>
      <g id="Group_7" data-name="Group 7">
        <path id="Path_22" data-name="Path 22" class="cls-8" d="M574.3,307.307c-8.1-10.272-10.881-11.317-19.237-16.191s-40.042-17.236-46.571-18.8-32.859,10.707-41.5,14.624-19.633,7.771-21.507,11.589c-6.27,12.779,6.149,30.89,6.214,68.842.034,19.878,4.564,64.578,4.564,64.578s99.495.185,100.888-1.9,4.874-73.468,6.615-88.092S574.3,307.307,574.3,307.307Z"/>
        <line id="Line_1" data-name="Line 1" class="cls-10" x1="2.133" y1="14.755" transform="translate(443.714 303.781)"/>
        <path id="Path_23" data-name="Path 23" class="cls-9" d="M483.054,303.585c-3.845-1.436-12.952,1.062-14.617,1.641s.98-6.537,1.959-7.418,2.546-2.934,5.549-2.006,5.528,4.367,5.963,5.5A16.084,16.084,0,0,0,483.054,303.585Z"/>
        <path id="Path_24" data-name="Path 24" class="cls-9" d="M515.084,309.526c-1.371-.065-9.369-3.743-11.284-4.657s-10.59-1.341-16.415.287c0,0,11.214-7.577,17.743-7.512s9.009,2.416,9.531,4.5A43.27,43.27,0,0,1,515.084,309.526Z"/>
        <path id="Path_25" data-name="Path 25" class="cls-9" d="M472.313,415.942c1.068-1.045,66.045,1.044,67.351-5.745s2.2-19.138,2.2-19.138c-7.822,4.178-19.178,2.438-19.178,2.438,7.573-2.473,18.541-14.9,19.063-18.555,1.609-11.262-4.408-42.314-4.408-42.314l4.408-8.869,5.158-2.873a71.6,71.6,0,0,1,18.144,13.831,70.4,70.4,0,0,0-1.292,7.234c-1.641,13.788-4.83,78.013-6.356,87.067-20.126.742-56.608,2.078-81.02,2.916-11.828.028-20.127.013-20.127.013s-.153-5.88-.508-14.311C462.562,417.237,471.65,416.589,472.313,415.942Z"/>
        <path id="Path_26" data-name="Path 26" class="cls-8" d="M485.508,305.479c7.011-.846,18.28-6.921,22.719-4.831s5.484,7.442,6.4,8.356,4.831-3.656,4.831-14.885.345-22.728-7.923-24.29-29.681,6.532-33.99,9.8a20.341,20.341,0,0,0-7.312,9.748c-1.175,3.178-4.309,15.974-2.872,16.105s5.484-8.226,8.487-8.487S483.609,305.708,485.508,305.479Z"/>
        <path id="Path_27" data-name="Path 27" class="cls-9" d="M481.519,295.425c-1.787-4.244-3.746-7.965-3.681-10.9s.719-4.962,3.983-5.876,4.635.849,4.831,5.288S481.519,295.425,481.519,295.425Z"/>
        <path id="Path_28" data-name="Path 28" class="cls-9" d="M507.115,287.514c6.826-6.191,7.6-13.111,6.957-14.547s-3.46-2.481-3.46-2.481-1.11,4.5-.457,5.614S507.115,287.514,507.115,287.514Z"/>
        <path id="Path_29" data-name="Path 29" class="cls-10" d="M496.251,302.48c4.172-1.58,11.154-3.35,13.4-.975a18.426,18.426,0,0,1,3.887,5.371c1.087,2.128,1.49,4.114,4.015-1.155s1.9-15.716,1.9-15.716"/>
        <path id="Path_30" data-name="Path 30" class="cls-10" d="M480.175,300.138s-3.4-3.869-4.763-3.051a13.758,13.758,0,0,0-5.158,5.328c-2.143,3.455-4.706,5.151-2.5-3.55"/>
        <path id="Path_31" data-name="Path 31" class="cls-6" d="M480.561,269.919c.015,2.759.125,5.51.412,8.254.7,6.733.014,15.613.546,17.252.594,1.828,4.12,8.356,4.12,8.356s6.267-2.872,8.878-6.006,6.007-3.292,10.577-7.913,7.677-11.961,6.659-18.071c-.131-.783-.933-8.6-1.11-16.7s-8.683-14.246-16.779-14.246-12.941,12.013-13.2,20.108C480.565,264.276,480.547,267.395,480.561,269.919Z"/>
        <path id="Path_32" data-name="Path 32" class="cls-7" d="M510.643,255.092c.177,8.1.979,15.916,1.11,16.7a16.6,16.6,0,0,1-.162,5.9c-1.791.331-24.847.887-30.82-1.894-.137-1.956-.2-3.916-.21-5.88-.014-2.524,0-5.643.108-8.965a30.525,30.525,0,0,1,2.7-11.191l18.966-6.722C506.989,245.525,510.529,249.9,510.643,255.092Z"/>
      </g>
      <g id="Group_9" data-name="Group 9">
        <path id="Path_33" data-name="Path 33" class="cls-11" d="M466.359,221.383c-12.25,0-16.834,9.41-16.834,16.462,0,6.329,2.029,16.462,16.834,16.462,7.4,0,12.414-7.371,12.414-16.462S473.762,221.383,466.359,221.383Z"/>
        <path id="Path_34" data-name="Path 34" class="cls-12" d="M465.818,225.414c-9.251,0-12.712,7.106-12.712,12.431,0,4.779,1.532,12.431,12.712,12.431,5.59,0,9.374-5.566,9.374-12.431S471.408,225.414,465.818,225.414Z"/>
        <path id="Path_35" data-name="Path 35" class="cls-6" d="M450.9,226.94c.723,4.292,2.848,5.932,3.8,11.719s-1.582,14.194,2.192,21.518,9.878,16.952,13.4,17.359,31.767-4.364,41.3-23.312c2.735-5.439,8.581-26.768,3.579-39.792s-13.14-24.957-31.945-25.319S447.069,204.192,450.9,226.94Z"/>
        <path id="Path_36" data-name="Path 36" class="cls-7" d="M466.632,250.4a3.312,3.312,0,0,0,2.6-1.018,2.663,2.663,0,0,0,.487-2.047,6.057,6.057,0,0,1-5.083,1.1C464.416,249.79,465.457,250.374,466.632,250.4Z"/>
        <path id="Path_37" data-name="Path 37" class="cls-13" d="M499.9,226.94a12.612,12.612,0,0,0-3.7-7.042s-7.188-2.983-12.748-3.526A73.227,73.227,0,0,1,472.2,214.2s1.763,4.464,4.746,6.368c0,0-13.29-.673-17.494-4.6,0,0,.813,3.241,1.627,5.417,0,0-6.51-.671-8.544-3.248,0,0-1.627,5.675-1.627,8.805,0,0-7.821-10.7-5.832-19.2s4.7-11.753,4.7-11.753a43.185,43.185,0,0,1-8.68,0s7.233-6.329,12.658-10.488,21.7-4.34,21.7-4.34-1.265-4.34.181-11.211c0,0,6.962,10.217,14.33,13.336s6.376,2.854,14.19,4.826,15.239,6.973,18.359,11.177,6.509,8.543,8.543,9.222c0,0-4.882-.679-7.323-2.713,0,0,4.071,9.246-1.31,21.146s-18.86,8.379-21.474,5.752A5.115,5.115,0,0,1,499.9,226.94Z"/>
        <path id="Path_38" data-name="Path 38" class="cls-14" d="M500.946,232.692a5.115,5.115,0,0,1-1.046-5.752,12.743,12.743,0,0,0-2.625-5.872,79.326,79.326,0,0,0-2.315-35.675,40.937,40.937,0,0,0,6.174,1.95A66.856,66.856,0,0,1,509.3,205.06c2.366,7.877,3.511,16.385,1.3,24.307a26.479,26.479,0,0,1-2.434,5.868C504.823,234.955,502,233.751,500.946,232.692Z"/>
        <path id="Path_39" data-name="Path 39" class="cls-11" d="M504.627,222.52s.93-29.745-14.666-39.238A20.34,20.34,0,0,1,508.948,194c6.916,12.069,6.448,22.422,6.274,28.224S504.627,222.52,504.627,222.52Z"/>
        <path id="Path_40" data-name="Path 40" class="cls-11" d="M509.383,221.383c12.25,0,16.833,9.41,16.833,16.462,0,6.329-2.028,16.462-16.833,16.462-7.4,0-12.415-7.371-12.415-16.462S501.98,221.383,509.383,221.383Z"/>
        <path id="Path_41" data-name="Path 41" class="cls-12" d="M502.779,237.845c0-8.071,5.327-14.614,11.9-14.614s11.538,6.543,11.538,14.614-4.966,14.614-11.538,14.614S502.779,245.916,502.779,237.845Z"/>
        <ellipse id="Ellipse_1" data-name="Ellipse 1" class="cls-11" cx="8.098" cy="9.945" rx="8.098" ry="9.945" transform="translate(508.151 227.9)"/>
        <g id="Group_8" data-name="Group 8">
          <path id="Path_42" data-name="Path 42" class="cls-7" d="M478.333,254.307c-3.31,1.822-14.123,2.43-14.858,2.329s.774,8.109,3.422,8.412,7.945-.4,10.152-2.531S478.333,254.307,478.333,254.307Z"/>
          <path id="Path_43" data-name="Path 43" class="cls-15" d="M477.641,256.7c-.2-.728-.363-1.313-.517-1.882-3.642,1.243-10.811,1.769-13.021,1.822a15.253,15.253,0,0,0,.944,3.3c.07-.046-.017.105.053.06A16.113,16.113,0,0,0,477.641,256.7Z"/>
        </g>
        <path id="Path_44" data-name="Path 44" class="cls-16" d="M476.874,234.681c0-1.5.739-2.713,1.65-2.713s1.651,1.215,1.651,2.713-.739,2.712-1.651,2.712S476.874,236.179,476.874,234.681Z"/>
        <path id="Path_45" data-name="Path 45" class="cls-16" d="M457.994,235.946c0-1.5.635-2.712,1.419-2.712s1.418,1.214,1.418,2.712-.635,2.713-1.418,2.713S457.994,237.444,457.994,235.946Z"/>
        <path id="Path_46" data-name="Path 46" class="cls-16" d="M486.112,224.107a17.294,17.294,0,0,0-7.453-1.987,9.6,9.6,0,0,0-3.962.388,7.282,7.282,0,0,0-3.273,2.289l.1.162c1.361-.147,2.486-.481,3.675-.638,1.161-.175,2.288-.6,3.5-.7a21.012,21.012,0,0,1,7.338.655Z"/>
        <path id="Path_47" data-name="Path 47" class="cls-16" d="M453.222,227.612a7.4,7.4,0,0,1,1.824-.442,15.18,15.18,0,0,1,1.837-.121,8.073,8.073,0,0,0,1.82.065,5.365,5.365,0,0,0,.924-.257,3.771,3.771,0,0,0,.986-.491l.02-.187a3.549,3.549,0,0,0-1.936-.945,4.584,4.584,0,0,0-2.021.325,9.488,9.488,0,0,0-1.919.716,6.252,6.252,0,0,0-1.651,1.189Z"/>
      </g>
      <g id="Group_12" data-name="Group 12">
        <path id="Path_48" data-name="Path 48" class="cls-11" d="M472.313,422.377c.007.42-.58,1.027-2.017,1.027H425.01c-5.223,0-6.441-2.066-4.875-4.677s8.183-8.356,24.548-12.361,24.97,5.358,27.63,9.576C474.264,419.034,472.313,422.377,472.313,422.377Z"/>
        <path id="Path_49" data-name="Path 49" class="cls-12" d="M419.75,419.511c.9,3,35.456,1.434,35.456,1.434s-3.5-4.733-7.377-4.868-5.758,1.211-10.953,2.105-1.343-2.115-1.343-2.115-3.669-.812-5.164-1.97c0,0,8.559-2.53,12.15-3.117s12.731-.2,13.906,0c.831.138,5.048-2.311,10.146-1.081a22.8,22.8,0,0,1,5.742,6.043c1.951,3.092,0,6.435,0,6.435.007.42-.58,1.027-2.017,1.027H425.01C420.324,423.4,418.869,421.739,419.75,419.511Z"/>
        <path id="Path_50" data-name="Path 50" class="cls-6" d="M567.55,394.063s-32.205,4.98-49.66,8.1c-16.536,2.959-30.815,4.244-34.863,3.461s-17.888-5.876-22.328-7.7-13.318-2.873-17.888-1.436-8.313,3-10.141,3-1.48,2.959.958,3.569a18.271,18.271,0,0,0,4.613.522s-8.269,4.526-9.749,4.962.274,3.133,2.276,2.959c0,0-1.754,1.045-1.144,2.089s4.961,1.045,4.961,1.045-5.31,2.611-.87,3.656,9.749-3.917,11.925-4.352,7.225-.175,9.663,1.653,12.883,10.272,27.158,5.223c0,0,96.9,3.927,106.558,3.927s15.5-8.54,12.4-24.992a124.918,124.918,0,0,0-9.1-28.726l-33.426,2.351Z"/>
        <g id="Group_10" data-name="Group 10">
          <path id="Path_51" data-name="Path 51" class="cls-7" d="M445.87,400.966a13.185,13.185,0,0,1,1.959-.345S447,400.764,445.87,400.966Z"/>
          <path id="Path_52" data-name="Path 52" class="cls-7" d="M438.241,403.581a18.271,18.271,0,0,1-4.613-.522,2.909,2.909,0,0,1-1.553-.956c2.711,1.2,6.048.433,7.875,0,1.153-.275,3.985-.791,5.92-1.135A45.3,45.3,0,0,0,438.241,403.581Z"/>
        </g>
        <g id="Group_11" data-name="Group 11">
          <path id="Path_53" data-name="Path 53" class="cls-7" d="M438.667,407.5a5.07,5.07,0,0,1,.5-.2Z"/>
          <path id="Path_54" data-name="Path 54" class="cls-7" d="M428.509,410.482c.031.028.987.87,3-.005,1.676-.729,5.743-2.4,7.159-2.979-1.782.809-6.614,3.537-7.9,4A2.8,2.8,0,0,1,428.509,410.482Z"/>
        </g>
        <path id="Path_55" data-name="Path 55" class="cls-7" d="M433.51,413.678c1.479-.435,4.57-2.306,6.463-3.2a13.017,13.017,0,0,1,4.309-1,9.2,9.2,0,0,0-2.612,1c-1.893.933-7.085,4.159-7.085,4.159a15.966,15.966,0,0,1-4.216-.539A12.378,12.378,0,0,0,433.51,413.678Z"/>
        <path id="Path_56" data-name="Path 56" class="cls-7" d="M461.06,415.811c2.742,1.7,10.837,3.917,15.669,3a7.359,7.359,0,0,0,5.875-4.961l1.35,4.352s67.2,1.915,80.866,1.3c13.51-.607,34.581-.914,37.333-9.028-.755,9.418-5.857,14.266-13.134,14.266-9.662,0-106.558-3.927-106.558-3.927-14.275,5.049-24.721-3.4-27.158-5.223-2.027-1.519-5.853-1.954-8.338-1.808h0C450.673,412.486,458.318,414.114,461.06,415.811Z"/>
        <path id="Path_57" data-name="Path 57" class="cls-7" d="M567.55,394.063s12.591-1.711,15.115-1.972l-1.915-7.835-15.93,3.221Z"/>
        <path id="Path_58" data-name="Path 58" class="cls-8" d="M601.2,372.133a3.268,3.268,0,0,1-.767,3.524c-5.852,5.713-13.533,13.5-21.434,14.693-8.618,1.3-22.981,1.828-23.764,0s-3.656-25.07-8.879-36.821-8.618-17.758-9.923-24.548,10.445-22.719,15.668-24.025,17.235-2.089,22.2,2.351,8.618,21.413,14.363,34.209C593.295,351.842,599.121,366.758,601.2,372.133Z"/>
        <path id="Path_59" data-name="Path 59" class="cls-10" d="M568.875,304.729s-8.693-1.775-16.776.227-13.771,15.93-13.771,15.93"/>
        <path id="Path_60" data-name="Path 60" class="cls-9" d="M594.678,376.944c-.044-4.172-8.854-42.424-16.637-63.745h0c3.309,7.285,6.4,18.924,10.618,28.317,4.636,10.326,10.462,25.242,12.539,30.617a3.266,3.266,0,0,1-.767,3.523c-2.242,2.189-4.753,4.679-7.441,6.988C593.193,382.448,594.718,380.84,594.678,376.944Z"/>
      </g>
    </g>
    <g id="Group_21" data-name="Group 21">
      <g id="Group_15" data-name="Group 15">
        <path id="Path_61" data-name="Path 61" class="cls-17" d="M174.624,333.85a6.156,6.156,0,0,0,.735,3.721,26.724,26.724,0,0,1,3.285,13.635c-.1,3.116-.739,6.3.11,9.3,1.463,5.175,6.925,8.375,8.683,13.457,1.558,4.506.109,10.173,3.347,13.672a3.027,3.027,0,0,0,3.147,1.092,3.837,3.837,0,0,0,1.355-1.126c3.713-4.217,7.688-9.342,6.543-14.843-1.076-5.167-6.4-8.659-7.411-13.84-.824-4.233,1.34-9.117-1.086-12.683-.669-.984-1.627-1.736-2.358-2.675-2.885-3.7-1.816-9.607-5.139-12.922a7.665,7.665,0,0,0-3.918-2.01,6.088,6.088,0,0,0-7.293,5.219Z"/>
        <g id="Group_14" data-name="Group 14">
          <path id="Path_62" data-name="Path 62" class="cls-18" d="M195.74,399.508c.223-2.756.318-5.514.421-8.279-.126-2.755-.273-5.512-.509-8.267s-.546-5.509-1.033-8.247a35.115,35.115,0,0,0-2.293-8.059c-2-5.056-3.616-10.342-5.25-15.581l-2.368-7.9q-1.459-3.87-2.841-7.769c.4,2.739,1.029,5.429,1.579,8.138l2.373,7.915c1.644,5.265,3.245,10.52,5.293,15.7a33.72,33.72,0,0,1,2.213,7.782c.476,2.68.783,5.4,1.017,8.129s.39,5.468.5,8.211Z"/>
          <path id="Path_63" data-name="Path 63" class="cls-18" d="M181.188,343.64a6.468,6.468,0,0,0,1.669,1.66,9.731,9.731,0,0,0,1.054.535,4.007,4.007,0,0,1,.958.663l.126.114.112-.172c.262-.4.582-.775.834-1.182s.5-.817.714-1.243a9.689,9.689,0,0,0,.892-2.751l-.078-.039a9.737,9.737,0,0,0-1.652,2.374c-.208.429-.377.878-.558,1.32s-.276.927-.438,1.38l.237-.058a4.023,4.023,0,0,1-.916-.719,9.542,9.542,0,0,0-.821-.847,6.477,6.477,0,0,0-2.08-1.1Z"/>
          <path id="Path_64" data-name="Path 64" class="cls-18" d="M181.858,353.063c.473.39.961.812,1.473,1.164a12.212,12.212,0,0,0,1.591.991c.567.272,1.169.487,1.714.8a10.576,10.576,0,0,1,1.537,1.083l.172.14.174-.228a27.513,27.513,0,0,0,2.013-3.115,19.709,19.709,0,0,0,1.453-3.431l-.076-.043a19.637,19.637,0,0,0-2.19,3.015,27.749,27.749,0,0,0-1.63,3.331l.346-.088a11.265,11.265,0,0,1-1.651-.9c-.519-.351-.982-.793-1.483-1.176a10.887,10.887,0,0,0-1.621-.957,7.256,7.256,0,0,0-1.8-.665Z"/>
          <path id="Path_65" data-name="Path 65" class="cls-18" d="M185.206,365.5a7.965,7.965,0,0,0,1.7,1.256,6.432,6.432,0,0,0,1.926.766,4.991,4.991,0,0,1,1.865.894c.552.42,1.094.883,1.647,1.246l.418.274.311-.466a13.2,13.2,0,0,0,1.2-2.156,11.48,11.48,0,0,0,.773-2.39l-.1-.053a11.482,11.482,0,0,0-1.6,1.932,13.161,13.161,0,0,0-1.18,2.166l.729-.192a12.489,12.489,0,0,0-1.969-.782,5.674,5.674,0,0,1-1.818-1.013,5.9,5.9,0,0,0-1.793-1.065,7.289,7.289,0,0,0-2.054-.517Z"/>
        </g>
      </g>
      <g id="Group_17" data-name="Group 17">
        <path id="Path_66" data-name="Path 66" class="cls-19" d="M200.124,400.047c2.154-.355,10.231-2.938,9.667-5.047-2.421-9.052-4.842-19.321,3.542-23.749,4.035-2.13,9.1-3.213,11.4-7.155,2.366-4.06.624-9.221-1.5-13.413s-4.68-8.68-3.77-13.291c.952-4.828,5.518-8.39,6.248-13.257,1-6.645-5.455-12-11.653-14.593-2.109-.883-4.426-1.637-6.648-1.1a8.164,8.164,0,0,0-4.051,2.617c-4.355,4.868-4.177,12.214-3.183,18.67s2.514,13.273.083,19.335c-1.728,4.306-5.425,8.356-4.434,12.889.4,1.815,1.529,3.4,1.96,5.206,1.164,4.873-2.884,9.262-4.739,13.915a17.078,17.078,0,0,0,3.787,17.9,3.785,3.785,0,0,0,3.294,1.077Z"/>
        <g id="Group_16" data-name="Group 16">
          <path id="Path_67" data-name="Path 67" class="cls-18" d="M199.362,400.147c.5-3.583,1-7.154,1.637-10.7.151-.887.337-1.768.48-2.654s.214-1.782.361-2.667q.4-2.661.9-5.3a69.541,69.541,0,0,1,2.7-10.332,21.417,21.417,0,0,1,2.259-4.672,6.413,6.413,0,0,1,1.633-1.729,8.556,8.556,0,0,0,2.179-2.026,8.955,8.955,0,0,0,1.572-5.622,27.536,27.536,0,0,0-.807-5.514c-.83-3.555-1.875-6.989-2.456-10.486a24.052,24.052,0,0,1,.214-10.38c.283-.814.505-1.643.773-2.472a17.3,17.3,0,0,1,1.03-2.414,24.162,24.162,0,0,1,3.016-4.426,20.4,20.4,0,0,0-3.849,3.9,18.567,18.567,0,0,0-1.513,2.356,9.675,9.675,0,0,0-1.042,2.619,25.672,25.672,0,0,0-.25,11.086c.605,3.628,1.668,7.114,2.475,10.582a25.986,25.986,0,0,1,.765,5.174,7.311,7.311,0,0,1-1.25,4.616,6.92,6.92,0,0,1-1.767,1.635,8,8,0,0,0-2.077,2.165,23.028,23.028,0,0,0-2.449,5.04,71.246,71.246,0,0,0-2.773,10.585q-.515,2.676-.916,5.367c-.123.9-.291,1.79-.4,2.69-.092.9-.132,1.81-.189,2.715C199.43,392.91,199.295,396.529,199.362,400.147Z"/>
          <path id="Path_68" data-name="Path 68" class="cls-18" d="M213.669,329.493a5.537,5.537,0,0,0-1.622.963,5.866,5.866,0,0,0-1.269,1.334,8.608,8.608,0,0,1-1.079,1.5,13.381,13.381,0,0,1-1.411,1.2l.639.04c-.215-.464-.481-.9-.725-1.343a13.574,13.574,0,0,0-.8-1.288c-.28-.42-.6-.815-.9-1.218s-.652-.775-.93-1.2l-.108.018a4.233,4.233,0,0,0,.32,1.582,10.559,10.559,0,0,0,.655,1.418,9.691,9.691,0,0,0,.845,1.292,14.474,14.474,0,0,0,.976,1.2l.4.42.239-.38a10.832,10.832,0,0,1,1.05-1.509,7.322,7.322,0,0,1,1.424-1.163,7.054,7.054,0,0,0,1.294-1.272,11.287,11.287,0,0,0,1.074-1.506Z"/>
          <path id="Path_69" data-name="Path 69" class="cls-18" d="M205.838,343.2a8.839,8.839,0,0,0,.965,1.7,12.274,12.274,0,0,0,1.234,1.482c.466.443,1,.822,1.5,1.231a8.985,8.985,0,0,1,1.314,1.4l.125.164.177-.141a14.8,14.8,0,0,0,1.683-1.545c.487-.556,1.006-1.083,1.459-1.662s.883-1.172,1.288-1.785.776-1.251,1.2-1.848l-.062-.09a7.66,7.66,0,0,0-1.824,1.36,16.983,16.983,0,0,0-1.516,1.628c-.471.567-.872,1.19-1.311,1.779s-.788,1.295-1.2,1.8l.3.023a7.91,7.91,0,0,1-1.327-1.379c-.375-.524-.711-1.081-1.1-1.583a16.67,16.67,0,0,0-1.321-1.377,14.335,14.335,0,0,0-1.5-1.232Z"/>
          <path id="Path_70" data-name="Path 70" class="cls-18" d="M220.241,353.779c-.68.8-1.385,1.534-2.106,2.236s-1.5,1.32-2.255,2a7.349,7.349,0,0,1-2.633,1.529,9.7,9.7,0,0,1-3.025.337l.449.316a20.249,20.249,0,0,0-.717-2.448,13.625,13.625,0,0,0-1.041-2.334,11.412,11.412,0,0,0-1.492-2.109,5.573,5.573,0,0,0-2.1-1.512l-.055.1a8.176,8.176,0,0,1,1.513,1.9,23.472,23.472,0,0,1,1.131,2.141l1.008,2.225c.331.745.623,1.521.913,2.276l.14.364.31-.048a17.455,17.455,0,0,0,3.073-.878,31.3,31.3,0,0,0,2.95-1.211,7.72,7.72,0,0,0,2.48-2.037,7.933,7.933,0,0,0,1.552-2.792Z"/>
          <path id="Path_71" data-name="Path 71" class="cls-18" d="M200.764,361.876a6.138,6.138,0,0,0-.421,2.513,8.228,8.228,0,0,0,.471,2.522,9.019,9.019,0,0,0,1.293,2.2l1.507,2,.107.143.174-.124a22.131,22.131,0,0,1,2.628-1.48c.882-.475,1.8-.879,2.714-1.269s1.828-.794,2.767-1.147c.932-.382,1.891-.687,2.864-1.053l-.016-.109a14.426,14.426,0,0,0-6.085,1.237,18.967,18.967,0,0,0-2.731,1.521,18.4,18.4,0,0,0-2.4,2l.281.019a6.967,6.967,0,0,1-1.391-1.986,17.108,17.108,0,0,1-.788-2.266,17.884,17.884,0,0,1-.864-4.7Z"/>
        </g>
      </g>
      <g id="Group_20" data-name="Group 20">
        <g id="Group_19" data-name="Group 19">
          <g id="Group_18" data-name="Group 18">
            <path id="Path_72" data-name="Path 72" class="cls-11" d="M185.48,423.4h23.056c2.14,0,3.96-1.85,4.282-4.354l3.65-28.361c.4-3.1-1.63-5.9-4.282-5.9H181.831c-2.652,0-4.681,2.8-4.282,5.9l3.65,28.361C181.521,421.554,183.34,423.4,185.48,423.4Z"/>
          </g>
        </g>
        <path id="Path_73" data-name="Path 73" class="cls-12" d="M181.831,384.791h15.518c-2.651,0-4.68,2.8-4.281,5.9l3.65,28.361c.322,2.5,2.141,4.354,4.281,4.354H185.48c-2.14,0-3.959-1.85-4.281-4.354l-3.65-28.361C177.15,387.586,179.179,384.791,181.831,384.791Z"/>
      </g>
    </g>
    <g id="Group_28" data-name="Group 28">
      <g id="Group_22" data-name="Group 22">
        <path id="Path_74" data-name="Path 74" class="cls-20" d="M392.011,415.616h-96.43a1.758,1.758,0,0,0-1.758,1.758v4.272a1.758,1.758,0,0,0,1.758,1.758h96.43Z"/>
        <path id="Path_75" data-name="Path 75" class="cls-11" d="M416.828,420.988v1.737a.679.679,0,0,1-.68.679h-24.29a1.368,1.368,0,0,1-1.369-1.368v-5.06a1.368,1.368,0,0,1,1.522-1.36l24.214,4.7A.68.68,0,0,1,416.828,420.988Z"/>
      </g>
      <g id="Group_27" data-name="Group 27">
        <g id="Group_25" data-name="Group 25">
          <path id="Path_76" data-name="Path 76" class="cls-11" d="M223.491,251.719H403.717a8.648,8.648,0,0,1,8.136,5.718l39.415,109.458c1.648,5.646-2.482,9.875-9.119,10.59-1.018.11-5.859-2.066-13.461-5.642H267.565a8.647,8.647,0,0,1-8.136-5.718l-35.606-98.878c-6.02-3.143-9.452-4.938-9.452-4.938S212.143,251.719,223.491,251.719Z"/>
          <path id="Path_77" data-name="Path 77" class="cls-12" d="M398.074,257.361H217.849a3.7,3.7,0,0,0-3.478,4.948l39.416,109.459a8.647,8.647,0,0,0,8.136,5.717H442.149a3.7,3.7,0,0,0,3.477-4.947L406.21,263.079A8.646,8.646,0,0,0,398.074,257.361Z"/>
          <path id="Path_78" data-name="Path 78" class="cls-20" d="M357.387,377.485l-8-29.672-30.321,29.672Z"/>
          <path id="Path_79" data-name="Path 79" class="cls-11" d="M313.507,295.8c.792,4.894,3.959,6.866,7.751,6.866a5.844,5.844,0,0,0,5.981-6.866,8.256,8.256,0,0,0-7.752-6.866A5.868,5.868,0,0,0,313.507,295.8Z"/>
          <g id="Group_23" data-name="Group 23">
            <path id="Path_80" data-name="Path 80" class="cls-20" d="M398.207,359.271l-2.317-6.436H398.8l2.318,6.436Z"/>
            <path id="Path_81" data-name="Path 81" class="cls-20" d="M392.072,359.271l-2.318-6.436h2.913l2.318,6.436Z"/>
            <path id="Path_82" data-name="Path 82" class="cls-20" d="M385.938,359.271l-2.318-6.436h2.913l2.318,6.436Z"/>
            <path id="Path_83" data-name="Path 83" class="cls-20" d="M379.8,359.271l-2.317-6.436H380.4l2.318,6.436Z"/>
          </g>
          <g id="Group_24" data-name="Group 24">
            <path id="Path_84" data-name="Path 84" class="cls-20" d="M292.668,359.271l-2.318-6.436h2.913l2.318,6.436Z"/>
            <path id="Path_85" data-name="Path 85" class="cls-20" d="M286.534,359.271l-2.318-6.436h2.913l2.318,6.436Z"/>
            <path id="Path_86" data-name="Path 86" class="cls-20" d="M280.4,359.271l-2.318-6.436h2.913l2.318,6.436Z"/>
            <path id="Path_87" data-name="Path 87" class="cls-20" d="M274.265,359.271l-2.317-6.436h2.913l2.318,6.436Z"/>
          </g>
        </g>
        <g id="Group_26" data-name="Group 26">
          <path id="Path_88" data-name="Path 88" class="cls-12" d="M296.529,412.826c1.778-5.114,23.345-74.7,23.345-74.7h27.684l1.829,9.692s-18.562,59.9-20.341,65.013c-.135.39-.264.782-.385,1.173h0c-1.627,5,2.664,4.978,7.5,4.978h48.823V423.4H303.643C293.861,423.4,294.75,417.94,296.529,412.826Z"/>
          <path id="Path_89" data-name="Path 89" class="cls-11" d="M347.558,338.121s-21.567,69.591-23.345,74.7-2.668,10.578,7.114,10.578H298.81c-9.783,0-8.894-5.464-7.115-10.578s23.345-74.7,23.345-74.7Z"/>
          <path id="Path_90" data-name="Path 90" class="cls-21" d="M340.778,338.121c-2.145-.1-4.289-.148-6.434-.217s-4.29-.09-6.435-.138-4.289-.1-6.434-.1l-6.435-.04-.358,0-.112.349c-.9,2.8-1.781,5.609-2.623,8.428l-2.566,8.447c-1.651,5.65-3.3,11.3-4.813,16.992,1.981-5.547,3.818-11.139,5.659-16.729l2.67-8.414c.9-2.8,1.764-5.615,2.613-8.433l-.47.346,6.435-.039c2.145,0,4.289-.063,6.434-.1s4.29-.064,6.435-.138S338.633,338.22,340.778,338.121Z"/>
        </g>
      </g>
    </g>
    <g id="Group_29" data-name="Group 29">
      <path id="Path_91" data-name="Path 91" class="cls-22" d="M152.177,440.489H629.52a8.543,8.543,0,0,0,8.543-8.542h0a8.543,8.543,0,0,0-8.543-8.543H152.177a8.542,8.542,0,0,0-8.542,8.543h0A8.542,8.542,0,0,0,152.177,440.489Z"/>
      <path id="Path_92" data-name="Path 92" class="cls-23" d="M152.177,440.489H629.52a8.543,8.543,0,0,0,8.543-8.542H143.635A8.542,8.542,0,0,0,152.177,440.489Z"/>
    </g>
    <g id="Group_40" data-name="Group 40">
      <circle id="Ellipse_2" data-name="Ellipse 2" class="cls-8" cx="71.85" cy="71.85" r="71.85" transform="translate(94.852 206.611) rotate(-76.825)"/>
      <g id="Group_39" data-name="Group 39">
        <g id="Group_38" data-name="Group 38" class="cls-24">
          <g id="Group_37" data-name="Group 37">
            <g id="Group_36" data-name="Group 36">
              <g id="Group_30" data-name="Group 30">
                <path id="Path_93" data-name="Path 93" class="cls-25" d="M282.218,210.367c1.364,6.856-4.982,12.95-6.969,14.092s-15.325,6.475-23.336,6.665-18.585-16.757-14.257-18.661,33.806-4,37.043-4S282.218,210.367,282.218,210.367Z"/>
                <path id="Path_94" data-name="Path 94" class="cls-15" d="M261.208,206.75c-3.5,20.565-11.8,36.561-14.392,36.847s-27.487-8.284-34.351-11.426,2.108-51.409,6.379-50.559,13.637,10.123,21.369,14.569S261.208,206.75,261.208,206.75Z"/>
                <path id="Path_95" data-name="Path 95" class="cls-26" d="M220.2,215.3c2.4,4.116,22.184,14.548,33.08,18.352-2.693,6.072-5.23,9.809-6.466,9.946-2.22.244-20.788-6-30.389-9.776A146.816,146.816,0,0,1,220.2,215.3Z"/>
                <path id="Path_96" data-name="Path 96" class="cls-25" d="M282.247,209.416c.195,8.159-7.154,9.33-15.951,7.236s-23.162-21.9-29.556-30.849-18.325-24.9-20.792-26.326-8.125-2.186-12.966-10.233,1.527-24.9,3.814-26.9,21.892,4.676,24.169,8.051-1.613,21.512-.922,23.8S247.418,175.14,254.7,179.71,282.105,203.513,282.247,209.416Z"/>
                <path id="Path_97" data-name="Path 97" class="cls-27" d="M216.837,135.809c-2.306-1.142-2.863-6.331-1.412-5.417s3.988.9,7.42.847a29.042,29.042,0,0,0,4.84-.343,29.7,29.7,0,0,1,.334,4.09S219.143,136.952,216.837,135.809Z"/>
                <path id="Path_98" data-name="Path 98" class="cls-27" d="M201.571,136.989c1.4-2.6,2.477-4.57,2.477-4.57L217.535,145.4a85.033,85.033,0,0,1,8.2-6.116l1.187,2.117c-2.182,3.691-4.083,11.5-4.126,13.4,0,0-2.071,2.285-3.227,2.475,0,0,14.428,22.851,23.7,34.086,9.22,11.169,15.535,20.829,19.882,23.934-8.77-5.056-20.732-21.544-26.413-29.5-6.394-8.95-18.325-24.9-20.792-26.326s-8.125-2.186-12.966-10.233C201.061,146.052,200.918,141.476,201.571,136.989Z"/>
                <path id="Path_99" data-name="Path 99" class="cls-28" d="M229.641,138.293c-.163,1.331-13.565,12.948-14.967,14.281a2,2,0,0,1-1.441,0c-3.564-3.131-19.126-31.392-19.4-32.412-.259-.951,10.073-10.672,13.227-13.273a2.786,2.786,0,0,1,2.491.29C212.729,111.894,229.853,136.572,229.641,138.293Z"/>
                <path id="Path_100" data-name="Path 100" class="cls-29" d="M228.2,138.293c-.163,1.331-13.565,12.948-14.968,14.281s-20.545-31.309-20.845-32.412c-.26-.951,11.243-10.514,14.4-13.115a.886.886,0,0,1,1.319.132C211.289,111.894,228.412,136.572,228.2,138.293Z"/>
                <path id="Path_101" data-name="Path 101" class="cls-30" d="M225.945,136.383c-.153,1.245-12.69,12.114-14,13.361s-19.22-29.291-19.5-30.322c-.242-.89,10.518-9.837,13.469-12.27a.83.83,0,0,1,1.235.123C210.123,111.686,226.143,134.773,225.945,136.383Z"/>
                <path id="Path_102" data-name="Path 102" class="cls-25" d="M217.907,120.454c-2.075-1.251-4.623-5.488-4.852-6.916s-.088-2.714,1.027-3,4.551,4.19,6.263,5.523,3.8,4.094,2.947,5.951-4.653,1.142-5.061.856S217.907,120.454,217.907,120.454Z"/>
                <path id="Path_103" data-name="Path 103" class="cls-27" d="M213.44,110.914c-.658,1.624,3.63,8.14,7.389,10.016l-1.4,1.6s-.634-.14-1.449-.333a11.452,11.452,0,0,1-.075-1.74c-2.075-1.251-4.623-5.488-4.852-6.916A3.187,3.187,0,0,1,213.44,110.914Z"/>
                <path id="Path_104" data-name="Path 104" class="cls-25" d="M222.733,127.038c-3.571-1.908-6.372-1.694-8.314-2.479s-2.3-3.785-.974-4.285,9.369.786,11.444,1.714,3.066,5.205,3.066,5.205Z"/>
                <path id="Path_105" data-name="Path 105" class="cls-27" d="M221.169,124.812a4.573,4.573,0,0,0,2.714,0c-.058.789.687,1.183,1.526,2.305l-2.677-.079c-3.57-1.908-6.371-1.694-8.313-2.479a2.9,2.9,0,0,1-1.64-2.01C213.644,124.193,219.159,124.433,221.169,124.812Z"/>
                <path id="Path_106" data-name="Path 106" class="cls-25" d="M230.965,130.4c-1.9,2.636-11.248,1.494-13.131,1.208s-3.066-1.475-2.874-2.674c.388-2.42,12.734-1.991,13.754-1.61S230.965,130.4,230.965,130.4Z"/>
                <path id="Path_107" data-name="Path 107" class="cls-27" d="M215.028,129.512c1.276,1.269,4.345,1.992,7.694,2.262a31.563,31.563,0,0,0,4.952.089,38.533,38.533,0,0,1-9.84-.259A3.106,3.106,0,0,1,215.028,129.512Z"/>
              </g>
              <g id="Group_31" data-name="Group 31">
                <path id="Path_108" data-name="Path 108" class="cls-15" d="M187.241,167.332c19.831,10.093,23.085,9.7,31.6,14.28s5.984,52.749,5.443,60.176-2.593,36.942-1.461,44.94,5.539,37.7,7.492,42.274,5.675,12.282-.084,16.852-17.946,7.712-44.4,6-54.98-17.995-56.242-20.28,12.648-44.273,13.23-52.271a107.378,107.378,0,0,1,3-17.709c.841-3.714-7.576-21.137-8.921-32.277s-13.447-41.87-11.152-47.5,23.374-11.9,37.729-19.059S187.241,167.332,187.241,167.332Z"/>
                <path id="Path_109" data-name="Path 109" class="cls-26" d="M206.9,179.823a55.284,55.284,0,0,1-18.758,27.3c-10.74-2.635-21.66-7.367-30.455-14.07a127.694,127.694,0,0,0,32.024,17.485A47.008,47.008,0,0,0,206.9,179.823Z"/>
                <path id="Path_110" data-name="Path 110" class="cls-25" d="M202.854,174.716c-3.809-1.625-8.7-3.867-15.613-7.384,0,0-9.411-11.734-23.765-4.575-4.981,2.483-10.77,4.86-16.3,7.141a71.7,71.7,0,0,0,38.4,31.339A50.66,50.66,0,0,0,202.854,174.716Z"/>
                <path id="Path_111" data-name="Path 111" class="cls-26" d="M129.587,331.572c-1.262-2.285,12.648-44.273,13.23-52.271a107.378,107.378,0,0,1,3-17.709c.841-3.714-7.576-21.137-8.921-32.277a59.7,59.7,0,0,0-1.548-7.356l8.942-6.66c5.244,14.627,8.515,40.334,13.485,46.618s17.35,8.855,17.35,8.855-12.229,2.856-17.561,1.713c0,0-5.693,22.565-5.757,33.705s.969,27.992,1.1,30.278c.049.853-.139,3.827-.394,7.218C139.7,338.613,130.3,332.862,129.587,331.572Z"/>
                <path id="Path_112" data-name="Path 112" class="cls-25" d="M165.728,142.464c-.205,11.92-.991,20.108-3.633,22.393,0,0,4.542,19.779,22.677,18.09,6.135-.571,5.55-10.854,2.469-15.615l1.826-14.619Z"/>
                <path id="Path_113" data-name="Path 113" class="cls-27" d="M163.476,162.757h0c1.552-3.656,2.089-10.781,2.252-20.293l23.339,10.249-1.171,9.375h0C183.759,163.944,163.476,162.757,163.476,162.757Z"/>
              </g>
              <g id="Group_32" data-name="Group 32">
                <path id="Path_114" data-name="Path 114" class="cls-25" d="M101.457,238.864c-4.02,5.522-9.4,19.233-7.38,25.517s22.832,34.276,32.353,44.749,11.681,12.187,13.336,15.615,9.766,17.566,11.895,19.709,5.964,2.428,5.964,2.428a10.147,10.147,0,0,0,8.359,2.57s4.783,3.285,8.576,4.142c0,0,1.252,2.425,2.522,2.641s2.885-2.356.545-7.5-6.182-7.283-6.8-10.568-3.59-9.986-3.59-9.986,6.675,6.844,10.786,7.272,4.663-2,2.407-4a52.209,52.209,0,0,1-7.9-8.854,15.7,15.7,0,0,0-11.335-7.141c-5.232-.714-8.9-1.286-10.259-2.285s-8.2-10.711-12.872-21.185-8.863-23.857-20.746-35.609l5.235-9.14Z"/>
                <path id="Path_115" data-name="Path 115" class="cls-27" d="M174.385,352.939a21.992,21.992,0,0,0-4.924-7.565l-.812-.8c-.24-.249-.663-.563-.756-.71-.41-.522-.764-1.209-1.158-1.83-.754-1.283-1.487-2.593-2.321-3.854a31.894,31.894,0,0,0,1.529,4.3,12.874,12.874,0,0,0,1.062,2.073,8.6,8.6,0,0,0,.837.854l.765.789c1.028,1.054,2,2.163,2.984,3.267S173.478,351.734,174.385,352.939Z"/>
                <path id="Path_116" data-name="Path 116" class="cls-27" d="M165.761,348.464c-.787-1.538-1.721-2.871-2.554-4.273-.872-1.383-1.646-2.769-2.44-4.3a8.866,8.866,0,0,0,1.452,4.944A11.3,11.3,0,0,0,165.761,348.464Z"/>
                <path id="Path_117" data-name="Path 117" class="cls-27" d="M161.581,349.074a9.367,9.367,0,0,1-3.956-2.192s-3.835-.286-5.964-2.428a55.563,55.563,0,0,1-4.761-7.1c.043.052,2.436,2.652,4.157,4.8a5.807,5.807,0,0,0,5.9,2.023l-.466-2.785S158.8,347.716,161.581,349.074Z"/>
                <path id="Path_118" data-name="Path 118" class="cls-27" d="M93.989,257.4c.113,2.605.144,4.678,4.01,11.516,4.351,7.7,30.5,40.132,36.2,46.13s5.535,6.379,8.911,15.856c-1.524-2.678-2.8-5.015-3.347-6.156-1.655-3.428-3.816-5.142-13.336-15.615S96.1,270.665,94.077,264.381A15.636,15.636,0,0,1,93.989,257.4Z"/>
                <path id="Path_119" data-name="Path 119" class="cls-27" d="M114.484,249.9l-2.124,3.54a12.121,12.121,0,0,1,4.96,2.94l4.145-7.034Z"/>
                <path id="Path_120" data-name="Path 120" class="cls-15" d="M139.543,230.54c5.461-10.736,7.648-28.17,2.718-37.346s-14.232-12.479-16.514-11.378-8.463,15.415-14.266,22.022-21.649,25.142-22.13,26.7,11.454,14.151,33.9,23.4C125.923,255.04,139.543,230.54,139.543,230.54Z"/>
                <path id="Path_121" data-name="Path 121" class="cls-26" d="M122.894,238.864l-3.581,7.343s17.64-17.684,24.963-30.88a53.079,53.079,0,0,1-4.732,15.213s-13.62,24.5-16.293,23.4c-3.841-1.583-7.349-3.265-10.565-4.971Z"/>
              </g>
              <g id="Group_35" data-name="Group 35">
                <path id="Path_122" data-name="Path 122" class="cls-12" d="M190.416,143.533c-1.213-4.915-1.187-9.94-1.48-14.964-.219-3.758-.41-7.2-3.82-9.444a12.62,12.62,0,0,0-8.549-1.592c-7.88,1-9.575,8.678-8.972,15.949.462,5.565,2.637,10.909,4.795,16.028-2.9-.128-6.855-1.647-8.586-4.059a17.2,17.2,0,0,0,4.551,8.335c-8.4-.145-16.193-5.64-20.642-13.02s-5.857-16.391-5.384-25.077c.562-10.308,3.776-20.64,10.152-28.577,12.824-15.963,37.53-17.824,52.575-4.106a37.806,37.806,0,0,1,10.8,17.893,59.513,59.513,0,0,1,.494,27.8,95.68,95.68,0,0,0-1.535,10.822c-.116,1.172-1.537,14.778-.715,14.728-5.305.322-11.4-.749-14.994-4.8,1.611,2.785,3,5.468,4.613,8.253C197.02,156.582,192.1,150.341,190.416,143.533Z"/>
                <path id="Path_123" data-name="Path 123" class="cls-25" d="M162.887,124.99c-2.37-1.4-5.219-2.161-7.417.069-3.238,3.284,1.363,18.566,8.345,14.852,0,0,10.111,14.139,17.532,18.138s12.708,2,15.487-.857S209.09,142.62,210.795,130.2c.608-4.428-.044-13.139.091-15,.417-5.712,2.581-10.4-1.925-14.886a26.089,26.089,0,0,0-17.275-7.5,27.9,27.9,0,0,0-21.516,9.412C164.256,108.934,163.231,116.5,162.887,124.99Z"/>
                <path id="Path_124" data-name="Path 124" class="cls-27" d="M156.618,129.235c.6-2.8,2.992-3.351,4.768-1.4,1.821,2,2.127,8.332,1.659,9.265s-3.6.867-4.189-1.066,1.229-3.145,2.987-2.573c0,0,.492-2.821-.945-4.638s-2.935-1.122-3.3-.655A14.416,14.416,0,0,1,156.618,129.235Z"/>
                <g id="Group_34" data-name="Group 34">
                  <path id="Path_125" data-name="Path 125" class="cls-16" d="M175.946,116.85a24.471,24.471,0,0,1,2.146-1.769,14.961,14.961,0,0,1,2.422-1.437,7.95,7.95,0,0,1,2.685-.9,5.621,5.621,0,0,1,2.727.361l-.012.128a13.373,13.373,0,0,1-1.32.424l-1.258.348c-.819.241-1.668.315-2.5.591a18.269,18.269,0,0,0-2.441,1.029c-.809.394-1.59.863-2.378,1.33Z"/>
                  <path id="Path_126" data-name="Path 126" class="cls-16" d="M207.536,113.644a9.207,9.207,0,0,0-2.417-.878,13.115,13.115,0,0,0-2.554-.3c-.865-.018-1.724.159-2.578.153a25.087,25.087,0,0,1-2.671-.066l-.027-.123a6.589,6.589,0,0,1,2.66-1.085,7.992,7.992,0,0,1,2.779.1,10.958,10.958,0,0,1,2.627.713,8.276,8.276,0,0,1,2.26,1.383Z"/>
                  <path id="Path_127" data-name="Path 127" class="cls-16" d="M184.427,121.871c-.032-1.208-.64-2.13-1.359-2.06s-1.275,1.108-1.244,2.316.64,2.13,1.359,2.06S184.458,123.079,184.427,121.871Z"/>
                  <path id="Path_128" data-name="Path 128" class="cls-16" d="M203.505,120.346c-.032-1.209-.534-2.141-1.122-2.083s-1.038,1.084-1.006,2.292.533,2.14,1.121,2.083S203.536,121.554,203.505,120.346Z"/>
                  <path id="Path_129" data-name="Path 129" class="cls-27" d="M190.4,133.614a5.4,5.4,0,0,0,5.892-.06,2.722,2.722,0,0,1-1.526,2.168,3.637,3.637,0,0,1-2.739-.148C191.2,135.192,190.927,134.355,190.4,133.614Z"/>
                  <g id="Group_33" data-name="Group 33">
                    <path id="Path_130" data-name="Path 130" class="cls-31" d="M183.781,140.7a164.774,164.774,0,0,0,16.686-1.115c-1.231,4.037-4.461,8.023-8.971,8.026C187.436,147.615,184.754,144.278,183.781,140.7Z"/>
                    <path id="Path_131" data-name="Path 131" class="cls-32" d="M187.436,146.294a7.149,7.149,0,0,1,3.845-.037,6.165,6.165,0,0,1,5.169-.505,7.815,7.815,0,0,1-4.954,1.86A6.843,6.843,0,0,1,187.436,146.294Z"/>
                    <path id="Path_132" data-name="Path 132" class="cls-15" d="M197.764,142.963a19.468,19.468,0,0,1-12.234-.474c-.026-.6-.071-1.2-.117-1.8,3.938-.084,10.313-.561,13.725-.942A11.4,11.4,0,0,1,197.764,142.963Z"/>
                  </g>
                </g>
                <path id="Path_133" data-name="Path 133" class="cls-12" d="M166.872,111.844a55.587,55.587,0,0,0,18.95-4.207c1.143-2.643,1.182-4.988,1.353-7.863a22.829,22.829,0,0,1,2.771,9.756c3.784-.245,7.587-.449,11.371-.694a23.577,23.577,0,0,0,1.02-9.263,40.1,40.1,0,0,1,2.358,9.956c2.284-.812,5.179.373,7.565.8,2.957-6.587,2.764-18.523-3.492-23.519-6.093-4.866-16.676-6.191-24.121-5.113-15.84,2.293-28.288,15.445-27.305,31.829.56,9.348,5.249,18.187,11.973,24.7A37.9,37.9,0,0,1,166.872,111.844Z"/>
              </g>
            </g>
          </g>
        </g>
      </g>
    </g>
    <g id="Group_42" data-name="Group 42">
      <circle id="Ellipse_3" data-name="Ellipse 3" class="cls-19" cx="41.783" cy="41.783" r="41.783" transform="matrix(0.252, -0.968, 0.968, 0.252, 273.387, 187.732)"/>
      <g id="Group_41" data-name="Group 41">
        <rect id="Rectangle_2" data-name="Rectangle 2" class="cls-5" width="48.079" height="32.713" rx="3.426" transform="translate(348.375 174.159) rotate(180)"/>
        <path id="Path_135" data-name="Path 135" class="cls-3" d="M303.723,174.159h41.226a3.426,3.426,0,0,0,3.426-3.426l-24.039-15.117L300.3,170.733A3.426,3.426,0,0,0,303.723,174.159Z"/>
        <path id="Path_136" data-name="Path 136" class="cls-8" d="M303.723,141.446h41.226a3.426,3.426,0,0,1,3.426,3.427l-24.039,15.116L300.3,144.873A3.426,3.426,0,0,1,303.723,141.446Z"/>
      </g>
    </g>
    <g id="Group_46" data-name="Group 46">
      <circle id="Ellipse_4" data-name="Ellipse 4" class="cls-19" cx="41.783" cy="41.783" r="41.783" transform="matrix(0.974, -0.226, 0.226, 0.974, 570.426, 186.655)"/>
      <g id="Group_45" data-name="Group 45">
        <g id="Group_43" data-name="Group 43">
          <path id="Path_137" data-name="Path 137" class="cls-5" d="M632.28,209.757h-4.2a14.951,14.951,0,0,0-1.911-4.6l2.973-2.973a1.037,1.037,0,0,0,0-1.468l-3.3-3.3a1.037,1.037,0,0,0-1.468,0l-2.973,2.973a14.95,14.95,0,0,0-4.6-1.911v-4.2a1.039,1.039,0,0,0-1.039-1.038h-4.672a1.038,1.038,0,0,0-1.038,1.038v4.2a14.939,14.939,0,0,0-4.6,1.911l-2.973-2.973a1.038,1.038,0,0,0-1.469,0l-3.3,3.3a1.039,1.039,0,0,0,0,1.468l2.973,2.973a14.949,14.949,0,0,0-1.911,4.6h-4.2a1.039,1.039,0,0,0-1.039,1.039v4.672a1.038,1.038,0,0,0,1.039,1.038h4.2a14.939,14.939,0,0,0,1.911,4.6l-2.973,2.974a1.039,1.039,0,0,0,0,1.468l3.3,3.3a1.04,1.04,0,0,0,1.469,0l2.973-2.973a14.939,14.939,0,0,0,4.6,1.911v4.2a1.039,1.039,0,0,0,1.038,1.039h4.672a1.039,1.039,0,0,0,1.039-1.039v-4.2a14.95,14.95,0,0,0,4.6-1.911l2.973,2.973a1.039,1.039,0,0,0,1.468,0l3.3-3.3a1.037,1.037,0,0,0,0-1.468l-2.973-2.974a14.94,14.94,0,0,0,1.911-4.6h4.2a1.038,1.038,0,0,0,1.038-1.038V210.8A1.039,1.039,0,0,0,632.28,209.757Zm-18.863,9.822a6.447,6.447,0,1,1,6.447-6.447A6.448,6.448,0,0,1,613.417,219.579Z"/>
          <path id="Path_138" data-name="Path 138" class="cls-8" d="M613.417,204.158a8.974,8.974,0,1,0,8.974,8.974A8.974,8.974,0,0,0,613.417,204.158Zm0,14.454a5.48,5.48,0,1,1,5.48-5.48A5.481,5.481,0,0,1,613.417,218.612Z"/>
        </g>
        <g id="Group_44" data-name="Group 44">
          <path id="Path_139" data-name="Path 139" class="cls-5" d="M650.222,228.16h-2.145a7.669,7.669,0,0,0-.977-2.352l1.519-1.519a.531.531,0,0,0,0-.75l-1.688-1.688a.531.531,0,0,0-.75,0l-1.519,1.519a7.622,7.622,0,0,0-2.352-.976v-2.146a.53.53,0,0,0-.53-.53h-2.387a.53.53,0,0,0-.53.53v2.146a7.637,7.637,0,0,0-2.353.976l-1.518-1.519a.531.531,0,0,0-.75,0l-1.688,1.688a.53.53,0,0,0,0,.75l1.519,1.519a7.643,7.643,0,0,0-.977,2.352H630.95a.53.53,0,0,0-.53.531v2.387a.53.53,0,0,0,.53.53H633.1a7.623,7.623,0,0,0,.977,2.352l-1.519,1.519a.53.53,0,0,0,0,.75l1.688,1.688a.531.531,0,0,0,.75,0l1.518-1.519a7.637,7.637,0,0,0,2.353.976v2.146a.53.53,0,0,0,.53.531h2.387a.53.53,0,0,0,.53-.531v-2.146a7.622,7.622,0,0,0,2.352-.976l1.519,1.519a.531.531,0,0,0,.75,0l1.688-1.688a.531.531,0,0,0,0-.75L647.1,233.96a7.649,7.649,0,0,0,.977-2.352h2.145a.53.53,0,0,0,.531-.53v-2.387A.531.531,0,0,0,650.222,228.16Zm-9.636,5.017a3.293,3.293,0,1,1,3.294-3.293A3.293,3.293,0,0,1,640.586,233.177Z"/>
          <path id="Path_140" data-name="Path 140" class="cls-8" d="M640.586,225.3a4.584,4.584,0,1,0,4.585,4.584A4.584,4.584,0,0,0,640.586,225.3Zm0,7.384a2.8,2.8,0,1,1,2.8-2.8A2.8,2.8,0,0,1,640.586,232.684Z"/>
        </g>
      </g>
    </g>
    <g id="Group_66" data-name="Group 66">
      <circle id="Ellipse_5" data-name="Ellipse 5" class="cls-19" cx="41.783" cy="41.783" r="41.783" transform="matrix(0.928, -0.373, 0.373, 0.928, 377.709, 76.405)"/>
      <g id="Group_65" data-name="Group 65">
        <path id="Rectangle_3" data-name="Rectangle 3" class="cls-15" d="M3.3,0H44.775a3.3,3.3,0,0,1,3.3,3.3v34.5a3.3,3.3,0,0,1-3.3,3.3H3.3a3.3,3.3,0,0,1-3.3-3.3V3.3A3.3,3.3,0,0,1,3.3,0Z" transform="translate(456.103 121.053) rotate(180)"/>
        <path id="Path_141" data-name="Path 141" class="cls-8" d="M408.025,88.546H456.1v-5.3a3.3,3.3,0,0,0-3.3-3.3H411.328a3.3,3.3,0,0,0-3.3,3.3Z"/>
        <g id="Group_52" data-name="Group 52">
          <g id="Group_51" data-name="Group 51">
            <g id="Group_48" data-name="Group 48">
              <g id="Group_47" data-name="Group 47">
                <path id="Path_142" data-name="Path 142" class="cls-15" d="M444.619,81.777h0a.975.975,0,0,0,.975-.975V79.083a.975.975,0,0,0-.975-.975h0a.974.974,0,0,0-.975.975V80.8A.974.974,0,0,0,444.619,81.777Z"/>
                <path id="Path_143" data-name="Path 143" class="cls-15" d="M447.406,81.777h0a.975.975,0,0,0,.975-.975V79.083a.975.975,0,0,0-.975-.975h0a.974.974,0,0,0-.975.975V80.8A.974.974,0,0,0,447.406,81.777Z"/>
              </g>
            </g>
            <g id="Group_50" data-name="Group 50">
              <g id="Group_49" data-name="Group 49">
                <path id="Path_144" data-name="Path 144" class="cls-15" d="M416.722,81.777h0a.975.975,0,0,0,.975-.975V79.083a.975.975,0,0,0-.975-.975h0a.974.974,0,0,0-.975.975V80.8A.974.974,0,0,0,416.722,81.777Z"/>
                <path id="Path_145" data-name="Path 145" class="cls-15" d="M419.509,81.777h0a.974.974,0,0,0,.975-.975V79.083a.974.974,0,0,0-.975-.975h0a.975.975,0,0,0-.975.975V80.8A.975.975,0,0,0,419.509,81.777Z"/>
              </g>
            </g>
          </g>
        </g>
        <g id="Group_64" data-name="Group 64">
          <g id="Group_63" data-name="Group 63">
            <g id="Group_53" data-name="Group 53">
              <rect id="Rectangle_4" data-name="Rectangle 4" class="cls-5" width="4.165" height="4.165" rx="0.793" transform="translate(434.305 93.661)"/>
            </g>
            <g id="Group_54" data-name="Group 54">
              <rect id="Rectangle_5" data-name="Rectangle 5" class="cls-5" width="4.165" height="4.165" rx="0.793" transform="translate(424.395 93.661)"/>
            </g>
            <g id="Group_55" data-name="Group 55">
              <rect id="Rectangle_6" data-name="Rectangle 6" class="cls-5" width="4.165" height="4.165" rx="0.793" transform="translate(414.484 93.661)"/>
            </g>
            <g id="Group_56" data-name="Group 56">
              <rect id="Rectangle_7" data-name="Rectangle 7" class="cls-5" width="4.165" height="4.165" rx="0.793" transform="translate(444.216 102.196)"/>
            </g>
            <g id="Group_57" data-name="Group 57">
              <rect id="Rectangle_8" data-name="Rectangle 8" class="cls-5" width="4.165" height="4.165" rx="0.793" transform="translate(434.305 102.196)"/>
            </g>
            <g id="Group_58" data-name="Group 58">
              <rect id="Rectangle_9" data-name="Rectangle 9" class="cls-5" width="4.165" height="4.165" rx="0.793" transform="translate(424.395 102.196)"/>
            </g>
            <g id="Group_59" data-name="Group 59">
              <rect id="Rectangle_10" data-name="Rectangle 10" class="cls-5" width="4.165" height="4.165" rx="0.793" transform="translate(414.484 102.196)"/>
            </g>
            <g id="Group_60" data-name="Group 60">
              <rect id="Rectangle_11" data-name="Rectangle 11" class="cls-5" width="4.165" height="4.165" rx="0.793" transform="translate(444.216 110.73)"/>
            </g>
            <g id="Group_61" data-name="Group 61">
              <rect id="Rectangle_12" data-name="Rectangle 12" class="cls-5" width="4.165" height="4.165" rx="0.793" transform="translate(434.305 110.73)"/>
            </g>
            <g id="Group_62" data-name="Group 62">
              <rect id="Rectangle_13" data-name="Rectangle 13" class="cls-5" width="4.165" height="4.165" rx="0.793" transform="translate(424.395 110.73)"/>
            </g>
          </g>
        </g>
      </g>
    </g>
    <g id="Group_68" data-name="Group 68">
      <circle id="Ellipse_6" data-name="Ellipse 6" class="cls-19" cx="41.783" cy="41.783" r="41.783" transform="translate(492.585 121.053) rotate(-45)"/>
      <g id="Group_67" data-name="Group 67">
        <circle id="Ellipse_7" data-name="Ellipse 7" class="cls-15" cx="28.618" cy="28.618" r="28.618" transform="translate(511.203 121.053) rotate(-45)"/>
        <path id="Path_146" data-name="Path 146" class="cls-8" d="M551.675,92.435a28.618,28.618,0,1,0,28.618,28.618A28.618,28.618,0,0,0,551.675,92.435Zm2.4,53v-3.908a1.316,1.316,0,0,0-1.315-1.316h-2.168a1.316,1.316,0,0,0-1.316,1.316v3.908a24.506,24.506,0,0,1-21.983-21.983H531.2a1.316,1.316,0,0,0,1.316-1.316V119.97a1.316,1.316,0,0,0-1.316-1.316h-3.908a24.506,24.506,0,0,1,21.983-21.983v3.908a1.316,1.316,0,0,0,1.316,1.316h2.168a1.316,1.316,0,0,0,1.315-1.316V96.671a24.505,24.505,0,0,1,21.983,21.983h-3.908a1.316,1.316,0,0,0-1.316,1.316v2.167a1.316,1.316,0,0,0,1.316,1.316h3.908A24.505,24.505,0,0,1,554.074,145.436Z"/>
        <text id="_24_7" data-name="24/7" class="cls-33" transform="translate(553.308 127.874)"><tspan x="-15.273" y="0">24/7</tspan></text>
      </g>
    </g>
  </g>
</svg>
