<?xml version="1.0" encoding="UTF-8"?>
<svg width="24" height="24" version="1.1" viewBox="0 0 6.35 6.35" xmlns="http://www.w3.org/2000/svg" xmlns:xlink="http://www.w3.org/1999/xlink">
<defs>
<linearGradient id="a" x1="133.19" x2="169.55" y1="168.7" y2="168.7" gradientTransform="matrix(.17034 0 0 .17034 110.57 125.2)" gradientUnits="userSpaceOnUse">
<stop stop-color="#0f07fb" stop-opacity=".98431" offset="0"/>
<stop stop-color="#9bfaed" offset="1"/>
</linearGradient>
</defs>
<g transform="translate(-133.19 -150.76)">
<path d="m137.09 156.99c-6.8e-4 -5.3e-4 -0.0211-9.6e-4 -0.0455-2e-3 -0.0341-9.7e-4 -0.0459-2e-3 -0.051-5e-3 -5e-3 -3e-3 -0.013-3e-3 -0.0338-3e-3 -0.0182 0-0.0289-9.6e-4 -0.0327-3e-3 -3e-3 -2e-3 -0.0172-3e-3 -0.0319-5e-3 -0.0163-8.7e-4 -0.0279-3e-3 -0.0307-5e-3 -3e-3 -2e-3 -0.013-3e-3 -0.0272-3e-3 -0.013-5.2e-4 -0.0232-2e-3 -0.0242-3e-3 -8.4e-4 -9.6e-4 -0.0114-3e-3 -0.0223-3e-3 -0.0114-8.4e-4 -0.0223-3e-3 -0.0242-5e-3 -2e-3 -9.7e-4 -0.0114-3e-3 -0.0215-3e-3 -0.01-7e-4 -0.0196-2e-3 -0.021-3e-3 -9.6e-4 -9.6e-4 -0.01-3e-3 -0.0193-3e-3 -0.01-8.4e-4 -0.018-3e-3 -0.0199-5e-3 -2e-3 -9.7e-4 -0.01-3e-3 -0.0187-3e-3 -9e-3 -5.3e-4 -0.0174-2e-3 -0.0198-3e-3 -2e-3 -9.7e-4 -0.0114-3e-3 -0.0197-5e-3 -9e-3 -9.6e-4 -0.0163-3e-3 -0.0163-5e-3 -3.3e-4 -9.6e-4 -5e-3 -2e-3 -0.0114-2e-3 -7e-3 0-0.0145-2e-3 -0.019-5e-3 -5e-3 -3e-3 -0.013-5e-3 -0.019-5e-3 -7e-3 0-0.0114-9.6e-4 -0.013-3e-3 -2e-3 -9.6e-4 -9e-3 -3e-3 -0.0163-5e-3 -7e-3 -8.5e-4 -0.0145-3e-3 -0.0175-5e-3s-9e-3 -3e-3 -0.013-3e-3c-5e-3 0-0.0114-9.6e-4 -0.013-3e-3 -2e-3 -2e-3 -0.01-3e-3 -0.0163-5e-3 -7e-3 -8.4e-4 -0.013-3e-3 -0.013-5e-3 -6.6e-4 -2e-3 -5e-3 -3e-3 -0.01-3e-3s-0.0114-9.7e-4 -0.0163-3e-3c-3e-3 -2e-3 -0.0114-3e-3 -0.0163-5e-3 -5e-3 -6.8e-4 -0.01-3e-3 -0.0114-5e-3 -6.7e-4 -2e-3 -5e-3 -3e-3 -0.0114-3e-3 -5e-3 0-0.0114-9.6e-4 -0.013-3e-3 -2e-3 -2e-3 -9e-3 -3e-3 -0.013-5e-3 -5e-3 -6.8e-4 -0.0114-3e-3 -0.013-5e-3 -2e-3 -2e-3 -7e-3 -3e-3 -0.0114-3e-3 -5e-3 0-0.01-9.7e-4 -0.0114-3e-3 -2e-3 -2e-3 -9e-3 -3e-3 -0.013-5e-3 -5e-3 -6.9e-4 -0.0114-3e-3 -0.0114-5e-3 -9.6e-4 -9.6e-4 -7e-3 -3e-3 -0.0114-5e-3 -5e-3 -6.7e-4 -0.01-2e-3 -0.0114-3e-3 -8.5e-4 -9.6e-4 -5e-3 -3e-3 -0.01-3e-3 -5e-3 -6.9e-4 -0.01-3e-3 -0.0114-5e-3 -2e-3 -9.7e-4 -9e-3 -3e-3 -0.013-5e-3 -5e-3 -8.5e-4 -0.01-3e-3 -0.0114-5e-3 -9.6e-4 -2e-3 -5e-3 -3e-3 -9e-3 -3e-3 -3e-3 0-9e-3 -9.6e-4 -0.01-3e-3 -2e-3 -2e-3 -9e-3 -3e-3 -0.0114-5e-3 -3e-3 -8.5e-4 -9e-3 -3e-3 -9e-3 -5e-3 -6.9e-4 -2e-3 -3e-3 -3e-3 -9e-3 -3e-3 -3e-3 0-0.01-2e-3 -0.0146-5e-3 -5e-3 -2e-3 -0.01-5e-3 -0.013-5e-3s-5e-3 -9.6e-4 -7e-3 -3e-3c-6.7e-4 -2e-3 -3e-3 -3e-3 -7e-3 -3e-3 -3e-3 0-9e-3 -2e-3 -0.013-5e-3 -5e-3 -2e-3 -0.01-5e-3 -0.013-5e-3s-5e-3 -9.6e-4 -7e-3 -3e-3c-6.8e-4 -2e-3 -3e-3 -3e-3 -7e-3 -3e-3 -3e-3 -4e-5 -9e-3 -2e-3 -0.013-5e-3 -5e-3 -2e-3 -0.01-5e-3 -0.013-5e-3 -2e-3 -6e-5 -5e-3 -9.7e-4 -5e-3 -3e-3 -6.7e-4 -2e-3 -3e-3 -3e-3 -7e-3 -3e-3 -3e-3 0-9e-3 -2e-3 -0.01-5e-3 -2e-3 -2e-3 -7e-3 -5e-3 -0.01-5e-3s-7e-3 -9.6e-4 -9e-3 -3e-3c-2e-3 -2e-3 -7e-3 -3e-3 -0.0114-5e-3 -5e-3 -8.4e-4 -9e-3 -3e-3 -0.01-5e-3 -6.7e-4 -2e-3 -3e-3 -3e-3 -7e-3 -3e-3 -3e-3 0-7e-3 -9.7e-4 -9e-3 -3e-3 -2e-3 -2e-3 -7e-3 -3e-3 -0.01-5e-3 -3e-3 -6.9e-4 -7e-3 -3e-3 -9e-3 -5e-3 -6.7e-4 -2e-3 -3e-3 -3e-3 -5e-3 -3e-3s-7e-3 -2e-3 -0.01-5e-3c-3e-3 -2e-3 -9e-3 -5e-3 -0.01-5e-3 -2e-3 0-5e-3 -9.7e-4 -5e-3 -3e-3 -7e-4 -2e-3 -3e-3 -3e-3 -7e-3 -3e-3 -3e-3 0-9e-3 -2e-3 -0.0114-5e-3 -3e-3 -2e-3 -9e-3 -5e-3 -0.01-5e-3 -2e-3 0-5e-3 -9.6e-4 -5e-3 -3e-3 -6.7e-4 -2e-3 -3e-3 -3e-3 -5e-3 -3e-3 -3e-3 0-0.0263-0.0114-0.0275-0.013-3.3e-4 -8.5e-4 -2e-3 -2e-3 -3e-3 -2e-3 -3e-3 0-0.0217-0.01-0.0262-0.013-9.7e-4 -9.7e-4 -5e-3 -3e-3 -9e-3 -3e-3 -3e-3 -8.7e-4 -7e-3 -3e-3 -7e-3 -5e-3 -6.7e-4 -2e-3 -3e-3 -3e-3 -5e-3 -3e-3s-7e-3 -9.6e-4 -9e-3 -3e-3c-2e-3 -2e-3 -7e-3 -3e-3 -0.01-5e-3 -3e-3 -6.8e-4 -7e-3 -2e-3 -7e-3 -3e-3 0-9.6e-4 -3e-3 -3e-3 -5e-3 -3e-3 -3e-3 -9.6e-4 -0.01-5e-3 -0.0146-9e-3 -9e-3 -5e-3 -0.0255-0.0147-0.0425-0.0238-3e-3 -2e-3 -0.01-5e-3 -0.013-9e-3 -3e-3 -2e-3 -0.01-5e-3 -0.0114-7e-3 -3e-3 -9.7e-4 -7e-3 -3e-3 -7e-3 -5e-3 -9.7e-4 -9.7e-4 -3e-3 -3e-3 -7e-3 -3e-3 -2e-3 0-5e-3 -9.7e-4 -7e-3 -3e-3 -5e-3 -3e-3 -0.0114-9e-3 -0.0187-0.0114-3e-3 -2e-3 -7e-3 -3e-3 -7e-3 -5e-3 0-9.6e-4 -3e-3 -3e-3 -9e-3 -5e-3 -5e-3 -9.6e-4 -9e-3 -3e-3 -9e-3 -5e-3 0-9.7e-4 -9.6e-4 -2e-3 -3e-3 -2e-3 -2e-3 0-3e-3 -9.7e-4 -5e-3 -3e-3 -6.9e-4 -2e-3 -3e-3 -5e-3 -7e-3 -5e-3 -3e-3 -9.6e-4 -0.0114-7e-3 -0.019-0.0114-7e-3 -5e-3 -0.0147-0.01-0.0177-0.0114-3e-3 -9.6e-4 -7e-3 -3e-3 -9e-3 -5e-3s-5e-3 -3e-3 -7e-3 -3e-3 -3e-3 -9.6e-4 -5e-3 -3e-3c-6.8e-4 -2e-3 -3e-3 -5e-3 -7e-3 -5e-3 -5e-3 -2e-3 -0.0289-0.0175-0.0388-0.0253-0.013-0.01-0.0359-0.0256-0.041-0.0277-3e-3 -9.7e-4 -7e-3 -3e-3 -7e-3 -5e-3 -6.8e-4 -2e-3 -3e-3 -3e-3 -5e-3 -3e-3s-3e-3 -8.4e-4 -3e-3 -2e-3c0-9.6e-4 -5e-3 -5e-3 -0.01-9e-3 -7e-3 -3e-3 -0.013-0.01-0.0175-0.013-3e-3 -3e-3 -9e-3 -7e-3 -0.0114-9e-3 -2e-3 -6.8e-4 -9e-3 -5e-3 -0.013-9e-3 -0.0114-0.01-0.0114-0.01-0.0231-0.0177-5e-3 -3e-3 -0.013-0.01-0.0163-0.013-3e-3 -3e-3 -7e-3 -7e-3 -9e-3 -7e-3 -9.6e-4 0-3e-3 -9.6e-4 -3e-3 -3e-3 -9.6e-4 -2e-3 -3e-3 -3e-3 -7e-3 -5e-3 -5e-3 -3e-3 -0.0168-0.013-0.0241-0.0196-3e-3 -3e-3 -7e-3 -5e-3 -9e-3 -5e-3 -9.7e-4 0-3e-3 -6.9e-4 -3e-3 -2e-3 0-8.4e-4 -3e-3 -5e-3 -9e-3 -7e-3 -5e-3 -3e-3 -0.0114-0.01-0.0168-0.013-5e-3 -5e-3 -9e-3 -9e-3 -0.01-9e-3 -5.2e-4 0-5e-3 -3e-3 -9e-3 -7e-3 -5e-3 -3e-3 -0.0114-0.01-0.0166-0.013-5e-3 -3e-3 -9e-3 -7e-3 -9e-3 -9e-3 0-9.6e-4 -9.6e-4 -2e-3 -3e-3 -2e-3 -9.6e-4 0-5e-3 -3e-3 -0.01-7e-3 -9e-3 -9e-3 -0.0213-0.0201-0.0398-0.0358-7e-3 -7e-3 -0.0187-0.0168-0.0256-0.0236-7e-3 -7e-3 -0.013-0.013-0.0146-0.013-2e-3 0-0.15295-0.15164-0.15295-0.15393 0-9.6e-4 -9.6e-4 -2e-3 -3e-3 -2e-3 -2e-3 0-3e-3 -8.5e-4 -3e-3 -2e-3 0-9.6e-4 -5e-3 -9e-3 -0.0114-0.0146-7e-3 -7e-3 -0.0146-0.0166-0.0192-0.0218-5e-3 -5e-3 -0.01-0.0114-0.013-0.0147-3e-3 -3e-3 -5e-3 -7e-3 -5e-3 -7e-3 0-9.6e-4 -9.6e-4 -3e-3 -3e-3 -3e-3 -2e-3 0-3e-3 -9.6e-4 -3e-3 -3e-3 0-9.6e-4 -3e-3 -5e-3 -9e-3 -0.01-0.01-9e-3 -0.0322-0.0376-0.0322-0.0408 0-9.6e-4 -9.6e-4 -2e-3 -3e-3 -2e-3 -2e-3 0-3e-3 -6.8e-4 -3e-3 -2e-3 -2e-5 -8.5e-4 -3e-3 -7e-3 -9e-3 -0.0114-5e-3 -5e-3 -0.0114-0.013-0.0145-0.0177-3e-3 -5e-3 -9e-3 -0.01-0.0114-0.013-3e-3 -3e-3 -7e-3 -7e-3 -7e-3 -9e-3 -1e-5 -9.6e-4 -9.7e-4 -3e-3 -3e-3 -3e-3 -9.7e-4 -6e-5 -5e-3 -5e-3 -0.01-0.01-3e-3 -7e-3 -9e-3 -0.0114-0.01-0.0114-9.7e-4 -9.6e-4 -3e-3 -3e-3 -3e-3 -5e-3s-9.7e-4 -3e-3 -3e-3 -3e-3c-2e-3 0-3e-3 -9.7e-4 -3e-3 -3e-3 0-2e-3 -2e-3 -5e-3 -5e-3 -7e-3 -2e-3 -2e-3 -5e-3 -5e-3 -5e-3 -7e-3s-2e-3 -3e-3 -0.0114-0.0146c-2e-3 -2e-3 -3e-3 -5e-3 -3e-3 -7e-3 0-9.6e-4 -8.6e-4 -3e-3 -2e-3 -3e-3 -9.6e-4 0-5e-3 -5e-3 -0.01-0.0114-3e-3 -7e-3 -9e-3 -0.0114-0.01-0.0114-9.6e-4 0-3e-3 -2e-3 -3e-3 -3e-3 -3e-3 -7e-3 -0.0184-0.0291-0.0205-0.0291-9.6e-4 0-2e-3 -9.7e-4 -2e-3 -2e-3 0-2e-3 -0.01-0.0177-0.013-0.0199-2e-3 -2e-3 -0.0114-0.0145-0.0114-0.0166 0-6.9e-4 -3e-3 -5e-3 -9e-3 -0.01-5e-3 -5e-3 -9e-3 -0.0114-9e-3 -0.0146-8.4e-4 -3e-3 -3e-3 -5e-3 -5e-3 -7e-3 -2e-3 -6.9e-4 -3e-3 -3e-3 -3e-3 -5e-3s-9.7e-4 -3e-3 -3e-3 -5e-3c-2e-3 -6.8e-4 -3e-3 -3e-3 -3e-3 -5e-3s-2e-3 -5e-3 -5e-3 -9e-3c-2e-3 -3e-3 -5e-3 -7e-3 -5e-3 -9e-3s-9.6e-4 -3e-3 -2e-3 -3e-3c-9.7e-4 0-3e-3 -3e-3 -5e-3 -7e-3 -9.7e-4 -3e-3 -5e-3 -0.01-9e-3 -0.013-3e-3 -5e-3 -7e-3 -0.01-9e-3 -0.013-8.5e-4 -3e-3 -2e-3 -5e-3 -3e-3 -5e-3 -2e-3 0-5e-3 -5e-3 -0.0114-0.0175-9.7e-4 -3e-3 -3e-3 -7e-3 -5e-3 -7e-3 -9.7e-4 -9.7e-4 -3e-3 -3e-3 -3e-3 -5e-3 0-9.7e-4 -2e-3 -5e-3 -5e-3 -9e-3 -2e-3 -3e-3 -5e-3 -7e-3 -5e-3 -9e-3 0-9.7e-4 -9.6e-4 -3e-3 -3e-3 -3e-3 -2e-3 -6.8e-4 -3e-3 -3e-3 -3e-3 -5e-3s-2e-3 -7e-3 -3e-3 -9e-3c-5e-3 -5e-3 -9e-3 -0.01-0.0114-0.019-9.6e-4 -3e-3 -3e-3 -7e-3 -5e-3 -7e-3 -8.6e-4 0-2e-3 -3e-3 -3e-3 -7e-3 -8.4e-4 -3e-3 -2e-3 -7e-3 -3e-3 -7e-3 -9.6e-4 0-3e-3 -3e-3 -5e-3 -7e-3 -2e-3 -3e-3 -5e-3 -0.01-9e-3 -0.013-2e-3 -3e-3 -7e-3 -0.01-9e-3 -0.013s-5e-3 -9e-3 -5e-3 -9e-3c-9.7e-4 -6.7e-4 -2e-3 -3e-3 -2e-3 -5e-3s-2e-3 -7e-3 -5e-3 -0.01c-2e-3 -3e-3 -5e-3 -9e-3 -5e-3 -0.01 0-2e-3 -9.6e-4 -5e-3 -2e-3 -5e-3 -9.7e-4 0-3e-3 -3e-3 -5e-3 -9e-3 -2e-3 -5e-3 -5e-3 -9e-3 -5e-3 -0.01-9.6e-4 -8.5e-4 -2e-3 -3e-3 -2e-3 -7e-3 0-2e-3 -8.5e-4 -5e-3 -2e-3 -5e-3 -9.6e-4 0-3e-3 -3e-3 -5e-3 -9e-3 -9.6e-4 -5e-3 -3e-3 -9e-3 -5e-3 -9e-3 -9.6e-4 0-3e-3 -3e-3 -3e-3 -7e-3 -8.6e-4 -3e-3 -3e-3 -7e-3 -5e-3 -9e-3 -9.7e-4 -6.8e-4 -3e-3 -3e-3 -5e-3 -9e-3 -6.8e-4 -3e-3 -3e-3 -9e-3 -5e-3 -0.01-2e-3 -2e-3 -3e-3 -5e-3 -3e-3 -9e-3 0-2e-3 -9.6e-4 -5e-3 -3e-3 -5e-3 -2e-3 -6.9e-4 -3e-3 -5e-3 -5e-3 -9e-3 -6.7e-4 -3e-3 -3e-3 -9e-3 -5e-3 -9e-3 -2e-3 -6.8e-4 -3e-3 -3e-3 -3e-3 -7e-3 0-3e-3 -9.6e-4 -7e-3 -3e-3 -7e-3 -2e-3 -6.7e-4 -3e-3 -5e-3 -5e-3 -9e-3 -8.5e-4 -3e-3 -3e-3 -9e-3 -5e-3 -0.01-2e-3 -2e-3 -3e-3 -5e-3 -3e-3 -7e-3s-2e-3 -7e-3 -5e-3 -0.01c-2e-3 -3e-3 -5e-3 -9e-3 -5e-3 -0.01 0-2e-3 -9.6e-4 -5e-3 -3e-3 -7e-3 -2e-3 -9.6e-4 -3e-3 -3e-3 -3e-3 -5e-3 0-9.6e-4 -2e-3 -7e-3 -5e-3 -0.0114-2e-3 -5e-3 -5e-3 -0.01-5e-3 -0.0114 0-2e-3 -2e-3 -7e-3 -5e-3 -0.01-2e-3 -3e-3 -5e-3 -9e-3 -5e-3 -0.01 0-2e-3 -9.6e-4 -5e-3 -3e-3 -7e-3 -2e-3 -9.6e-4 -3e-3 -5e-3 -3e-3 -9e-3 0-3e-3 -9.6e-4 -7e-3 -3e-3 -9e-3 -2e-3 -6.9e-4 -3e-3 -5e-3 -5e-3 -0.01-8.3e-4 -5e-3 -3e-3 -9e-3 -5e-3 -0.01-2e-3 -9.7e-4 -3e-3 -5e-3 -3e-3 -9e-3 0-3e-3 -2e-3 -9e-3 -5e-3 -0.01-2e-3 -2e-3 -5e-3 -7e-3 -5e-3 -0.01s-9.6e-4 -7e-3 -3e-3 -7e-3c-2e-3 -6.9e-4 -3e-3 -3e-3 -3e-3 -7e-3 0-3e-3 -2e-3 -9e-3 -5e-3 -0.0114-2e-3 -3e-3 -5e-3 -9e-3 -5e-3 -0.0114 0-3e-3 -9.7e-4 -7e-3 -3e-3 -9e-3 -2e-3 -7e-4 -3e-3 -3e-3 -3e-3 -7e-3 -3e-5 -3e-3 -2e-3 -9e-3 -5e-3 -0.0114-2e-3 -3e-3 -5e-3 -9e-3 -5e-3 -0.013-2e-5 -3e-3 -9.6e-4 -9e-3 -3e-3 -9e-3 -2e-3 -6.9e-4 -3e-3 -5e-3 -5e-3 -0.01-8.5e-4 -5e-3 -3e-3 -0.01-5e-3 -0.0114-2e-3 -9.6e-4 -3e-3 -7e-3 -3e-3 -0.01 0-5e-3 -9.6e-4 -9e-3 -3e-3 -9e-3 -2e-3 -6.9e-4 -3e-3 -5e-3 -5e-3 -0.0114-8.6e-4 -5e-3 -3e-3 -0.0114-5e-3 -0.013-2e-3 -9.6e-4 -3e-3 -7e-3 -3e-3 -0.0114 0-5e-3 -9.6e-4 -0.01-3e-3 -0.01-2e-3 -9.7e-4 -3e-3 -7e-3 -5e-3 -0.0114-6.6e-4 -5e-3 -3e-3 -0.01-5e-3 -0.0114-2e-3 -9.7e-4 -3e-3 -5e-3 -3e-3 -0.01 0-3e-3 -9.6e-4 -9e-3 -3e-3 -0.0114-2e-3 -2e-3 -3e-3 -9e-3 -5e-3 -0.0145-6.9e-4 -5e-3 -3e-3 -0.0114-5e-3 -0.013-2e-3 -9.7e-4 -3e-3 -5e-3 -3e-3 -0.01 0-3e-3 -2e-3 -0.0114-5e-3 -0.0146-2e-3 -5e-3 -5e-3 -0.0114-5e-3 -0.0145 0-3e-3 -9.6e-4 -9e-3 -3e-3 -0.01-2e-3 -9.6e-4 -3e-3 -7e-3 -5e-3 -0.013-6.8e-4 -5e-3 -3e-3 -0.0114-5e-3 -0.0146-2e-3 -2e-3 -3e-3 -9e-3 -3e-3 -0.013 0-5e-3 -9.7e-4 -0.01-3e-3 -0.0114-2e-3 -2e-3 -3e-3 -9e-3 -5e-3 -0.013-6.9e-4 -7e-3 -3e-3 -0.013-5e-3 -0.0163-2e-3 -3e-3 -3e-3 -0.01-3e-3 -0.0163 0-7e-3 -9.6e-4 -0.0114-3e-3 -0.0114-2e-3 -9.7e-4 -3e-3 -7e-3 -5e-3 -0.0145-6.8e-4 -7e-3 -2e-3 -0.013-3e-3 -0.0146-9.6e-4 -2e-3 -3e-3 -9e-3 -3e-3 -0.0146-3.4e-4 -7e-3 -2e-3 -0.0146-5e-3 -0.0185-2e-3 -5e-3 -3e-3 -0.0114-3e-3 -0.0163 0-5e-3 -9.6e-4 -0.0114-3e-3 -0.013-2e-3 -3e-3 -3e-3 -0.0114-5e-3 -0.019-6.9e-4 -9e-3 -3e-3 -0.0163-5e-3 -0.0177-2e-3 -2e-3 -3e-3 -9e-3 -3e-3 -0.0163 0-7e-3 -9.7e-4 -0.0145-3e-3 -0.0174-2e-3 -3e-3 -3e-3 -0.0114-5e-3 -0.0201-8.5e-4 -9e-3 -3e-3 -0.0178-5e-3 -0.0209-2e-3 -3e-3 -3e-3 -0.0114-3e-3 -0.0196 0-9e-3 -9.6e-4 -0.0163-3e-3 -0.0187-2e-3 -3e-3 -3e-3 -0.013-5e-3 -0.0235-8.5e-4 -0.01-3e-3 -0.0199-3e-3 -0.0217-9.6e-4 -2e-3 -3e-3 -0.013-3e-3 -0.0242-5.2e-4 -0.0114-2e-3 -0.022-3e-3 -0.0227-3e-3 -2e-3 -5e-3 -0.0208-7e-3 -0.0384-1.1e-4 -7e-3 -2e-3 -0.0145-3e-3 -0.0175-2e-3 -5e-3 -3e-3 -0.013-3e-3 -0.0329 0-0.0174-8.5e-4 -0.0271-2e-3 -0.0277-3e-3 -9.6e-4 -7e-3 -0.0174-7e-3 -0.0474-1.8e-4 -0.0178-9.7e-4 -0.0296-3e-3 -0.0333-2e-3 -3e-3 -3e-3 -0.0168-3e-3 -0.0398-6.9e-4 -0.0486-2e-3 -0.0703-5e-3 -0.0792-3e-3 -0.0114-3e-3 -0.0298 6.8e-4 -0.0327 2e-3 -2e-3 0.11946-3e-3 0.40584-3e-3 0.3412-8.5e-4 0.40343-5.1e-4 0.40602 2e-3 2e-3 2e-3 3e-3 0.01 5e-3 0.018 8.5e-4 9e-3 2e-3 0.0169 3e-3 0.0194 5.1e-4 2e-3 2e-3 0.0223 3e-3 0.044 9.7e-4 0.0218 3e-3 0.0423 5e-3 0.0458 9.6e-4 3e-3 3e-3 0.0168 3e-3 0.0298 6.8e-4 0.013 2e-3 0.0266 3e-3 0.0303 9.7e-4 3e-3 3e-3 0.0169 5e-3 0.0295 9.6e-4 0.013 3e-3 0.0245 5e-3 0.0265 9.6e-4 2e-3 3e-3 0.0114 3e-3 0.02 8.5e-4 0.01 3e-3 0.0208 5e-3 0.0262 2e-3 5e-3 3e-3 0.0163 5e-3 0.0242 8.5e-4 9e-3 2e-3 0.0146 3e-3 0.0168 9.7e-4 9.6e-4 3e-3 0.01 3e-3 0.018 9.7e-4 9e-3 3e-3 0.0166 3e-3 0.018 8.5e-4 9.6e-4 3e-3 0.01 5e-3 0.0184 5e-3 0.0255 0.01 0.0459 0.0114 0.0497 9.6e-4 2e-3 3e-3 9e-3 3e-3 0.0147 8.5e-4 7e-3 3e-3 0.013 5e-3 0.0166 2e-3 3e-3 3e-3 9e-3 3e-3 0.013 4e-5 3e-3 9.6e-4 0.01 3e-3 0.013 2e-3 3e-3 3e-3 0.01 5e-3 0.0146 8.4e-4 5e-3 2e-3 0.0114 3e-3 0.013 9.6e-4 2e-3 3e-3 0.01 5e-3 0.0146 5e-3 0.0215 0.0146 0.0513 0.0198 0.062 2e-3 3e-3 3e-3 0.01 3e-3 0.0114 0 3e-3 9.7e-4 7e-3 3e-3 0.01 2e-3 3e-3 3e-3 9e-3 5e-3 0.013 8.6e-4 5e-3 3e-3 0.01 5e-3 0.0114 2e-3 2e-3 3e-3 7e-3 3e-3 9e-3 0 3e-3 5e-3 0.0177 0.013 0.0343 9.6e-4 3e-3 3e-3 0.01 5e-3 0.013 8.7e-4 3e-3 2e-3 7e-3 3e-3 7e-3 9.7e-4 0 2e-3 3e-3 3e-3 9e-3 8.5e-4 5e-3 3e-3 0.01 5e-3 0.0114 2e-3 9.6e-4 3e-3 5e-3 3e-3 7e-3s2e-3 9e-3 5e-3 0.013c2e-3 5e-3 7e-3 0.0146 9e-3 0.0194 9e-3 0.0174 0.0114 0.0274 0.0163 0.0374 2e-3 5e-3 7e-3 0.013 9e-3 0.0175 2e-3 5e-3 5e-3 0.01 5e-3 0.0114 9.7e-4 2e-3 3e-3 5e-3 3e-3 7e-3 3e-3 9e-3 0.0189 0.041 0.0205 0.044 9.7e-4 2e-3 5e-3 9e-3 9e-3 0.0146 3e-3 7e-3 7e-3 0.013 9e-3 0.0146 9.6e-4 2e-3 5e-3 0.01 9e-3 0.0166 3e-3 7e-3 0.0114 0.0201 0.0145 0.0286 5e-3 9e-3 0.01 0.0184 0.0114 0.022 2e-3 3e-3 7e-3 0.0114 0.01 0.0166 3e-3 5e-3 9e-3 0.0146 0.0114 0.0201 3e-3 5e-3 7e-3 0.0114 9e-3 0.013 2e-3 9.7e-4 3e-3 5e-3 3e-3 7e-3s9.7e-4 5e-3 2e-3 5e-3c9.6e-4 0 3e-3 3e-3 5e-3 7e-3 2e-3 3e-3 5e-3 0.01 9e-3 0.013 2e-3 3e-3 5e-3 0.01 7e-3 0.0114 9.7e-4 3e-3 3e-3 7e-3 3e-3 7e-3 2e-3 2e-3 0.0306 0.0452 0.0356 0.0551 9.6e-4 3e-3 3e-3 7e-3 5e-3 7e-3 6.9e-4 6.9e-4 5e-3 5e-3 9e-3 0.0114 3e-3 5e-3 7e-3 0.01 9e-3 0.0114 6.9e-4 6.7e-4 5e-3 5e-3 9e-3 0.0114 9e-3 0.0114 7e-3 0.0114 0.0187 0.0258 5e-3 7e-3 9e-3 0.013 9e-3 0.013 0 9.7e-4 2e-3 3e-3 3e-3 5e-3 5e-3 5e-3 7e-3 7e-3 0.0145 0.0194 3e-3 5e-3 9e-3 0.0114 0.01 0.0114 9.7e-4 9.6e-4 3e-3 3e-3 3e-3 5e-3s8.4e-4 3e-3 2e-3 3e-3c9.7e-4 0 5e-3 3e-3 9e-3 0.01 3e-3 5e-3 9e-3 0.01 0.01 0.0114 9.6e-4 9.6e-4 0.0114 0.013 0.0206 0.0255 0.01 0.013 0.0202 0.0252 0.0231 0.0284 3e-3 3e-3 0.01 0.0114 0.0145 0.0168 5e-3 7e-3 0.0146 0.0166 0.0201 0.0234 7e-3 7e-3 0.0163 0.0182 0.0231 0.0255 7e-3 7e-3 0.0163 0.0172 0.0203 0.0221 0.0198 0.0231 0.0935 0.0959 0.13263 0.13132 0.0114 0.01 0.0206 0.0187 0.0221 0.0201 9.6e-4 9.6e-4 0.01 9e-3 0.0168 0.0145 0.0147 0.013 0.0252 0.0213 0.0296 0.0255 9.6e-4 9.6e-4 0.01 9e-3 0.0199 0.0163 0.01 9e-3 0.0189 0.0145 0.0208 0.0171 2e-3 2e-3 7e-3 5e-3 9e-3 7e-3 7e-3 5e-3 0.0182 0.013 0.0223 0.0175 2e-3 2e-3 5e-3 5e-3 9e-3 7e-3 3e-3 2e-3 0.01 7e-3 0.0146 0.0114 0.013 0.01 0.0479 0.0353 0.0527 0.0382 2e-3 9.7e-4 9e-3 5e-3 0.013 0.01 5e-3 3e-3 0.01 7e-3 0.01 7e-3 2e-3 0 0.0175 0.0114 0.0184 0.013 3.3e-4 8.7e-4 2e-3 2e-3 3e-3 2e-3 2e-3 0 5e-3 9.6e-4 7e-3 3e-3 5e-3 5e-3 0.0169 0.013 0.019 0.013 9.7e-4 0 7e-3 3e-3 0.0114 7e-3 0.01 9e-3 0.0258 0.0175 0.0367 0.0232 3e-3 2e-3 7e-3 5e-3 9e-3 7e-3 9.7e-4 2e-3 3e-3 3e-3 7e-3 3e-3 2e-3 0 5e-3 8.5e-4 5e-3 2e-3 6.9e-4 9.6e-4 0.01 7e-3 0.0217 0.013 0.0114 7e-3 0.0208 0.0114 0.0215 0.013 6.7e-4 6.8e-4 0.01 5e-3 0.0199 0.0114 0.01 5e-3 0.0225 0.0114 0.0275 0.0145 5e-3 3e-3 0.0146 9e-3 0.0231 0.0114 9e-3 3e-3 0.0146 9e-3 0.0146 0.01 3.5e-4 9.6e-4 3e-3 2e-3 5e-3 2e-3s7e-3 2e-3 0.01 5e-3c3e-3 2e-3 9e-3 5e-3 0.0114 5e-3 3e-3 8.6e-4 7e-3 2e-3 7e-3 3e-3 0 9.6e-4 3e-3 3e-3 7e-3 3e-3 3e-3 8.7e-4 9e-3 3e-3 0.01 5e-3 9.6e-4 2e-3 5e-3 3e-3 7e-3 3e-3s7e-3 9.6e-4 0.01 3e-3c3e-3 2e-3 9e-3 5e-3 0.0114 5e-3 3e-3 9.6e-4 7e-3 3e-3 9e-3 3e-3 0.013 7e-3 0.0223 0.0114 0.0249 0.0114 2e-3 0 5e-3 9.6e-4 7e-3 3e-3 9.6e-4 2e-3 5e-3 3e-3 9e-3 3e-3 3e-3 0 9e-3 2e-3 0.0114 5e-3 3e-3 2e-3 9e-3 5e-3 0.0114 5e-3 3e-3 0 7e-3 9.6e-4 9e-3 3e-3 9.6e-4 2e-3 3e-3 3e-3 5e-3 3e-3s0.0197 7e-3 0.0289 0.0114c3e-3 2e-3 9e-3 3e-3 0.01 3e-3 2e-3 0 9e-3 2e-3 0.0114 5e-3 5e-3 2e-3 0.01 5e-3 0.0114 5e-3 2e-3 0 7e-3 9.6e-4 0.01 3e-3 0.01 5e-3 0.0272 0.013 0.0309 0.013 2e-3 5e-5 9e-3 2e-3 0.013 5e-3 5e-3 2e-3 0.01 5e-3 0.013 5e-3 2e-3 3e-5 5e-3 9.6e-4 9e-3 3e-3 2e-3 2e-3 7e-3 3e-3 9e-3 3e-3 2e-3 8e-5 9e-3 2e-3 0.013 5e-3 5e-3 2e-3 0.0114 5e-3 0.0163 5e-3 3e-3 6e-5 9e-3 9.7e-4 0.01 3e-3 9.6e-4 9.6e-4 9e-3 3e-3 0.013 5e-3 0.0242 7e-3 0.0304 9e-3 0.0356 0.0114 3e-3 9.7e-4 0.01 3e-3 0.0146 5e-3 5e-3 6.7e-4 0.0114 3e-3 0.0147 5e-3 3e-3 2e-3 0.01 3e-3 0.013 3e-3s9e-3 9.6e-4 0.0114 3e-3c2e-3 2e-3 0.01 3e-3 0.0145 5e-3 7e-3 6.9e-4 0.013 3e-3 0.0169 5e-3 3e-3 2e-3 0.0114 3e-3 0.0163 3e-3 5e-3 0 0.013 9.7e-4 0.0163 3e-3 3e-3 2e-3 0.01 3e-3 0.0146 5e-3 5e-3 6.9e-4 0.013 3e-3 0.019 5e-3 5e-3 2e-3 0.0163 3e-3 0.0225 5e-3 0.0332 7e-3 0.0386 7e-3 0.0501 0.01 7e-3 2e-3 0.0185 3e-3 0.0263 5e-3 9e-3 6.7e-4 0.0181 3e-3 0.0231 5e-3s0.0146 3e-3 0.0209 3e-3c7e-3 7e-5 0.0163 9.6e-4 0.0208 2e-3 5e-3 9.7e-4 0.0207 3e-3 0.0353 5e-3s0.0309 3e-3 0.0362 5e-3c5e-3 9.6e-4 0.0213 3e-3 0.0354 3e-3 0.0146 8.4e-4 0.0284 2e-3 0.032 3e-3 3e-3 9.6e-4 0.0263 3e-3 0.0504 3e-3 0.0891 3e-3 0.10582 3e-3 0.12077 5e-3 9e-3 6.9e-4 0.0392 1.6e-4 0.0683-9.7e-4 0.029-9.6e-4 0.0711-3e-3 0.0935-3e-3 0.0224-6.8e-4 0.0442-2e-3 0.0485-3e-3 5e-3 -9.6e-4 0.0196-3e-3 0.0341-3e-3 0.0146-6.7e-4 0.0338-3e-3 0.0429-5e-3 0.01-2e-3 0.0253-3e-3 0.0362-5e-3 0.0114-8.7e-4 0.0248-3e-3 0.0307-5e-3 7e-3 -2e-3 0.0145-3e-3 0.0209-3e-3 5e-3 -3e-5 0.0146-9.6e-4 0.0189-2e-3 9e-3 -2e-3 0.0232-5e-3 0.0584-0.0114 9e-3 -9.6e-4 0.0192-3e-3 0.0253-5e-3 7e-3 -2e-3 0.0172-5e-3 0.0248-5e-3 9e-3 -9.7e-4 0.0163-3e-3 0.018-5e-3 2e-3 -9.6e-4 7e-3 -2e-3 0.0114-2e-3 3e-3 0 0.013-2e-3 0.0205-5e-3 0.021-7e-3 0.0327-0.01 0.0449-0.0114 7e-3 -9.7e-4 0.013-3e-3 0.0146-5e-3 5e-3 -2e-3 0.0252-9e-3 0.0402-0.0114 5e-3 -9.6e-4 0.0114-3e-3 0.0145-5e-3 3e-3 -9.6e-4 9e-3 -3e-3 0.013-5e-3 5e-3 -8.5e-4 0.0175-5e-3 0.028-9e-3 0.0114-3e-3 0.0213-7e-3 0.0236-7e-3 2e-3 0 5e-3 -9.6e-4 5e-3 -2e-3 6.7e-4 -9.6e-4 5e-3 -3e-3 0.0114-5e-3 5e-3 -9.7e-4 0.013-3e-3 0.0163-5e-3 3e-3 -2e-3 9e-3 -3e-3 0.01-3e-3 9.7e-4 0 7e-3 -9.7e-4 0.01-3e-3 0.013-7e-3 0.0312-0.013 0.0333-0.013 9.6e-4 -3e-5 7e-3 -2e-3 0.0114-5e-3 5e-3 -2e-3 0.01-5e-3 0.0114-5e-3 2e-3 -5e-5 0.01-3e-3 0.0283-0.0114 2e-3 -9.7e-4 0.0146-7e-3 0.0263-0.0114 0.0317-0.013 0.0459-0.0196 0.0727-0.0319 0.01-5e-3 0.0192-0.01 0.0209-0.01 2e-3 -9.6e-4 7e-3 -3e-3 9e-3 -5e-3 9e-3 -3e-3 0.0833-0.0414 0.0935-0.0473 5e-3 -3e-3 0.013-9e-3 0.0187-0.01 0.0312-0.0166 0.0452-0.0244 0.0462-0.0255 6.8e-4 -6.9e-4 3e-3 -3e-3 7e-3 -5e-3 3e-3 -9.6e-4 0.01-5e-3 0.013-9e-3 5e-3 -3e-3 0.01-7e-3 0.0114-7e-3 5e-3 -3e-3 0.0198-0.0114 0.0319-0.0199 5e-3 -3e-3 0.0145-0.01 0.0231-0.0146 9e-3 -5e-3 0.0256-0.0166 0.0383-0.025 0.013-9e-3 0.0245-0.0163 0.0265-0.0174 2e-3 -9.6e-4 7e-3 -5e-3 0.0114-9e-3 5e-3 -3e-3 0.021-0.0146 0.0374-0.0274 0.0303-0.0221 0.0972-0.0738 0.1035-0.0802 7e-3 -7e-3 0.0185-0.0168 0.0317-0.0274 0.013-0.0114 0.0437-0.0383 0.0753-0.0679 0.01-0.01 0.0192-0.0171 0.0207-0.0171 3e-3 0 0.0146 0.0114 0.0679 0.063 0.0175 0.0172 0.0369 0.0358 0.0431 0.0415 7e-3 5e-3 0.0421 0.0406 0.08 0.0778 0.0379 0.0371 0.0816 0.0799 0.0972 0.0949 0.0163 0.0146 0.0393 0.0384 0.0531 0.0516 0.013 0.013 0.057 0.0554 0.0962 0.0934 0.0392 0.0383 0.0869 0.0847 0.10614 0.10317 0.0255 0.025 0.035 0.0353 0.035 0.0389 0 3e-3 -5e-3 0.01-0.013 0.0178-9e-3 7e-3 -0.0207 0.0197-0.0293 0.0281-9e-3 9e-3 -0.023 0.0218-0.0322 0.0295-0.01 9e-3 -0.0173 0.0146-0.0181 0.0172-9.6e-4 2e-3 -3e-3 3e-3 -3e-3 3e-3 -9.6e-4 0-9e-3 5e-3 -0.0146 0.0114-0.013 0.013-0.0208 0.0196-0.0344 0.0302-5e-3 5e-3 -0.013 0.01-0.0163 0.013l-7e-3 7e-3c-5.2e-4 0-5e-3 3e-3 -0.01 9e-3 -5e-3 5e-3 -0.013 0.01-0.0168 0.013-5e-3 3e-3 -9e-3 7e-3 -9e-3 9e-3 0 9.7e-4 -9.6e-4 2e-3 -3e-3 2e-3 -2e-3 0-3e-3 9.6e-4 -5e-3 3e-3 -9.7e-4 2e-3 -9e-3 9e-3 -0.0147 0.013-7e-3 5e-3 -0.0145 0.0114-0.0166 0.013-9e-3 9e-3 -0.0639 0.0501-0.0655 0.0501-9.6e-4 0-3e-3 2e-3 -5e-3 3e-3 -2e-3 2e-3 -7e-3 5e-3 -9e-3 7e-3 -3e-3 2e-3 -9e-3 5e-3 -0.01 9e-3 -3e-3 3e-3 -7e-3 5e-3 -9e-3 5e-3s-3e-3 9.6e-4 -5e-3 3e-3c-6.8e-4 2e-3 -3e-3 3e-3 -5e-3 3e-3s-3e-3 8.7e-4 -3e-3 2e-3c0 9.6e-4 -5e-3 5e-3 -0.0114 0.01-7e-3 5e-3 -0.013 9e-3 -0.0146 0.01-9.7e-4 9.6e-4 -7e-3 5e-3 -0.0114 9e-3 -5e-3 3e-3 -0.01 7e-3 -0.01 9e-3 -9.6e-4 9.6e-4 -3e-3 3e-3 -5e-3 3e-3 -9.7e-4 0-5e-3 2e-3 -7e-3 5e-3 -2e-3 2e-3 -5e-3 5e-3 -7e-3 5e-3 -9.7e-4 0-7e-3 3e-3 -0.0114 9e-3 -5e-3 5e-3 -0.0114 9e-3 -0.013 9e-3 -2e-3 0-3e-3 9.6e-4 -3e-3 2e-3 0 9.6e-4 -3e-3 3e-3 -5e-3 5e-3 -3e-3 9.7e-4 -5e-3 3e-3 -5e-3 5e-3 0 9.6e-4 -3e-3 3e-3 -5e-3 3e-3 -3e-3 6.8e-4 -7e-3 3e-3 -7e-3 3e-3 -2e-3 3e-3 -9e-3 7e-3 -0.0175 0.0114-3e-3 2e-3 -7e-3 3e-3 -7e-3 5e-3 0 8.5e-4 -3e-3 3e-3 -7e-3 5e-3 -0.0114 5e-3 -0.0181 0.01-0.0181 0.0114 0 9.7e-4 -3e-3 3e-3 -7e-3 3e-3 -3e-3 8.4e-4 -7e-3 3e-3 -9e-3 5e-3 -6.8e-4 2e-3 -3e-3 3e-3 -5e-3 3e-3 -9.6e-4 0-5e-3 2e-3 -7e-3 5e-3 -2e-3 2e-3 -7e-3 5e-3 -9e-3 5e-3 -3e-3 0-5e-3 9.6e-4 -5e-3 2e-3 0 9.6e-4 -3e-3 3e-3 -7e-3 5e-3 -3e-3 9.7e-4 -0.01 5e-3 -0.0163 9e-3 -5e-3 3e-3 -0.01 7e-3 -0.0114 7e-3 -9.6e-4 0-3e-3 9.6e-4 -5e-3 3e-3 -2e-3 2e-3 -9e-3 7e-3 -0.0145 0.01-7e-3 3e-3 -0.0146 9e-3 -0.0197 0.0114-5e-3 3e-3 -0.0114 7e-3 -0.0146 9e-3 -3e-3 2e-3 -0.013 7e-3 -0.022 0.0114-9e-3 5e-3 -0.0217 0.0114-0.0291 0.0163-9e-3 3e-3 -0.0146 9e-3 -0.0146 0.01-6.7e-4 9.6e-4 -3e-3 2e-3 -5e-3 2e-3s-7e-3 2e-3 -0.01 5e-3c-3e-3 2e-3 -9e-3 5e-3 -0.01 5e-3 -2e-3 0-5e-3 9.7e-4 -5e-3 3e-3 -6.9e-4 2e-3 -3e-3 3e-3 -5e-3 3e-3s-7e-3 2e-3 -0.01 5e-3c-3e-3 2e-3 -7e-3 5e-3 -0.01 5e-3s-5e-3 9.6e-4 -7e-3 3e-3c-7e-4 2e-3 -5e-3 3e-3 -9e-3 5e-3 -3e-3 8.6e-4 -9e-3 3e-3 -0.01 5e-3 -9.6e-4 2e-3 -5e-3 3e-3 -9e-3 3e-3 -3e-3 0-5e-3 9.7e-4 -7e-3 3e-3 -6.8e-4 2e-3 -5e-3 3e-3 -9e-3 5e-3 -5e-3 8.6e-4 -9e-3 3e-3 -9e-3 5e-3 -6.7e-4 2e-3 -3e-3 3e-3 -7e-3 3e-3 -3e-3 0-7e-3 9.6e-4 -9e-3 3e-3 -9.7e-4 2e-3 -5e-3 3e-3 -9e-3 5e-3 -3e-3 6.9e-4 -9e-3 3e-3 -9e-3 5e-3 -9.6e-4 2e-3 -5e-3 3e-3 -7e-3 3e-3s-7e-3 2e-3 -0.01 5e-3c-3e-3 2e-3 -9e-3 5e-3 -0.01 5e-3 -2e-3 0-5e-3 9.6e-4 -7e-3 3e-3 -9.7e-4 2e-3 -7e-3 3e-3 -0.01 5e-3 -5e-3 6.8e-4 -9e-3 3e-3 -0.01 5e-3 -9.7e-4 2e-3 -5e-3 3e-3 -9e-3 3e-3 -3e-3 0-7e-3 9.6e-4 -9e-3 3e-3 -9.6e-4 2e-3 -5e-3 3e-3 -9e-3 5e-3 -3e-3 6.9e-4 -9e-3 3e-3 -0.013 5e-3 -3e-3 2e-3 -0.0114 5e-3 -0.0168 9e-3 -5e-3 3e-3 -0.0114 5e-3 -0.013 5e-3 -9.6e-4 0-3e-3 9.6e-4 -5e-3 3e-3 -9.7e-4 2e-3 -5e-3 3e-3 -9e-3 5e-3 -0.01 2e-3 -0.029 0.01-0.0319 0.013-9.6e-4 9.6e-4 -5e-3 3e-3 -7e-3 3e-3s-9e-3 2e-3 -0.0114 5e-3c-5e-3 2e-3 -0.01 5e-3 -0.013 5e-3s-7e-3 9.6e-4 -7e-3 3e-3c-9.7e-4 2e-3 -7e-3 3e-3 -0.0114 5e-3 -5e-3 8.5e-4 -0.01 3e-3 -0.013 5e-3s-7e-3 3e-3 -0.01 3e-3 -7e-3 9.6e-4 -9e-3 3e-3c-2e-3 2e-3 -7e-3 3e-3 -0.01 3e-3 -3e-3 5e-5 -9e-3 2e-3 -0.0114 5e-3 -3e-3 2e-3 -0.01 5e-3 -0.013 5e-3s-9e-3 9.7e-4 -0.01 3e-3c-9.6e-4 2e-3 -7e-3 3e-3 -0.0114 5e-3 -5e-3 8.4e-4 -0.01 3e-3 -0.0114 5e-3 -2e-3 9.6e-4 -9e-3 3e-3 -0.013 5e-3 -7e-3 8.4e-4 -0.01 2e-3 -0.01 3e-3 0 9.6e-4 -5e-3 3e-3 -0.01 3e-3 -7e-3 8.6e-4 -0.0114 3e-3 -0.013 5e-3 -2e-3 2e-3 -5e-3 3e-3 -9e-3 3e-3 -3e-3 0-9e-3 9.7e-4 -0.013 3e-3 -3e-3 2e-3 -0.01 3e-3 -0.0146 5e-3 -5e-3 6.8e-4 -0.01 2e-3 -0.0114 3e-3 -9.6e-4 9.7e-4 -9e-3 3e-3 -0.0146 3e-3 -7e-3 9.7e-4 -0.0114 3e-3 -0.013 5e-3 -8.5e-4 9.6e-4 -7e-3 3e-3 -0.013 3e-3 -7e-3 6.8e-4 -0.013 3e-3 -0.0146 5e-3 -2e-3 2e-3 -0.01 3e-3 -0.0163 5e-3 -7e-3 6.8e-4 -0.013 3e-3 -0.0146 5e-3 -9.6e-4 2e-3 -7e-3 3e-3 -0.0114 3e-3 -5e-3 0-0.0114 9.7e-4 -0.0145 3e-3 -3e-3 2e-3 -0.01 3e-3 -0.0175 5e-3 -7e-3 7e-4 -0.013 2e-3 -0.0146 3e-3 -6.8e-4 9.7e-4 -9e-3 3e-3 -0.0145 3e-3 -7e-3 8.5e-4 -0.0146 3e-3 -0.0168 5e-3 -2e-3 9.6e-4 -0.01 3e-3 -0.0172 5e-3 -9e-3 6.8e-4 -0.0163 3e-3 -0.0182 3e-3 -2e-3 9.6e-4 -0.0114 3e-3 -0.0184 3e-3 -9e-3 6.8e-4 -0.0146 2e-3 -0.0163 3e-3 -8.7e-4 9.6e-4 -9e-3 3e-3 -0.0178 3e-3 -0.01 6.8e-4 -0.0177 3e-3 -0.0196 3e-3 -2e-3 9.6e-4 -0.0114 3e-3 -0.0197 5e-3 -0.01 8.4e-4 -0.0177 3e-3 -0.0194 3e-3 -2e-3 9.6e-4 -0.0114 3e-3 -0.0211 3e-3 -0.01 5e-4 -0.0199 2e-3 -0.0224 3e-3 -2e-3 9.6e-4 -0.013 3e-3 -0.0231 3e-3 -0.01 6.8e-4 -0.0223 3e-3 -0.0268 5e-3 -5e-3 2e-3 -0.0146 3e-3 -0.026 3e-3s-0.0194 9.6e-4 -0.0228 3e-3c-3e-3 2e-3 -0.013 3e-3 -0.029 5e-3 -0.013 6.8e-4 -0.026 2e-3 -0.0284 3e-3 -2e-3 9.6e-4 -0.0182 3e-3 -0.0353 3e-3 -0.0169 8.5e-4 -0.0338 3e-3 -0.0374 3e-3 -3e-3 9.6e-4 -0.0146 3e-3 -0.0242 3e-3 -0.0208 9.6e-4 -0.48124 5e-3 -0.48285 3e-3zm0.20227-1.0626c-5.1e-4 -5.2e-4 -0.0323-9.7e-4 -0.0708-2e-3 -0.0426-8.7e-4 -0.0781-3e-3 -0.0913-5e-3 -0.0114-2e-3 -0.028-3e-3 -0.0358-3e-3 -9e-3 -1.2e-4 -0.0202-9.6e-4 -0.0275-2e-3 -7e-3 -9.6e-4 -0.0245-3e-3 -0.0385-5e-3 -0.0146-2e-3 -0.0281-5e-3 -0.0316-5e-3 -3e-3 -9.6e-4 -0.0114-2e-3 -0.0175-2e-3 -7e-3 -3e-5 -0.0146-9.6e-4 -0.0201-2e-3 -5e-3 -9.6e-4 -0.0177-3e-3 -0.0287-5e-3 -0.0114-9.7e-4 -0.0221-3e-3 -0.0245-5e-3 -3e-3 -9.6e-4 -7e-3 -3e-3 -0.01-3e-3 -5e-3 0-0.0274-5e-3 -0.053-0.0114-0.01-3e-3 -0.0283-7e-3 -0.0506-0.0114-9e-3 -2e-3 -0.0164-5e-3 -0.0175-5e-3 -9.7e-4 -9.6e-4 -5e-3 -2e-3 -9e-3 -2e-3 -3e-3 -4e-5 -0.0114-2e-3 -0.0163-5e-3 -5e-3 -2e-3 -0.0114-5e-3 -0.0146-5e-3 -3e-3 0-9e-3 -9.6e-4 -0.013-3e-3 -9e-3 -3e-3 -0.0331-0.0114-0.0426-0.013-3e-3 -8.4e-4 -9e-3 -2e-3 -9e-3 -3e-3 -6.7e-4 -9.6e-4 -3e-3 -2e-3 -7e-3 -2e-3 -3e-3 0-9e-3 -2e-3 -0.013-5e-3 -5e-3 -2e-3 -0.01-5e-3 -0.013-5e-3 -2e-3 0-9e-3 -2e-3 -0.0114-5e-3 -5e-3 -2e-3 -0.01-5e-3 -0.0114-5e-3 -3e-3 0-0.01-3e-3 -0.0295-0.0114-5e-3 -2e-3 -0.01-5e-3 -0.013-5e-3 -2e-3 0-5e-3 -9.6e-4 -9e-3 -3e-3 -2e-3 -2e-3 -7e-3 -3e-3 -9e-3 -3e-3 -2e-3 -5e-5 -9e-3 -2e-3 -0.0147-5e-3 -7e-3 -3e-3 -0.0145-7e-3 -0.0205-0.01-5e-3 -2e-3 -0.013-7e-3 -0.0172-9e-3 -3e-3 -2e-3 -0.01-5e-3 -0.0146-7e-3 -0.02-9e-3 -0.0295-0.013-0.0325-0.0146-2e-3 -9.6e-4 -5e-3 -3e-3 -7e-3 -3e-3 -7e-3 -3e-3 -0.092-0.0455-0.10663-0.0537-9e-3 -5e-3 -0.0169-0.01-0.0187-0.01-0.01-5e-3 -0.0792-0.0461-0.0928-0.0552-7e-3 -3e-3 -0.0114-7e-3 -0.0114-7e-3 -6.8e-4 0-7e-3 -3e-3 -0.0114-9e-3 -7e-3 -5e-3 -0.0114-9e-3 -0.0114-9e-3 -6.6e-4 0-7e-3 -3e-3 -0.013-9e-3 -7e-3 -5e-3 -0.0175-0.0114-0.0247-0.0172-7e-3 -5e-3 -0.0145-0.01-0.0145-0.0114-9e-3 -7e-3 -0.0278-0.0208-0.032-0.0235-3e-3 -2e-3 -0.0238-0.0178-0.0464-0.0356-0.0357-0.0279-0.0474-0.0376-0.06-0.0491-9.7e-4 -9.7e-4 -9e-3 -7e-3 -0.0163-0.013-0.0449-0.0361-0.17126-0.16255-0.20407-0.20406-5e-3 -7e-3 -0.0114-0.013-0.013-0.0146-9e-3 -9e-3 -0.07-0.0856-0.0863-0.10891-3e-3 -5e-3 -0.0114-0.0163-0.0171-0.0242-7e-3 -9e-3 -0.0146-0.0208-0.0192-0.0275-5e-3 -7e-3 -0.01-0.013-0.0114-0.0146-9.6e-4 -9.7e-4 -3e-3 -5e-3 -3e-3 -7e-3 -8.6e-4 -2e-3 -2e-3 -5e-3 -3e-3 -5e-3 -9.6e-4 0-2e-3 -9.6e-4 -2e-3 -2e-3 0-9.7e-4 -5e-3 -0.01-0.0114-0.0196-0.0172-0.0255-0.0169-0.0252-0.0205-0.0323-2e-3 -3e-3 -5e-3 -0.01-9e-3 -0.013-2e-3 -3e-3 -5e-3 -0.01-7e-3 -0.013-9.7e-4 -3e-3 -3e-3 -7e-3 -5e-3 -7e-3 -9.7e-4 0-3e-3 -3e-3 -5e-3 -7e-3 -2e-3 -3e-3 -5e-3 -0.01-9e-3 -0.013-2e-3 -3e-3 -5e-3 -9e-3 -5e-3 -0.01-6.7e-4 -2e-3 -2e-3 -5e-3 -3e-3 -7e-3 -9.6e-4 -2e-3 -3e-3 -7e-3 -5e-3 -0.01s-7e-3 -0.01-9e-3 -0.0146c-9e-3 -0.0146-0.0561-0.11004-0.0561-0.11248 0-9.6e-4 -9.7e-4 -3e-3 -3e-3 -5e-3 -2e-3 -9.6e-4 -3e-3 -5e-3 -3e-3 -9e-3 0-3e-3 -9.7e-4 -7e-3 -3e-3 -9e-3 -2e-3 -9.6e-4 -3e-3 -3e-3 -3e-3 -5e-3 0-3e-3 -0.0168-0.0428-0.0209-0.0506-2e-3 -3e-3 -3e-3 -9e-3 -3e-3 -0.01 0-2e-3 -2e-3 -7e-3 -5e-3 -0.0114-2e-3 -3e-3 -5e-3 -9e-3 -5e-3 -0.0114 0-2e-3 -9.6e-4 -7e-3 -3e-3 -0.01-7e-3 -0.0114-0.0114-0.0268-0.013-0.0308-3e-5 -2e-3 -9.6e-4 -7e-3 -3e-3 -9e-3 -2e-3 -2e-3 -3e-3 -7e-3 -3e-3 -9e-3s-9.6e-4 -9e-3 -3e-3 -0.0114c-5e-3 -0.01-0.01-0.0256-0.013-0.0365-9.7e-4 -5e-3 -3e-3 -0.0114-5e-3 -0.0145-2e-3 -2e-3 -3e-3 -9e-3 -3e-3 -0.0114 0-3e-3 -9.6e-4 -9e-3 -2e-3 -0.01-9.6e-4 -9.6e-4 -3e-3 -9e-3 -5e-3 -0.0146-9.6e-4 -7e-3 -3e-3 -0.0146-5e-3 -0.0184-7e-3 -0.0174-0.01-0.0295-0.01-0.0374-8.5e-4 -5e-3 -3e-3 -0.0114-5e-3 -0.0146-2e-3 -3e-3 -3e-3 -0.01-3e-3 -0.013 0-5e-3 -2e-3 -0.0114-5e-3 -0.0173-2e-3 -5e-3 -5e-3 -0.013-5e-3 -0.0169-3e-5 -3e-3 -9.6e-4 -0.01-2e-3 -0.0114-9.6e-4 -2e-3 -3e-3 -0.0114-5e-3 -0.0199-9.6e-4 -9e-3 -3e-3 -0.0171-5e-3 -0.0184-9.7e-4 -9.6e-4 -3e-3 -9e-3 -3e-3 -0.0163-7e-4 -7e-3 -3e-3 -0.0187-5e-3 -0.0253-2e-3 -7e-3 -3e-3 -0.0185-5e-3 -0.0263-9.6e-4 -9e-3 -3e-3 -0.0187-5e-3 -0.0242-9.6e-4 -5e-3 -2e-3 -0.0163-2e-3 -0.0228-6e-5 -7e-3 -9.7e-4 -0.0146-3e-3 -0.0174-9.7e-4 -3e-3 -3e-3 -0.018-5e-3 -0.0344-2e-3 -0.0165-3e-3 -0.0377-5e-3 -0.0475-9.6e-4 -0.01-3e-3 -0.0322-3e-3 -0.0501l-9.6e-4 -0.0326 5e-3 -2e-3c3e-3 -9.6e-4 0.14027-2e-3 0.37134-2e-3 0.22186-6e-5 0.36919-9.6e-4 0.37451-2e-3 5e-3 -9.7e-4 0.0172-2e-3 0.0275-2e-3 0.0172 1e-5 0.019 5.2e-4 0.0225 5e-3 5e-3 7e-3 9e-3 0.0215 0.01 0.0459 6.9e-4 0.0114 2e-3 0.0234 3e-3 0.0272 9.6e-4 3e-3 3e-3 0.0163 5e-3 0.0263 5e-3 0.0332 0.01 0.0535 0.0114 0.0575 9.6e-4 2e-3 3e-3 9e-3 3e-3 0.0146 8.4e-4 7e-3 3e-3 0.0163 5e-3 0.021 2e-3 5e-3 5e-3 0.0172 9e-3 0.0263 3e-3 0.01 7e-3 0.0195 7e-3 0.0231 9.6e-4 3e-3 3e-3 0.01 5e-3 0.0145 9.6e-4 5e-3 3e-3 0.0114 5e-3 0.0146 2e-3 3e-3 3e-3 0.01 5e-3 0.013 8.7e-4 3e-3 2e-3 9e-3 3e-3 9e-3 9.7e-4 6.7e-4 2e-3 3e-3 2e-3 5e-3 0 3e-3 2e-3 9e-3 0.013 0.0343 2e-3 5e-3 5e-3 0.01 5e-3 0.0114 0 9.6e-4 9.7e-4 5e-3 3e-3 9e-3 2e-3 3e-3 5e-3 0.0114 9e-3 0.0172 5e-3 0.013 0.0358 0.0738 0.0429 0.0858 3e-3 5e-3 7e-3 0.0114 7e-3 0.013 3e-3 7e-3 0.022 0.0383 0.0314 0.0524 5e-3 7e-3 9e-3 0.013 9e-3 0.0145 0 9.7e-4 9e-3 0.0147 0.0114 0.0163 9.6e-4 9.7e-4 9e-3 0.0114 0.0201 0.0288 5e-3 9e-3 0.0114 0.0145 0.0114 0.0163 9.7e-4 9.6e-4 9e-3 0.01 0.0145 0.0175 0.0279 0.0364 0.0564 0.0684 0.0935 0.1055 0.0218 0.0218 0.0431 0.0426 0.0473 0.0462 5e-3 3e-3 0.0145 0.0114 0.022 0.0189 0.0306 0.0263 0.1071 0.0835 0.12206 0.0913 3e-3 2e-3 0.0244 0.0146 0.0308 0.0201 9.6e-4 8.5e-4 7e-3 5e-3 0.013 7e-3 7e-3 3e-3 0.0146 9e-3 0.0197 0.0114 5e-3 3e-3 0.0174 0.01 0.0276 0.0146 0.01 5e-3 0.0201 0.01 0.022 0.0114 9e-3 5e-3 0.0305 0.0145 0.0327 0.0145 9.7e-4 0 3e-3 9.6e-4 3e-3 2e-3 0 9.6e-4 9.7e-4 2e-3 3e-3 2e-3 3e-3 0 0.0181 7e-3 0.0309 0.013 5e-3 2e-3 0.01 5e-3 0.0114 5e-3 2e-3 0 7e-3 2e-3 0.0114 5e-3 5e-3 2e-3 0.01 5e-3 0.0114 5e-3 2e-3 4e-5 5e-3 9.7e-4 9e-3 3e-3 2e-3 2e-3 7e-3 3e-3 9e-3 3e-3s7e-3 9.7e-4 0.01 3e-3c3e-3 2e-3 0.0146 7e-3 0.026 0.01s0.0213 7e-3 0.0231 9e-3c2e-3 9.6e-4 9e-3 3e-3 0.013 3e-3 5e-3 9.7e-4 0.013 3e-3 0.0166 5e-3 0.0232 9e-3 0.0359 0.0114 0.0411 0.0114 3e-3 -2e-5 9e-3 9.6e-4 0.0114 2e-3 7e-3 3e-3 0.0317 9e-3 0.0558 0.0114 0.01 9.7e-4 0.0224 3e-3 0.0298 5e-3 7e-3 9.7e-4 0.0221 3e-3 0.0329 5e-3 0.0114 9.6e-4 0.0262 3e-3 0.0341 5e-3 9e-3 9.6e-4 0.0546 2e-3 0.11557 3e-3 0.0831 1.1e-4 0.10465-5e-4 0.12092-3e-3 0.0114-2e-3 0.0266-5e-3 0.0353-5e-3 9e-3 -6.8e-4 0.0222-3e-3 0.0307-5e-3 9e-3 -2e-3 0.0218-5e-3 0.0298-5e-3 0.0277-5e-3 0.0575-0.0114 0.0804-0.018 9e-3 -2e-3 0.0163-5e-3 0.0182-5e-3 3e-3 0 9e-3 -9.6e-4 0.0114-3e-3 3e-3 -2e-3 0.01-3e-3 0.0147-5e-3 5e-3 -8.5e-4 0.01-2e-3 0.0114-3e-3 9.6e-4 -9.6e-4 7e-3 -3e-3 0.0114-5e-3 0.0114-3e-3 0.0289-9e-3 0.0377-0.013 3e-3 -2e-3 9e-3 -3e-3 9e-3 -3e-3 3e-3 0 0.0231-9e-3 0.0482-0.0189 0.0275-0.0114 0.0579-0.0256 0.0655-0.0298 2e-3 -9.6e-4 5e-3 -3e-3 9e-3 -3e-3 2e-3 -9.6e-4 5e-3 -3e-3 7e-3 -3e-3 2e-3 -6.7e-4 0.01-5e-3 0.0175-0.01 9e-3 -5e-3 0.0177-0.01 0.022-0.0114 5e-3 -2e-3 0.0114-7e-3 0.0166-0.01 5e-3 -3e-3 0.0114-7e-3 0.013-9e-3 2e-3 -9.6e-4 7e-3 -3e-3 9e-3 -5e-3 2e-3 -9.6e-4 0.013-9e-3 0.022-0.0145 0.01-7e-3 0.0196-0.013 0.0217-0.0146 2e-3 -2e-3 5e-3 -3e-3 5e-3 -3e-3 5e-3 0 0.0941-0.0697 0.12208-0.0962 9e-3 -9e-3 0.013-0.0114 0.0169-0.0114 3e-3 3.4e-4 0.0343 0.0295 0.0778 0.072 0.0925 0.0905 0.093 0.091 0.23828 0.23211 0.0385 0.0376 0.0807 0.0784 0.0937 0.0912 0.0196 0.0192 0.0878 0.0854 0.16107 0.15636 9e-3 9e-3 0.0145 0.0163 0.0145 0.0184 0 3e-3 -7e-3 0.01-0.032 0.034-0.0114 0.01-0.0145 0.013-0.0382 0.0333-9e-3 7e-3 -0.0163 0.013-0.0177 0.0145-2e-3 2e-3 -9e-3 7e-3 -0.013 0.0114-5e-3 5e-3 -0.0163 0.013-0.0231 0.019-0.013 0.0114-0.0549 0.0429-0.0774 0.0592-7e-3 5e-3 -0.013 0.01-0.0145 0.0114-9.7e-4 9.6e-4 -5e-3 5e-3 -0.01 7e-3 -3e-3 3e-3 -0.0114 9e-3 -0.018 0.013-7e-3 5e-3 -0.0166 0.0114-0.0225 0.0163-7e-3 5e-3 -0.0114 9e-3 -0.0114 9e-3 -4.9e-4 0-9e-3 5e-3 -0.0171 0.0114-0.0284 0.019-0.0474 0.031-0.0546 0.0348-5e-3 3e-3 -0.0425 0.0245-0.0462 0.0272-2e-3 9.6e-4 -7e-3 3e-3 -0.01 5e-3s-0.0114 7e-3 -0.0166 0.01c-0.0166 0.01-0.10582 0.0542-0.1232 0.0619-0.01 3e-3 -0.0194 9e-3 -0.0231 0.01-3e-3 2e-3 -0.0114 5e-3 -0.0175 9e-3 -7e-3 3e-3 -0.0146 7e-3 -0.0175 9e-3 -0.0146 7e-3 -0.0272 0.0114-0.0397 0.0164-7e-3 3e-3 -0.0163 7e-3 -0.0198 9e-3 -3e-3 2e-3 -0.01 3e-3 -0.013 5e-3 -3e-3 8.5e-4 -0.01 3e-3 -0.0114 5e-3 -3e-3 2e-3 -7e-3 3e-3 -0.01 3e-3 -2e-3 0-7e-3 2e-3 -0.0114 5e-3 -5e-3 2e-3 -0.0114 5e-3 -0.013 5e-3 -3e-3 3e-5 -7e-3 9.6e-4 -9e-3 3e-3 -2e-3 2e-3 -7e-3 3e-3 -9e-3 3e-3 -3e-3 3e-5 -9e-3 2e-3 -0.013 5e-3 -5e-3 2e-3 -0.0114 5e-3 -0.0146 5e-3 -3e-3 9e-5 -9e-3 9.6e-4 -0.01 3e-3 -2e-3 2e-3 -7e-3 3e-3 -0.01 3e-3s-9e-3 9.7e-4 -0.0114 3e-3c-3e-3 2e-3 -0.0114 5e-3 -0.0169 5e-3 -7e-3 9.6e-4 -0.0147 3e-3 -0.0175 5e-3 -0.0266 9e-3 -0.0359 0.0114-0.0404 0.0114-3e-3 0-7e-3 9.6e-4 -0.01 2e-3 -2e-3 9.7e-4 -0.0114 3e-3 -0.019 5e-3 -0.0272 5e-3 -0.0367 9e-3 -0.0479 0.0114-7e-3 2e-3 -0.0169 5e-3 -0.0242 5e-3 -7e-3 9.6e-4 -0.0235 5e-3 -0.0362 7e-3 -0.013 2e-3 -0.0301 5e-3 -0.0385 7e-3 -9e-3 9.6e-4 -0.0197 3e-3 -0.0251 5e-3 -5e-3 9.7e-4 -0.0201 3e-3 -0.0329 5e-3 -0.013 9.6e-4 -0.0268 3e-3 -0.031 5e-3 -5e-3 9.6e-4 -0.0175 3e-3 -0.0298 3e-3 -0.0114 6.8e-4 -0.0319 3e-3 -0.044 5e-3 -0.0114 2e-3 -0.0513 3e-3 -0.0869 5e-3 -0.0357 7e-4 -0.069 2e-3 -0.0738 2e-3 -5e-3 6.8e-4 -0.01 6.8e-4 -0.01 1.7e-4zm-3.314-2.0967c-3e-3 -2e-3 -0.01-3e-3 -0.021-3e-3 -0.013-5e-5 -0.0178-9.6e-4 -0.0223-5e-3 -5e-3 -3e-3 -9e-3 -5e-3 -0.021-5e-3 -0.01 0-0.0163-9.6e-4 -0.0178-3e-3 -9.7e-4 -2e-3 -0.01-3e-3 -0.0177-5e-3 -0.01-9.6e-4 -0.0163-3e-3 -0.0164-5e-3 -8.6e-4 -2e-3 -5e-3 -3e-3 -0.0114-3e-3 -7e-3 0-0.013-9.6e-4 -0.0146-3e-3 -2e-3 -2e-3 -0.01-3e-3 -0.0146-5e-3 -5e-3 -8.5e-4 -0.0114-3e-3 -0.013-5e-3 -9.6e-4 -2e-3 -7e-3 -3e-3 -0.0114-3e-3 -5e-3 0-0.01-9.7e-4 -0.013-3e-3 -3e-3 -2e-3 -9e-3 -3e-3 -0.013-5e-3 -5e-3 -8.5e-4 -9e-3 -3e-3 -0.01-5e-3 -6.8e-4 -2e-3 -5e-3 -3e-3 -9e-3 -3e-3 -0.01 0-0.0145-2e-3 -0.0145-7e-3 0-2e-3 -3e-3 -3e-3 -9e-3 -3e-3 -5e-3 0-0.01-9.7e-4 -0.01-3e-3 -6.9e-4 -2e-3 -3e-3 -3e-3 -7e-3 -3e-3 -3e-3 0-9e-3 -2e-3 -0.0114-5e-3 -3e-3 -2e-3 -9e-3 -5e-3 -0.0114-5e-3 -3e-3 0-7e-3 -9.6e-4 -7e-3 -3e-3 -6.9e-4 -2e-3 -3e-3 -3e-3 -5e-3 -3e-3s-7e-3 -2e-3 -9e-3 -5e-3c-2e-3 -2e-3 -7e-3 -5e-3 -0.01-5e-3s-7e-3 -2e-3 -9e-3 -5e-3c-2e-3 -2e-3 -7e-3 -5e-3 -9e-3 -5e-3 -3e-3 0-5e-3 -9.6e-4 -7e-3 -3e-3 -6.9e-4 -2e-3 -3e-3 -3e-3 -5e-3 -3e-3s-7e-3 -2e-3 -9e-3 -5e-3c-3e-3 -2e-3 -7e-3 -5e-3 -9e-3 -5e-3s-3e-3 -9.6e-4 -3e-3 -3e-3c0-2e-3 -2e-3 -3e-3 -5e-3 -3e-3 -2e-3 0-7e-3 -2e-3 -0.01-5e-3 -3e-3 -2e-3 -7e-3 -5e-3 -9e-3 -5e-3 -9.6e-4 0-2e-3 -9.6e-4 -2e-3 -3e-3 0-2e-3 -2e-3 -3e-3 -5e-3 -3e-3 -2e-3 0-7e-3 -2e-3 -9e-3 -5e-3 -2e-3 -2e-3 -5e-3 -5e-3 -7e-3 -5e-3 -9.6e-4 0-3e-3 -2e-3 -7e-3 -3e-3 -9e-3 -9e-3 -0.0114-0.0114-0.0146-0.0114-9.6e-4 0-7e-3 -3e-3 -0.01-9e-3 -5e-3 -5e-3 -9e-3 -9e-3 -0.01-9e-3 -5.1e-4 0-3e-3 -3e-3 -9e-3 -9e-3 -3e-3 -5e-3 -9e-3 -9e-3 -9e-3 -9e-3 -3e-3 0-0.0383-0.0338-0.0504-0.0489-3e-3 -5e-3 -9e-3 -0.01-0.0114-0.013-2e-3 -2e-3 -3e-3 -5e-3 -3e-3 -7e-3 0-9.7e-4 -9.7e-4 -3e-3 -3e-3 -3e-3 -2e-3 0-3e-3 -2e-3 -5e-3 -5e-3 -6.8e-4 -2e-3 -3e-3 -5e-3 -5e-3 -5e-3s-3e-3 -9.6e-4 -3e-3 -3e-3c0-2e-3 -9.6e-4 -3e-3 -3e-3 -5e-3 -2e-3 -6.7e-4 -5e-3 -5e-3 -7e-3 -9e-3 -9.7e-4 -3e-3 -3e-3 -7e-3 -5e-3 -7e-3 -9.6e-4 0-2e-3 -9.7e-4 -2e-3 -3e-3 0-9.7e-4 -2e-3 -5e-3 -3e-3 -7e-3 -7e-3 -5e-3 -0.0114-0.013-0.0114-0.0166 0-9.6e-4 -2e-3 -5e-3 -5e-3 -5e-3 -2e-3 -9.6e-4 -5e-3 -5e-3 -5e-3 -7e-3s-8.4e-4 -3e-3 -2e-3 -3e-3c-9.6e-4 0-3e-3 -3e-3 -5e-3 -7e-3 -2e-3 -3e-3 -5e-3 -9e-3 -7e-3 -0.01-9.6e-4 -9.6e-4 -3e-3 -5e-3 -3e-3 -9e-3 0-3e-3 -9.7e-4 -5e-3 -3e-3 -5e-3 -2e-3 0-5e-3 -3e-3 -5e-3 -9e-3 -9.6e-4 -5e-3 -3e-3 -9e-3 -5e-3 -9e-3 -9.6e-4 0-2e-3 -3e-3 -2e-3 -5e-3 0-3e-3 -8.4e-4 -5e-3 -2e-3 -5e-3 -9.6e-4 0-3e-3 -3e-3 -5e-3 -9e-3 -2e-3 -5e-3 -5e-3 -0.01-7e-3 -0.01-9.7e-4 -8.5e-4 -2e-3 -3e-3 -2e-3 -7e-3 0-3e-3 -2e-3 -7e-3 -5e-3 -0.01-2e-3 -3e-3 -5e-3 -9e-3 -5e-3 -0.0114 0-3e-3 -9.7e-4 -7e-3 -3e-3 -7e-3 -2e-3 0-3e-3 -3e-3 -5e-3 -9e-3 -6.8e-4 -5e-3 -2e-3 -0.01-3e-3 -0.01-9.7e-4 -3.4e-4 -3e-3 -5e-3 -3e-3 -0.01-6.9e-4 -5e-3 -3e-3 -0.01-3e-3 -0.0114-9.7e-4 -9.6e-4 -3e-3 -7e-3 -5e-3 -0.013-8.6e-4 -7e-3 -3e-3 -0.0114-5e-3 -0.0114-2e-3 -8.6e-4 -3e-3 -5e-3 -3e-3 -0.0114 0-7e-3 -9.6e-4 -0.0114-3e-3 -0.013-2e-3 -9.6e-4 -3e-3 -7e-3 -5e-3 -0.013-6.6e-4 -5e-3 -3e-3 -0.0114-5e-3 -0.0145-2e-3 -2e-3 -3e-3 -0.01-3e-3 -0.0146 0-7e-3 -9.7e-4 -0.013-3e-3 -0.0146-3e-3 -3e-3 -3e-3 -0.01-5e-3 -0.0194-5.1e-4 -0.01-2e-3 -0.0163-3e-3 -0.0177-2e-3 -2e-3 -3e-3 -9e-3 -3e-3 -0.0202 0-0.013-8.6e-4 -0.0187-3e-3 -0.022-3e-3 -3e-3 -3e-3 -0.01-5e-3 -0.0287-3.5e-4 -0.013-2e-3 -0.0255-3e-3 -0.0266-9.7e-4 -9.6e-4 -2e-3 -0.0247-2e-3 -0.0521v-0.0503h1.6475c0.9061 0 1.649 6.8e-4 1.6509 9.7e-4 2e-3 6.8e-4 3e-3 3e-3 3e-3 5e-3 0 9.6e-4 -0.0146 0.0145-0.0323 0.0301-0.0178 0.0145-0.0422 0.0364-0.0542 0.048-0.0255 0.0245-0.0208 0.0198-0.0497 0.0498-0.0238 0.0248-0.026 0.0274-0.046 0.0514-7e-3 9e-3 -0.013 0.0146-0.013 0.0146-8.6e-4 6.7e-4 -9e-3 0.01-0.0168 0.0208-0.0163 0.0199-0.022 0.0291-0.0524 0.0753-0.01 0.0145-0.019 0.0287-0.0213 0.0319-2e-3 3e-3 -7e-3 0.0114-0.01 0.0173-3e-3 7e-3 -9e-3 0.0146-0.0114 0.0196-3e-3 5e-3 -0.0146 0.0268-0.0255 0.05-0.0232 0.0466-0.0295 0.06-0.0389 0.0847-3e-3 7e-3 -7e-3 0.0145-9e-3 0.0187-5e-3 0.01-0.0227 0.0639-0.0316 0.0946-3e-3 9e-3 -7e-3 0.0223-0.01 0.0305-3e-3 9e-3 -5e-3 0.0175-5e-3 0.0205s-9.6e-4 7e-3 -2e-3 0.01c-2e-3 5e-3 -7e-3 0.0274-0.0114 0.0582-9.7e-4 0.01-3e-3 0.0226-5e-3 0.0286-9.6e-4 7e-3 -3e-3 0.0211-5e-3 0.0337-9.6e-4 0.0145-3e-3 0.0256-7e-3 0.0308l-5e-3 9e-3 -1.0624 4.9e-4c-0.93165 5.3e-4 -1.0629 1.7e-4 -1.0667-3e-3zm4.1339-0.73095c-9e-3 -9e-3 -0.025-0.0238-0.0371-0.0341-3e-3 -3e-3 -0.01-9e-3 -0.013-0.0114-0.0206-0.0175-0.10744-0.0805-0.111-0.0805-6.7e-4 0-7e-3 -3e-3 -0.0114-9e-3 -5e-3 -5e-3 -0.0114-9e-3 -0.013-9e-3 -9.6e-4 0-3e-3 -2e-3 -7e-3 -3e-3 -2e-3 -2e-3 -7e-3 -5e-3 -9e-3 -7e-3 -2e-3 -9.6e-4 -0.0146-0.01-0.0292-0.0172-0.0356-0.021-0.10841-0.0591-0.11313-0.0591-2e-3 0-0.0177-7e-3 -0.0251-0.0114-2e-3 -9.6e-4 -5e-3 -2e-3 -7e-3 -3e-3 -2e-3 -6.8e-4 -7e-3 -3e-3 -0.01-5e-3s-0.01-5e-3 -0.0145-5e-3c-5e-3 -9.7e-4 -9e-3 -3e-3 -0.01-5e-3 -6.7e-4 -9.6e-4 -3e-3 -2e-3 -7e-3 -2e-3 -3e-3 0-9e-3 -9.6e-4 -0.01-3e-3 -2e-3 -2e-3 -9e-3 -3e-3 -0.0114-5e-3 -5e-3 -8.5e-4 -0.01-3e-3 -0.013-5e-3s-7e-3 -3e-3 -0.01-3e-3c-3e-3 -3e-5 -0.01-2e-3 -0.0145-5e-3 -5e-3 -2e-3 -0.0114-5e-3 -0.0147-5e-3 -3e-3 -6e-5 -9e-3 -9.6e-4 -0.0114-3e-3 -3e-3 -2e-3 -0.0114-3e-3 -0.0175-5e-3 -7e-3 -8.4e-4 -0.0114-2e-3 -0.013-3e-3 -6.8e-4 -9.6e-4 -7e-3 -3e-3 -0.0114-3e-3 -7e-3 -8.4e-4 -0.0145-3e-3 -0.018-5e-3 -5e-3 -9.7e-4 -0.013-3e-3 -0.0192-5e-3 -7e-3 -6.9e-4 -0.0163-3e-3 -0.0207-5e-3 -5e-3 -2e-3 -0.013-3e-3 -0.0181-3e-3 -5e-3 0-0.013-9.6e-4 -0.0168-3e-3 -5e-3 -9.6e-4 -0.0196-3e-3 -0.0341-5e-3 -0.0146-9.6e-4 -0.0314-3e-3 -0.0374-5e-3 -0.0147-3e-3 -0.0923-3e-3 -0.56011-2e-3 -0.24552 8.5e-4 -0.37673 2e-3 -0.37944 3e-3 -7e-3 3e-3 -0.0289 5e-3 -0.13572 7e-3 -0.0567 6.8e-4 -0.10423 2e-3 -0.10565 2e-3 -0.01 3e-3 -0.0293 3e-3 -0.14221 5e-3 -0.0937 6.8e-4 -0.12793 9.6e-4 -0.13184 3e-3 -9e-3 3e-3 -0.29636 3e-3 -0.30398 0-3e-3 -2e-3 -0.0292-3e-3 -0.0922-3e-3 -0.0588-3.4e-4 -0.0883-9.7e-4 -0.0913-3e-3 -3e-3 -9.7e-4 -0.0229-3e-3 -0.0483-3e-3 -0.032-9.7e-4 -0.0452-2e-3 -0.0486-5e-3 -3e-3 -2e-3 -0.0146-3e-3 -0.0372-3e-3 -0.0277-6.9e-4 -0.0328-9.6e-4 -0.0353-5e-3 -2e-3 -3e-3 -7e-3 -3e-3 -0.0293-3e-3 -0.0198 0-0.0271-6.9e-4 -0.0289-3e-3 -2e-3 -2e-3 -0.01-3e-3 -0.0244-3e-3 -0.0166-6.8e-4 -0.0228-2e-3 -0.026-5e-3 -3e-3 -3e-3 -9e-3 -3e-3 -0.022-3e-3s-0.0185-8.6e-4 -0.0203-3e-3c-2e-3 -2e-3 -9e-3 -3e-3 -0.0202-3e-3 -0.0145-6.9e-4 -0.0181-9.6e-4 -0.0198-5e-3 -2e-3 -3e-3 -5e-3 -3e-3 -0.0163-3e-3 -9e-3 0-0.0146-9.6e-4 -0.018-3e-3 -3e-3 -2e-3 -0.01-3e-3 -0.0163-3e-3 -9e-3 -6e-5 -0.013-9.6e-4 -0.0163-5e-3 -3e-3 -3e-3 -9e-3 -5e-3 -0.0147-5e-3 -7e-3 0-0.013-9.7e-4 -0.0145-3e-3 -2e-3 -2e-3 -0.01-3e-3 -0.0163-5e-3 -7e-3 -8.5e-4 -0.013-3e-3 -0.013-5e-3 -6.7e-4 -2e-3 -5e-3 -3e-3 -0.0114-3e-3 -5e-3 0-0.0114-9.6e-4 -0.013-3e-3 -2e-3 -2e-3 -9e-3 -3e-3 -0.013-5e-3 -7e-3 -8.3e-4 -0.0114-3e-3 -0.013-5e-3 -2e-3 -2e-3 -7e-3 -3e-3 -0.01-3e-3 -5e-3 0-9e-3 -9.7e-4 -0.01-5e-3 -2e-3 -3e-3 -5e-3 -5e-3 -0.0114-5e-3 -7e-3 0-0.01-9.6e-4 -0.0114-3e-3 -8.4e-4 -2e-3 -5e-3 -3e-3 -9e-3 -3e-3 -5e-3 0-0.01-2e-3 -0.0114-5e-3 -3e-3 -3e-3 -9e-3 -5e-3 -0.0114-5e-3 -3e-3 0-7e-3 -9.7e-4 -9e-3 -3e-3 -6.7e-4 -2e-3 -3e-3 -3e-3 -7e-3 -3e-3 -3e-3 0-9e-3 -2e-3 -0.0114-5e-3 -3e-3 -2e-3 -7e-3 -5e-3 -0.01-5e-3s-7e-3 -9.6e-4 -9e-3 -3e-3c-2e-3 -2e-3 -5e-3 -3e-3 -7e-3 -3e-3s-5e-3 -2e-3 -9e-3 -5e-3c-2e-3 -2e-3 -7e-3 -5e-3 -0.01-5e-3s-7e-3 -2e-3 -0.01-5e-3c-3e-3 -2e-3 -9e-3 -5e-3 -0.01-5e-3 -2e-3 0-5e-3 -9.6e-4 -5e-3 -3e-3 -7e-4 -2e-3 -3e-3 -3e-3 -5e-3 -3e-3s-7e-3 -2e-3 -9e-3 -5e-3c-3e-3 -2e-3 -7e-3 -5e-3 -9e-3 -5e-3 -9.7e-4 0-3e-3 -9.6e-4 -3e-3 -3e-3 -6.9e-4 -2e-3 -3e-3 -3e-3 -7e-3 -3e-3 -3e-3 0-7e-3 -2e-3 -7e-3 -5e-3 -9.7e-4 -2e-3 -5e-3 -5e-3 -7e-3 -5e-3 -5e-3 0-0.0192-0.01-0.0194-0.013-6e-5 -9.6e-4 -3e-3 -3e-3 -5e-3 -3e-3 -3e-3 0-7e-3 -9.6e-4 -7e-3 -3e-3 -9.6e-4 -9.6e-4 -5e-3 -3e-3 -7e-3 -5e-3 -0.0114-5e-3 -0.0145-9e-3 -0.0214-0.0146-3e-3 -3e-3 -9e-3 -7e-3 -0.01-7e-3 -2e-3 0-5e-3 -2e-3 -7e-3 -5e-3 -2e-3 -2e-3 -5e-3 -5e-3 -7e-3 -5e-3s-3e-3 -9.7e-4 -3e-3 -3e-3c0-2e-3 -9.7e-4 -3e-3 -3e-3 -3e-3 -9.7e-4 0-7e-3 -3e-3 -0.01-9e-3 -3e-3 -5e-3 -9e-3 -9e-3 -9e-3 -9e-3 -5e-3 0-0.0738-0.0666-0.0868-0.0837-3e-3 -3e-3 -7e-3 -9e-3 -9e-3 -0.01-9.6e-4 -9.6e-4 -3e-3 -3e-3 -3e-3 -5e-3 0-6.7e-4 -3e-3 -5e-3 -9e-3 -9e-3 -5e-3 -3e-3 -9e-3 -9e-3 -9e-3 -0.01 0-9.6e-4 -9.7e-4 -3e-3 -2e-3 -3e-3 -9.6e-4 0-3e-3 -3e-3 -5e-3 -7e-3 -9.6e-4 -3e-3 -3e-3 -7e-3 -5e-3 -9e-3 -9.6e-4 -9.6e-4 -3e-3 -3e-3 -3e-3 -5e-3 0-9.6e-4 -2e-3 -3e-3 -5e-3 -5e-3 -2e-3 -9.7e-4 -7e-3 -7e-3 -0.01-0.013-3e-3 -5e-3 -7e-3 -0.01-7e-3 -0.01-9.7e-4 0-3e-3 -3e-3 -3e-3 -5e-3 -8.4e-4 -3e-3 -2e-3 -5e-3 -3e-3 -5e-3 -9.7e-4 0-3e-3 -3e-3 -3e-3 -7e-3 -9.7e-4 -3e-3 -3e-3 -7e-3 -5e-3 -7e-3 -9.7e-4 0-3e-3 -3e-3 -3e-3 -7e-3 -8.5e-4 -3e-3 -3e-3 -9e-3 -5e-3 -0.01-2e-3 -2e-3 -5e-3 -7e-3 -5e-3 -9e-3s-9.6e-4 -5e-3 -3e-3 -5e-3c-2e-3 -6.8e-4 -3e-3 -3e-3 -3e-3 -5e-3s-9.6e-4 -5e-3 -2e-3 -5e-3c-2e-3 -9.6e-4 -0.013-0.0224-0.013-0.0256 0-9.6e-4 -2e-3 -5e-3 -5e-3 -7e-3 -2e-3 -3e-3 -5e-3 -9e-3 -5e-3 -0.0114 0-3e-3 -9.6e-4 -7e-3 -3e-3 -9e-3 -2e-3 -6.9e-4 -3e-3 -3e-3 -3e-3 -7e-3 0-3e-3 -2e-3 -7e-3 -5e-3 -0.01-2e-3 -3e-3 -5e-3 -9e-3 -5e-3 -0.01 0-3e-3 -9.7e-4 -7e-3 -3e-3 -9e-3 -2e-3 -2e-3 -3e-3 -7e-3 -5e-3 -0.0114-8.4e-4 -5e-3 -3e-3 -0.01-5e-3 -0.0114-2e-3 -9.6e-4 -3e-3 -7e-3 -3e-3 -0.01 0-5e-3 -9.6e-4 -9e-3 -3e-3 -0.01-2e-3 -9.6e-4 -3e-3 -7e-3 -5e-3 -0.013-6.9e-4 -5e-3 -3e-3 -0.0114-5e-3 -0.013-2e-3 -9.7e-4 -3e-3 -7e-3 -3e-3 -0.0114 0-5e-3 -9.7e-4 -0.0114-3e-3 -0.013-2e-3 -2e-3 -3e-3 -0.01-5e-3 -0.0163-8.5e-4 -7e-3 -3e-3 -0.013-5e-3 -0.0145-2e-3 -2e-3 -3e-3 -9e-3 -3e-3 -0.0164 0-0.01-9.6e-4 -0.0146-3e-3 -0.0175-3e-3 -3e-3 -3e-3 -0.01-5e-3 -0.0189-5e-4 -9e-3 -2e-3 -0.0168-3e-3 -0.0192-9.6e-4 -3e-3 -3e-3 -0.0146-5e-3 -0.0253-8.6e-4 -0.0114-3e-3 -0.0217-3e-3 -0.0224-3e-3 -2e-3 -3e-3 -0.022 8.5e-4 -0.0241 5e-3 -3e-3 2.9247-9.7e-4 2.935 2e-3 5e-3 9.7e-4 0.0338 3e-3 0.0648 3e-3 0.0384 9.6e-4 0.058 2e-3 0.0618 5e-3 3e-3 2e-3 0.0181 3e-3 0.0374 3e-3 0.0215 6.9e-4 0.0348 2e-3 0.0407 5e-3 5e-3 2e-3 0.0163 3e-3 0.0286 3e-3 0.0114 7e-5 0.022 9.6e-4 0.0253 3e-3 3e-3 9.6e-4 0.0163 3e-3 0.0277 5e-3 0.013 8.5e-4 0.0245 3e-3 0.0284 5e-3 3e-3 2e-3 0.013 3e-3 0.0218 3e-3 0.01 0 0.0164 9.6e-4 0.0189 3e-3 2e-3 2e-3 0.01 3e-3 0.0199 5e-3 0.01 8.4e-4 0.019 3e-3 0.0223 5e-3 3e-3 2e-3 0.0114 3e-3 0.0177 3e-3 7e-3 0 0.013 9.7e-4 0.0164 3e-3 3e-3 2e-3 0.0114 3e-3 0.0187 5e-3 9e-3 6.7e-4 0.0146 3e-3 0.0172 5e-3 2e-3 9.6e-4 0.01 3e-3 0.0163 3e-3 7e-3 5.1e-4 0.013 2e-3 0.0146 3e-3 8.5e-4 9.6e-4 7e-3 3e-3 0.013 3e-3 7e-3 6.7e-4 0.0146 3e-3 0.0168 5e-3 3e-3 2e-3 9e-3 3e-3 0.0114 3e-3 3e-3 0 0.0114 2e-3 0.0163 5e-3 5e-3 2e-3 0.013 5e-3 0.0171 5e-3 7e-3 0 0.01 9.7e-4 0.01 3e-3 8.5e-4 2e-3 5e-3 3e-3 0.01 3e-3s0.0114 2e-3 0.0163 5e-3c5e-3 2e-3 0.0114 5e-3 0.0146 5e-3 3e-3 0 9e-3 9.6e-4 0.01 3e-3 2e-3 2e-3 9e-3 3e-3 0.013 5e-3 5e-3 8.5e-4 0.01 3e-3 0.0114 5e-3 9.7e-4 2e-3 5e-3 3e-3 9e-3 3e-3 3e-3 0 0.01 2e-3 0.013 5e-3 3e-3 2e-3 0.01 5e-3 0.013 5e-3 3e-3 5e-5 9e-3 9.6e-4 0.01 3e-3 2e-3 2e-3 7e-3 3e-3 0.01 3e-3s9e-3 9.6e-4 0.01 3e-3c2e-3 2e-3 9e-3 3e-3 0.013 5e-3 5e-3 8.4e-4 0.01 3e-3 0.01 5e-3 6.9e-4 2e-3 3e-3 3e-3 9e-3 3e-3 3e-3 0 9e-3 9.7e-4 0.01 3e-3 2e-3 2e-3 9e-3 5e-3 0.013 5e-3 5e-3 9.7e-4 0.01 3e-3 0.01 5e-3 3.4e-4 9.6e-4 3e-3 2e-3 5e-3 2e-3 3e-3 0 9e-3 2e-3 0.0114 5e-3 3e-3 2e-3 9e-3 5e-3 0.01 5e-3 2e-3 2e-5 7e-3 2e-3 0.0114 5e-3 3e-3 2e-3 9e-3 5e-3 0.0114 5e-3 2e-3 0 5e-3 9.6e-4 7e-3 3e-3 9.6e-4 2e-3 5e-3 3e-3 7e-3 3e-3 3e-3 -1e-5 0.0172 7e-3 0.0266 0.0114 2e-3 9.6e-4 5e-3 2e-3 7e-3 3e-3 5e-3 2e-3 0.0114 5e-3 0.0146 7e-3 7e-3 3e-3 0.0235 0.0114 0.0258 0.0114 9.6e-4 0 3e-3 9.6e-4 3e-3 3e-3 6.8e-4 2e-3 3e-3 3e-3 7e-3 3e-3 3e-3 0 7e-3 9.7e-4 9e-3 3e-3 9.7e-4 2e-3 5e-3 3e-3 7e-3 3e-3s7e-3 2e-3 9e-3 5e-3c2e-3 2e-3 7e-3 5e-3 9e-3 5e-3 3e-3 0 5e-3 8.4e-4 7e-3 2e-3 6.7e-4 9.7e-4 9e-3 5e-3 0.0163 0.01 9e-3 3e-3 0.0178 0.01 0.022 0.0114 5e-3 2e-3 9e-3 5e-3 9e-3 7e-3 0 9.7e-4 2e-3 2e-3 5e-3 2e-3 2e-3 0 5e-3 9.6e-4 9e-3 3e-3 2e-3 2e-3 7e-3 3e-3 0.01 5e-3 3e-3 8.4e-4 7e-3 3e-3 7e-3 5e-3 6.8e-4 2e-3 3e-3 3e-3 5e-3 3e-3s5e-3 2e-3 9e-3 3e-3c5e-3 5e-3 0.0114 9e-3 0.0209 0.013 3e-3 2e-3 7e-3 5e-3 7e-3 5e-3 0 9.6e-4 2e-3 2e-3 5e-3 2e-3 2e-3 0 5e-3 8.4e-4 5e-3 2e-3 0 9.7e-4 3e-3 3e-3 9e-3 5e-3 5e-3 2e-3 9e-3 5e-3 9e-3 7e-3 0 9.6e-4 2e-3 2e-3 5e-3 2e-3 2e-3 0 5e-3 9.7e-4 7e-3 3e-3 9.6e-4 2e-3 3e-3 3e-3 5e-3 3e-3 9.7e-4 0 5e-3 2e-3 7e-3 5e-3 2e-3 2e-3 5e-3 5e-3 7e-3 5e-3 3e-3 0 0.01 5e-3 0.0169 0.0114 2e-3 2e-3 5e-3 3e-3 9e-3 3e-3 2e-3 0 5e-3 2e-3 7e-3 5e-3 9.6e-4 2e-3 3e-3 5e-3 5e-3 5e-3 9.6e-4 0 3e-3 9.7e-4 5e-3 3e-3 6.8e-4 2e-3 2e-3 3e-3 3e-3 3e-3 9.7e-4 0 5e-3 2e-3 9e-3 5e-3 3e-3 2e-3 7e-3 5e-3 7e-3 5e-3 9.6e-4 0 5e-3 2e-3 7e-3 3e-3 2e-3 2e-3 7e-3 5e-3 0.01 7e-3 9e-3 5e-3 0.0383 0.0279 0.0426 0.0319 2e-3 2e-3 5e-3 3e-3 7e-3 3e-3 9.6e-4 0 3e-3 2e-3 5e-3 5e-3 9.6e-4 2e-3 3e-3 5e-3 5e-3 5e-3s3e-3 9.6e-4 5e-3 3e-3c6.9e-4 2e-3 3e-3 3e-3 5e-3 3e-3 9.6e-4 2e-5 7e-3 3e-3 0.0114 9e-3 5e-3 5e-3 0.01 9e-3 0.01 9e-3 9.7e-4 0 3e-3 2e-3 3e-3 5e-3 8.5e-4 2e-3 3e-3 5e-3 5e-3 5e-3s3e-3 9.6e-4 5e-3 3e-3c6.8e-4 2e-3 2e-3 3e-3 3e-3 3e-3 9.6e-4 0 5e-3 2e-3 7e-3 5e-3 3e-3 3e-3 7e-3 7e-3 0.01 9e-3s0.013 0.01 0.0213 0.0193c0.01 9e-3 0.0174 0.0163 0.0185 0.0163 9.6e-4 0 2e-3 9.7e-4 2e-3 3e-3 0 2e-3 9.6e-4 3e-3 3e-3 3e-3 9.6e-4 0 0.0163 0.013 0.032 0.0298 0.0317 0.0322 0.0322 0.0332 0.0218 0.0447-5e-3 7e-3 -0.0518 0.053-0.27417 0.27751-0.084 0.085-0.18216 0.18403-0.21796 0.2202-0.0422 0.0428-0.0667 0.0657-0.0696 0.0657-2e-3 0-9e-3 -3e-3 -0.013-9e-3zm0.75439-0.78371c-0.0114-0.0114-0.0199-0.0199-0.0203-0.0199-5e-4 0-7e-3 -5e-3 -0.0114-0.0114l-0.0114-0.0114c-5.1e-4 0-3e-3 -2e-3 -7e-3 -5e-3 -0.01-0.01-0.0213-0.0187-0.0248-0.0199-2e-3 -6.8e-4 -3e-3 -3e-3 -3e-3 -5e-3s-9.7e-4 -3e-3 -3e-3 -3e-3c-9.7e-4 0-7e-3 -3e-3 -0.01-7e-3 -0.01-0.01-0.0168-0.0163-0.0312-0.0265-7e-3 -5e-3 -0.0114-0.01-0.0114-0.0114 0-9.6e-4 -9.7e-4 -2e-3 -3e-3 -2e-3 -9.7e-4 0-5e-3 -9.6e-4 -7e-3 -3e-3 -0.0114-0.01-0.013-0.013-0.0146-0.013-8.7e-4 0-5e-3 -3e-3 -0.01-9e-3 -5e-3 -5e-3 -9e-3 -9e-3 -0.01-9e-3 -3.5e-4 0-5e-3 -3e-3 -0.01-9e-3 -5e-3 -5e-3 -0.01-9e-3 -0.0114-9e-3 -9.6e-4 -1e-5 -7e-3 -3e-3 -0.0114-9e-3 -5e-3 -5e-3 -0.01-9e-3 -0.01-9e-3 -9.6e-4 0-3e-3 -2e-3 -7e-3 -5e-3 -2e-3 -2e-3 -5e-3 -5e-3 -7e-3 -5e-3 -9.6e-4 0-5e-3 -2e-3 -7e-3 -3e-3 -7e-3 -9e-3 -0.013-0.0114-0.0253-0.0184-3e-3 -9.6e-4 -5e-3 -3e-3 -5e-3 -5e-3 0-9.6e-4 -3e-3 -3e-3 -5e-3 -5e-3 -3e-3 -6.8e-4 -5e-3 -2e-3 -5e-3 -3e-3 0-9.6e-4 -9.6e-4 -2e-3 -3e-3 -2e-3 -2e-3 0-7e-3 -3e-3 -0.01-5e-3 -9e-3 -9e-3 -0.01-9e-3 -0.0166-0.0114-3e-3 -9.6e-4 -7e-3 -3e-3 -7e-3 -5e-3 0-9.6e-4 -9.6e-4 -2e-3 -2e-3 -2e-3 -2e-3 0-0.013-7e-3 -0.0211-0.013-5e-3 -3e-3 -0.0114-9e-3 -0.018-0.0114-3e-3 -2e-3 -7e-3 -5e-3 -7e-3 -5e-3 0-9.6e-4 -9.6e-4 -2e-3 -2e-3 -2e-3 -2e-3 0-0.0146-9e-3 -0.021-0.013-9.6e-4 -8.7e-4 -5e-3 -3e-3 -9e-3 -5e-3 -3e-3 -9.6e-4 -7e-3 -3e-3 -7e-3 -5e-3 0-9.6e-4 -2e-3 -2e-3 -5e-3 -2e-3 -2e-3 0-5e-3 -9.7e-4 -7e-3 -2e-3 -8.4e-4 -9.6e-4 -5e-3 -3e-3 -9e-3 -5e-3 -5e-3 -2e-3 -9e-3 -5e-3 -9e-3 -5e-3 0-9.7e-4 -2e-3 -2e-3 -3e-3 -2e-3 -2e-3 0-7e-3 -2e-3 -0.01-5e-3 -3e-3 -2e-3 -7e-3 -5e-3 -0.01-5e-3 -2e-3 -6.6e-4 -5e-3 -2e-3 -5e-3 -3e-3 0-9.6e-4 -2e-3 -2e-3 -5e-3 -2e-3 -2e-3 0-5e-3 -9.7e-4 -7e-3 -3e-3 -9.6e-4 -2e-3 -5e-3 -3e-3 -9e-3 -5e-3 -3e-3 -6.9e-4 -7e-3 -3e-3 -9e-3 -5e-3 -6.8e-4 -2e-3 -3e-3 -3e-3 -5e-3 -3e-3s-7e-3 -2e-3 -9e-3 -5e-3c-2e-3 -2e-3 -7e-3 -5e-3 -0.01-5e-3s-7e-3 -9.7e-4 -7e-3 -3e-3c-6.8e-4 -2e-3 -5e-3 -3e-3 -9e-3 -5e-3 -3e-3 -8.4e-4 -7e-3 -2e-3 -7e-3 -3e-3 0-8.4e-4 -9e-3 -5e-3 -0.0164-0.01-0.01-5e-3 -0.0166-9e-3 -0.0166-0.01 0-9.7e-4 -2e-3 -2e-3 -5e-3 -2e-3s-7e-3 -9.6e-4 -9e-3 -3e-3c-9.7e-4 -2e-3 -3e-3 -3e-3 -5e-3 -3e-3 -9.7e-4 0-5e-3 -2e-3 -9e-3 -5e-3 -3e-3 -2e-3 -9e-3 -5e-3 -0.01-5e-3 -2e-3 0-7e-3 -2e-3 -0.01-5e-3 -3e-3 -2e-3 -7e-3 -5e-3 -9e-3 -5e-3s-5e-3 -9.6e-4 -7e-3 -3e-3c-9.6e-4 -2e-3 -5e-3 -3e-3 -9e-3 -3e-3 -3e-3 0-7e-3 -9.6e-4 -9e-3 -3e-3 -2e-3 -2e-3 -7e-3 -3e-3 -0.01-5e-3 -3e-3 -8.5e-4 -9e-3 -3e-3 -9e-3 -5e-3 -6.7e-4 -2e-3 -3e-3 -3e-3 -7e-3 -3e-3 -3e-3 0-9e-3 -2e-3 -0.0114-5e-3 -3e-3 -2e-3 -9e-3 -5e-3 -0.01-5e-3 -3e-3 0-7e-3 -9.7e-4 -9e-3 -3e-3 -9.6e-4 -2e-3 -5e-3 -3e-3 -9e-3 -3e-3 -3e-3 0-9e-3 -2e-3 -0.01-5e-3 -3e-3 -2e-3 -9e-3 -5e-3 -0.0114-5e-3 -3e-3 0-7e-3 -9.6e-4 -9e-3 -3e-3 -2e-3 -2e-3 -7e-3 -3e-3 -0.0114-5e-3 -5e-3 -8.6e-4 -9e-3 -3e-3 -9e-3 -5e-3s-3e-3 -3e-3 -9e-3 -3e-3c-5e-3 0-0.01-9.7e-4 -0.0114-3e-3 -9.6e-4 -2e-3 -7e-3 -3e-3 -0.0114-5e-3 -5e-3 -6.8e-4 -0.01-3e-3 -0.0114-5e-3 -9.7e-4 -2e-3 -5e-3 -3e-3 -9e-3 -3e-3 -3e-3 0-9e-3 -9.6e-4 -0.0114-3e-3 -3e-3 -2e-3 -0.01-3e-3 -0.0146-5e-3 -5e-3 -6.6e-4 -9e-3 -3e-3 -0.01-5e-3 -6.9e-4 -2e-3 -5e-3 -3e-3 -0.01-3e-3 -5e-3 -2e-5 -0.0114-2e-3 -0.0146-5e-3 -3e-3 -2e-3 -0.01-5e-3 -0.013-5e-3s-9e-3 -9.6e-4 -9e-3 -3e-3c-9.7e-4 -2e-3 -7e-3 -3e-3 -0.013-5e-3 -7e-3 -8.4e-4 -0.0114-3e-3 -0.0146-5e-3 -2e-3 -2e-3 -7e-3 -3e-3 -0.013-3e-3 -7e-3 0-0.01-9.6e-4 -0.0114-3e-3 -8.5e-4 -2e-3 -5e-3 -3e-3 -0.01-3e-3s-0.0114-2e-3 -0.0163-5e-3c-5e-3 -2e-3 -0.0114-5e-3 -0.0163-5e-3 -5e-3 0-9e-3 -9.6e-4 -0.01-3e-3 -9.6e-4 -2e-3 -9e-3 -3e-3 -0.0163-3e-3 -0.01-6.8e-4 -0.0146-2e-3 -0.0163-5e-3 -2e-3 -3e-3 -7e-3 -3e-3 -0.0146-3e-3 -9e-3 0-0.013-9.6e-4 -0.0147-3e-3 -2e-3 -2e-3 -0.01-3e-3 -0.0168-5e-3 -9e-3 -9.6e-4 -0.0145-3e-3 -0.0145-5e-3 -8.7e-4 -2e-3 -5e-3 -3e-3 -0.0146-3e-3 -9e-3 0-0.0163-9.6e-4 -0.019-3e-3 -3e-3 -2e-3 -0.013-3e-3 -0.0208-5e-3 -0.01-8.6e-4 -0.0146-3e-3 -0.0163-5e-3 -8.6e-4 -2e-3 -5e-3 -3e-3 -0.0163-3e-3 -0.01-5e-5 -0.0175-9.7e-4 -0.0234-5e-3 -7e-3 -3e-3 -0.013-5e-3 -0.0234-5e-3 -0.01-5e-5 -0.0146-9.6e-4 -0.0172-3e-3 -2e-3 -2e-3 -7e-3 -3e-3 -0.019-3e-3 -0.01 0-0.0196-9.6e-4 -0.0245-3e-3 -5e-3 -2e-3 -0.0166-3e-3 -0.0268-5e-3 -0.01-6.8e-4 -0.0217-3e-3 -0.0253-3e-3 -3e-3 -9.6e-4 -0.0172-3e-3 -0.0301-3e-3 -0.0145-5.2e-4 -0.025-2e-3 -0.027-3e-3 -2e-3 -2e-3 -0.013-3e-3 -0.0305-3e-3 -0.0163-6.8e-4 -0.0287-2e-3 -0.0313-3e-3 -3e-3 -2e-3 -0.0166-3e-3 -0.041-3e-3 -0.0298-6.9e-4 -0.0376-9.6e-4 -0.0422-5e-3 -5e-3 -3e-3 -0.0114-3e-3 -0.0497-3e-3 -0.0317 0-0.0467-8.4e-4 -0.0535-3e-3 -7e-3 -2e-3 -0.0287-3e-3 -0.0787-5e-3 -0.0634-9.7e-4 -0.0813-3e-3 -0.0874-7e-3 -9.7e-4 -6.8e-4 -0.12045-9.6e-4 -0.26478-2e-3 -0.14449-1.8e-4 -0.27444-9.6e-4 -0.28896-2e-3 -0.0145-9.7e-4 -0.0671-3e-3 -0.11686-3e-3 -0.0795-9.7e-4 -0.0912-2e-3 -0.0962-5e-3s-0.0114-3e-3 -0.0482-3e-3c-0.0316-2e-5 -0.0439-8.5e-4 -0.0482-3e-3 -3e-3 -2e-3 -0.0174-3e-3 -0.0341-5e-3 -0.0182-9.6e-4 -0.0301-3e-3 -0.0331-5e-3s-0.0114-3e-3 -0.0242-3e-3c-0.013 0-0.0208-9.6e-4 -0.0238-3e-3 -2e-3 -2e-3 -0.013-3e-3 -0.0235-5e-3 -0.0114-9.7e-4 -0.0201-3e-3 -0.0217-5e-3 -2e-3 -2e-3 -7e-3 -3e-3 -0.0163-3e-3 -9e-3 0-0.0147-9.7e-4 -0.018-3e-3 -3e-3 -2e-3 -0.0114-3e-3 -0.018-5e-3 -9e-3 -8.5e-4 -0.0145-3e-3 -0.0163-5e-3 -9.6e-4 -2e-3 -7e-3 -3e-3 -0.013-3e-3 -9e-3 0-0.0114-9.6e-4 -0.0146-5e-3 -3e-3 -3e-3 -7e-3 -5e-3 -0.0146-5e-3 -7e-3 0-0.0114-9.7e-4 -0.013-3e-3 -9.6e-4 -2e-3 -7e-3 -3e-3 -0.0114-5e-3 -5e-3 -6.8e-4 -0.01-3e-3 -0.0114-5e-3 -9.6e-4 -2e-3 -5e-3 -3e-3 -0.01-3e-3s-0.01-9.6e-4 -0.0114-3e-3c-2e-3 -2e-3 -7e-3 -3e-3 -0.0114-5e-3 -5e-3 -8.4e-4 -9e-3 -3e-3 -0.01-5e-3 -6.7e-4 -2e-3 -5e-3 -3e-3 -9e-3 -3e-3 -5e-3 0-9e-3 -9.7e-4 -9e-3 -3e-3 -6.8e-4 -2e-3 -5e-3 -3e-3 -9e-3 -5e-3 -5e-3 -8.5e-4 -9e-3 -3e-3 -9e-3 -5e-3 -6.8e-4 -2e-3 -3e-3 -3e-3 -7e-3 -3e-3 -3e-3 0-7e-3 -9.6e-4 -9e-3 -3e-3 -2e-3 -2e-3 -7e-3 -3e-3 -9e-3 -5e-3 -3e-3 -8.5e-4 -7e-3 -3e-3 -9e-3 -5e-3 -9.6e-4 -2e-3 -5e-3 -3e-3 -7e-3 -3e-3s-5e-3 -2e-3 -7e-3 -5e-3 -5e-3 -5e-3 -9e-3 -5e-3c-3e-3 0-7e-3 -9.6e-4 -7e-3 -2e-3 0-9.6e-4 -3e-3 -3e-3 -9e-3 -5e-3 -5e-3 -2e-3 -9e-3 -5e-3 -9e-3 -5e-3 0-9.7e-4 -2e-3 -2e-3 -5e-3 -2e-3 -2e-3 0-5e-3 -9.6e-4 -5e-3 -2e-3 0-9.6e-4 -3e-3 -3e-3 -9e-3 -5e-3 -5e-3 -2e-3 -9e-3 -5e-3 -9e-3 -5e-3 0-9.7e-4 -9.7e-4 -2e-3 -3e-3 -2e-3 -2e-3 0-3e-3 -9.6e-4 -5e-3 -3e-3 -6.9e-4 -2e-3 -3e-3 -3e-3 -3e-3 -3e-3 -9.7e-4 0-5e-3 -2e-3 -7e-3 -5e-3 -2e-3 -2e-3 -5e-3 -5e-3 -7e-3 -5e-3 -9.6e-4 0-3e-3 -2e-3 -5e-3 -5e-3 -9.6e-4 -2e-3 -3e-3 -5e-3 -5e-3 -5e-3 -9.6e-4 0-5e-3 -3e-3 -9e-3 -7e-3 -3e-3 -3e-3 -0.0114-0.01-0.018-0.0163-0.0164-0.013-0.0572-0.0554-0.0572-0.0591 0-8.5e-4 -3e-3 -5e-3 -9e-3 -9e-3 -5e-3 -3e-3 -9e-3 -7e-3 -9e-3 -9e-3 0-9.6e-4 -2e-3 -3e-3 -3e-3 -7e-3 -7e-3 -7e-3 -0.0114-0.0146-0.0114-0.0163 0-8.5e-4 -3e-3 -5e-3 -9e-3 -0.01-5e-3 -5e-3 -9e-3 -0.0114-0.01-0.013-7e-4 -3e-3 -2e-3 -5e-3 -3e-3 -5e-3 -2e-3 0-7e-3 -9e-3 -0.0114-0.018-9.7e-4 -3e-3 -3e-3 -7e-3 -5e-3 -7e-3 -2e-3 -6.7e-4 -3e-3 -3e-3 -3e-3 -5e-3s-2e-3 -7e-3 -5e-3 -9e-3c-2e-3 -2e-3 -5e-3 -5e-3 -5e-3 -9e-3 0-2e-3 -9.6e-4 -5e-3 -2e-3 -7e-3 -3e-3 -3e-3 -0.0198-0.0359-0.0198-0.0389-3e-5 -9.6e-4 -2e-3 -5e-3 -5e-3 -9e-3 -2e-3 -3e-3 -5e-3 -9e-3 -5e-3 -0.0114-1e-5 -3e-3 -9.6e-4 -7e-3 -3e-3 -7e-3 -2e-3 -6.9e-4 -3e-3 -5e-3 -5e-3 -9e-3 -8.4e-4 -3e-3 -3e-3 -9e-3 -3e-3 -9e-3 -9.7e-4 -6.8e-4 -3e-3 -7e-3 -3e-3 -0.0114-6.7e-4 -5e-3 -3e-3 -0.01-3e-3 -0.0114-9.6e-4 -8.6e-4 -3e-3 -5e-3 -5e-3 -9e-3 -8.7e-4 -3e-3 -3e-3 -0.01-5e-3 -0.0114-2e-3 -2e-3 -3e-3 -9e-3 -3e-3 -0.0114 0-5e-3 -9.6e-4 -0.01-3e-3 -0.0114-2e-3 -2e-3 -3e-3 -9e-3 -5e-3 -0.0147-6.7e-4 -7e-3 -3e-3 -0.0114-5e-3 -0.013-2e-3 -9.6e-4 -3e-3 -5e-3 -3e-3 -0.01s-2e-3 -0.013-5e-3 -0.0174c-3e-3 -5e-3 -5e-3 -0.013-5e-3 -0.0184 0-5e-3 -9.7e-4 -0.01-3e-3 -0.0114-9.7e-4 -5e-4 -3e-3 -9e-3 -5e-3 -0.0177-8.4e-4 -0.01-3e-3 -0.019-5e-3 -0.0218-2e-3 -3e-3 -3e-3 -0.01-3e-3 -0.0192 0-0.01-9.6e-4 -0.0146-3e-3 -0.0178-2e-3 -2e-3 -3e-3 -0.0114-5e-3 -0.0244-6.8e-4 -0.0114-3e-3 -0.0241-5e-3 -0.0279-2e-3 -3e-3 -3e-3 -9e-3 -2e-3 -0.01 9.6e-4 -3e-3 0.13393-3e-3 0.98534-3e-3 0.59304 0 0.98668 8.4e-4 0.99052 2e-3 3e-3 9.7e-4 0.0236 3e-3 0.0446 3e-3 0.0249 8.7e-4 0.0402 2e-3 0.044 5e-3 3e-3 2e-3 0.0178 3e-3 0.0393 5e-3 0.0208 6.8e-4 0.0348 2e-3 0.0367 3e-3 2e-3 9.6e-4 0.0147 3e-3 0.0303 3e-3 0.0146 6.8e-4 0.0301 3e-3 0.0337 3e-3 3e-3 9.6e-4 0.0174 3e-3 0.0305 5e-3 0.013 6.7e-4 0.0252 2e-3 0.0268 3e-3 9.7e-4 9.6e-4 0.0114 3e-3 0.0232 3e-3 0.0114 6.9e-4 0.0239 2e-3 0.0281 5e-3 5e-3 2e-3 0.0163 3e-3 0.0253 5e-3 0.01 6.9e-4 0.0213 3e-3 0.0259 5e-3 5e-3 2e-3 0.0146 3e-3 0.021 3e-3 7e-3 0 0.0146 9.6e-4 0.0172 3e-3 2e-3 2e-3 0.0114 3e-3 0.0218 5e-3 0.01 8.5e-4 0.0196 3e-3 0.022 5e-3 3e-3 2e-3 0.01 3e-3 0.0178 3e-3 9e-3 0 0.0145 9.6e-4 0.0177 3e-3 2e-3 2e-3 0.0114 3e-3 0.0197 5e-3 9e-3 8.4e-4 0.0175 3e-3 0.0201 5e-3 3e-3 2e-3 0.01 3e-3 0.0163 3e-3 7e-3 0 0.013 9.7e-4 0.0146 3e-3 3e-3 2e-3 0.0114 3e-3 0.0194 5e-3 9e-3 8.5e-4 0.0163 3e-3 0.0174 5e-3 9.6e-4 9.6e-4 9e-3 3e-3 0.0166 3e-3 9e-3 6.7e-4 0.0163 3e-3 0.0177 5e-3 2e-3 2e-3 9e-3 3e-3 0.013 3e-3 5e-3 0 0.0114 9.6e-4 0.0145 3e-3 2e-3 2e-3 0.01 3e-3 0.0145 5e-3 7e-3 8.5e-4 0.013 3e-3 0.0166 5e-3 3e-3 2e-3 0.01 3e-3 0.013 3e-3s9e-3 9.6e-4 0.0114 3e-3c2e-3 2e-3 0.01 3e-3 0.0146 5e-3 7e-3 8.4e-4 0.013 3e-3 0.0163 5e-3 3e-3 2e-3 9e-3 3e-3 0.013 3e-3 3e-3 0 0.01 9.6e-4 0.0114 3e-3 2e-3 2e-3 7e-3 3e-3 0.0114 3e-3 3e-3 4e-5 0.01 2e-3 0.0147 5e-3 5e-3 2e-3 0.0114 5e-3 0.013 5e-3 3e-3 0 0.01 2e-3 0.013 5e-3 5e-3 2e-3 0.0114 5e-3 0.0146 5e-3 3e-3 0 9e-3 9.6e-4 0.01 3e-3 2e-3 2e-3 7e-3 3e-3 0.01 3e-3 3e-3 3e-5 0.01 2e-3 0.0146 5e-3 5e-3 2e-3 0.0114 5e-3 0.0145 5e-3 3e-3 2e-5 7e-3 9.7e-4 9e-3 3e-3 2e-3 2e-3 5e-3 3e-3 9e-3 3e-3 3e-3 0 9e-3 2e-3 0.013 5e-3 5e-3 2e-3 0.0114 5e-3 0.0146 5e-3 3e-3 0 7e-3 9.6e-4 9e-3 3e-3 6.8e-4 2e-3 5e-3 3e-3 0.0114 5e-3 5e-3 8.4e-4 0.0114 3e-3 0.013 5e-3 9.6e-4 2e-3 5e-3 3e-3 9e-3 3e-3 3e-3 0 9e-3 9.7e-4 0.01 3e-3 2e-3 2e-3 9e-3 3e-3 0.0114 5e-3 5e-3 8.7e-4 0.01 3e-3 0.0114 5e-3 2e-3 9.6e-4 7e-3 3e-3 0.01 5e-3 3e-3 8.5e-4 9e-3 3e-3 0.01 5e-3 9.7e-4 2e-3 5e-3 3e-3 9e-3 3e-3 3e-3 0 7e-3 9.6e-4 9e-3 3e-3 9.6e-4 2e-3 5e-3 3e-3 9e-3 3e-3 3e-3 0 9e-3 2e-3 0.013 5e-3 3e-3 2e-3 9e-3 5e-3 0.0114 5e-3 3e-3 2e-5 5e-3 9.6e-4 7e-3 3e-3 6.7e-4 2e-3 3e-3 3e-3 7e-3 3e-3 3e-3 0 9e-3 2e-3 0.013 5e-3 3e-3 2e-3 0.01 5e-3 0.013 5e-3s5e-3 9.6e-4 7e-3 3e-3c6.7e-4 2e-3 3e-3 3e-3 5e-3 3e-3s9e-3 2e-3 0.0114 5e-3c5e-3 2e-3 0.01 5e-3 0.0114 5e-3 2e-3 0 5e-3 9.7e-4 7e-3 3e-3 9.6e-4 2e-3 7e-3 3e-3 0.01 5e-3 5e-3 6.8e-4 9e-3 3e-3 0.01 5e-3 9.6e-4 2e-3 5e-3 3e-3 7e-3 3e-3 2e-3 1e-5 7e-3 2e-3 0.01 5e-3 3e-3 2e-3 9e-3 5e-3 0.0114 5e-3 3e-3 2e-5 5e-3 9.7e-4 7e-3 3e-3 6.9e-4 2e-3 3e-3 3e-3 5e-3 3e-3s7e-3 2e-3 0.01 5e-3c3e-3 2e-3 9e-3 5e-3 0.01 5e-3 2e-3 0 5e-3 9.6e-4 5e-3 3e-3 6.7e-4 2e-3 5e-3 3e-3 9e-3 5e-3 5e-3 8.4e-4 9e-3 2e-3 9e-3 3e-3 0 9.6e-4 3e-3 3e-3 7e-3 3e-3 3e-3 8.5e-4 9e-3 3e-3 0.01 5e-3 9.6e-4 2e-3 5e-3 3e-3 7e-3 3e-3s5e-3 9.6e-4 7e-3 3e-3c2e-3 2e-3 7e-3 3e-3 9e-3 5e-3 3e-3 8.5e-4 7e-3 3e-3 9e-3 5e-3 9.6e-4 2e-3 5e-3 3e-3 9e-3 5e-3 3e-3 6.8e-4 7e-3 3e-3 9e-3 5e-3 6.9e-4 2e-3 3e-3 3e-3 7e-3 3e-3 3e-3 0 7e-3 9.6e-4 7e-3 2e-3 8.6e-4 9.7e-4 5e-3 3e-3 9e-3 5e-3 3e-3 2e-3 0.0114 5e-3 0.0163 9e-3 5e-3 3e-3 0.01 7e-3 0.0114 7e-3 2e-3 6.7e-4 5e-3 2e-3 7e-3 3e-3 2e-3 9.6e-4 5e-3 3e-3 9e-3 5e-3 3e-3 9.7e-4 7e-3 3e-3 9e-3 5e-3s5e-3 3e-3 9e-3 3e-3c2e-3 0 5e-3 9.7e-4 5e-3 3e-3 6.9e-4 2e-3 3e-3 3e-3 9e-3 5e-3 3e-3 6.7e-4 7e-3 3e-3 9e-3 5e-3 7e-4 2e-3 3e-3 3e-3 5e-3 3e-3s5e-3 9.6e-4 7e-3 3e-3c9.6e-4 2e-3 9e-3 7e-3 0.0146 0.01 7e-3 3e-3 0.0114 7e-3 0.0114 9e-3 0 9.6e-4 3e-3 3e-3 7e-3 3e-3 3e-3 8.4e-4 7e-3 3e-3 9e-3 5e-3 6.8e-4 2e-3 2e-3 3e-3 3e-3 3e-3 9.6e-4 0 9e-3 3e-3 0.013 7e-3 7e-3 3e-3 0.013 9e-3 0.0165 0.01 7e-3 3e-3 0.0145 9e-3 0.0145 0.01 6.8e-4 6.8e-4 5e-3 3e-3 9e-3 5e-3 3e-3 2e-3 7e-3 5e-3 7e-3 7e-3 0 9.6e-4 9.7e-4 2e-3 3e-3 2e-3 3e-3 0 0.0166 9e-3 0.0194 0.013 9.6e-4 9.7e-4 3e-3 3e-3 7e-3 3e-3 2e-3 0 7e-3 2e-3 9e-3 5e-3 2e-3 2e-3 5e-3 5e-3 7e-3 5e-3 9.6e-4 0 3e-3 9.6e-4 3e-3 2e-3 0 9.6e-4 3e-3 3e-3 7e-3 5e-3 3e-3 9.7e-4 0.01 5e-3 0.013 9e-3 5e-3 3e-3 0.0114 7e-3 0.0147 9e-3 3e-3 9.6e-4 7e-3 3e-3 7e-3 5e-3 0 9.7e-4 9.7e-4 2e-3 2e-3 2e-3 3e-3 0 0.0286 0.0178 0.0286 0.0201 0 9.6e-4 9.7e-4 2e-3 3e-3 2e-3 2e-3 0 9e-3 3e-3 0.0145 9e-3 7e-3 5e-3 0.0114 9e-3 0.013 9e-3 6.8e-4 0 3e-3 9.6e-4 3e-3 2e-3 0.013 0.01 0.0168 0.013 0.0189 0.013 9.6e-4 0 2e-3 9.6e-4 2e-3 3e-3 0 9.6e-4 3e-3 3e-3 7e-3 5e-3 7e-3 3e-3 0.013 7e-3 0.0181 0.0114 2e-3 2e-3 7e-3 5e-3 9e-3 7e-3 0.0114 7e-3 0.0221 0.0164 0.0221 0.0181 0 9.6e-4 9.6e-4 2e-3 2e-3 2e-3 9.7e-4 0 5e-3 2e-3 9e-3 3e-3 3e-3 2e-3 7e-3 5e-3 0.01 7e-3s9e-3 7e-3 0.013 0.0114c5e-3 5e-3 0.01 9e-3 0.01 9e-3 9.6e-4 0 3e-3 2e-3 7e-3 5e-3 2e-3 2e-3 5e-3 5e-3 7e-3 5e-3 9.6e-4 0 5e-3 3e-3 0.01 9e-3 3e-3 3e-3 0.01 9e-3 0.0114 9e-3 2e-3 6.8e-4 3e-3 2e-3 3e-3 3e-3 0 9.6e-4 9.7e-4 2e-3 3e-3 2e-3 2e-3 0 3e-3 8.4e-4 3e-3 2e-3 0 9.6e-4 3e-3 3e-3 7e-3 5e-3 3e-3 2e-3 0.01 7e-3 0.013 0.01s9e-3 7e-3 0.01 7e-3c9.7e-4 0 3e-3 6.7e-4 3e-3 2e-3 0 8.5e-4 7e-3 7e-3 0.013 0.013 9e-3 7e-3 0.0169 0.0145 0.0209 0.0182 3e-3 3e-3 9e-3 7e-3 9e-3 7e-3 5.1e-4 0 5e-3 3e-3 9e-3 7e-3 3e-3 3e-3 0.0146 0.013 0.0223 0.0192 9e-3 7e-3 0.0206 0.0178 0.0272 0.0242 7e-3 7e-3 0.013 0.0114 0.013 0.0114 6.9e-4 0 5e-3 3e-3 9e-3 7e-3l0.013 0.013c0.0181 0.0163 0.0361 0.0331 0.0361 0.0346 0 2e-3 -0.0478 0.0501-0.45243 0.45802-0.0696 0.07-0.10941 0.10875-0.11297 0.10938-5e-3 9.7e-4 -9e-3 -2e-3 -0.025-0.0187z" fill="url(#a)" stroke-width=".0021998"/>
</g>
</svg>
